<svg xmlns="http://www.w3.org/2000/svg" xmlns:svg="http://www.w3.org/2000/svg" id="Layer_1" x="0" y="0" enable-background="new 0 0 60.2 60.2" version="1.1" viewBox="0 0 60.2 60.2" xml:space="preserve"><metadata id="metadata3438"/><style id="style3416" type="text/css">.st0{fill:#f37738}</style><title id="title3418">INDIVIDUAL ICONS</title><g id="Layer_2"><circle id="circle3420" cx="30.1" cy="30.1" r="30.1" class="st0"/></g><path id="path3431" fill="#fff" d="M 45.3,39.6 H 35.2 c -1.4,0 -2.5,1.1 -2.5,2.5 0,0 0,0 0,0 V 46 h 15.2 v -3.8 c -0.1,-1.4 -1.2,-2.5 -2.6,-2.6 0,0 0,0 0,0 z M 25,39.6 H 14.9 c -1.4,0 -2.5,1.1 -2.6,2.5 0,0 0,0 0,0.1 V 46 h 15.2 v -3.8 c 0.1,-1.4 -1,-2.5 -2.5,-2.6 0.1,0 0.1,0 0,0 z M 36.4,16.8 c 0,-3.5 -2.9,-6.3 -6.4,-6.3 -3.5,0 -6.3,2.9 -6.3,6.4 0,3.5 2.8,6.3 6.3,6.3 3.6,0 6.4,-2.8 6.4,-6.4 0,0.1 0,0.1 0,0 z m -6.3,5.1 c -2.8,0 -5.1,-2.3 -5.1,-5.1 0,-2.8 2.3,-5.1 5.1,-5.1 2.8,0 5.1,2.3 5.1,5.1 0,2.8 -2.3,5.1 -5.1,5.1 z m 3.8,8.9 c 0,3.5 2.8,6.3 6.3,6.3 3.5,0 6.3,-2.8 6.3,-6.3 0,-3.5 -2.8,-6.3 -6.3,-6.3 -3.5,0 -6.3,2.8 -6.3,6.3 0,0 0,0 0,0 z m 6.3,-5.1 c 2.8,0 5.1,2.3 5.1,5.1 0,2.8 -2.3,5.1 -5.1,5.1 -2.8,0 -5.1,-2.3 -5.1,-5.1 0.1,-2.8 2.3,-5.1 5.1,-5.1 z M 19.9,37.1 c 3.5,0 6.3,-2.8 6.3,-6.3 0,-3.5 -2.8,-6.3 -6.3,-6.3 -3.5,0 -6.3,2.8 -6.3,6.3 0,3.5 2.8,6.3 6.3,6.3 0,0 0,0 0,0 z m 0,-11.4 c 2.8,0 5.1,2.2 5.1,5 0,2.8 -2.2,5.1 -5,5.1 -2.8,0 -5.1,-2.2 -5.1,-5 0,0 0,0 0,0 0,-2.8 2.3,-5.1 5,-5.1 z"/></svg>