<svg xmlns="http://www.w3.org/2000/svg" xmlns:svg="http://www.w3.org/2000/svg" xmlns:xlink="http://www.w3.org/1999/xlink" id="svg8" width="316.509" height="393.824" version="1.1" viewBox="0 0 83.743 104.199"><defs id="defs2"><linearGradient id="linearGradient990"><stop id="stop986" offset="0" stop-color="#a9defe" stop-opacity="1"/><stop id="stop988" offset="1" stop-color="#17a8fc" stop-opacity="1"/></linearGradient><linearGradient id="linearGradient982"><stop id="stop978" offset="0" stop-color="#102e9f" stop-opacity="1"/><stop id="stop980" offset="1" stop-color="#85a9de" stop-opacity="1"/></linearGradient><linearGradient id="linearGradient922"><stop id="stop918" offset="0" stop-color="#a8defe" stop-opacity="1"/><stop id="stop920" offset="1" stop-color="#12a7fc" stop-opacity="1"/></linearGradient><linearGradient id="linearGradient914"><stop id="stop910" offset="0" stop-color="#05239a" stop-opacity="1"/><stop id="stop912" offset="1" stop-color="#91bcf8" stop-opacity="1"/></linearGradient><linearGradient id="linearGradient904"><stop id="stop900" offset="0" stop-color="#0677fc" stop-opacity="1"/><stop id="stop902" offset="1" stop-color="#8fcafe" stop-opacity="1"/></linearGradient><linearGradient id="linearGradient908" x1="83.839" x2="83.47" y1="200.393" y2="127.295" gradientUnits="userSpaceOnUse" xlink:href="#linearGradient904"/><linearGradient id="linearGradient916" x1="111.266" x2="111.48" y1="206.304" y2="118.372" gradientUnits="userSpaceOnUse" xlink:href="#linearGradient914"/><linearGradient id="linearGradient924" x1="103.082" x2="103.194" y1="136.89" y2="107.624" gradientUnits="userSpaceOnUse" xlink:href="#linearGradient922"/><linearGradient id="linearGradient984" x1="132.459" x2="132.352" y1="207.574" y2="189.998" gradientTransform="translate(-8.3333333e-6,3.7633334e-6)" gradientUnits="userSpaceOnUse" xlink:href="#linearGradient982"/><linearGradient id="linearGradient992" x1="131.268" x2="131.37" y1="195.085" y2="179.03" gradientUnits="userSpaceOnUse" xlink:href="#linearGradient990"/></defs><metadata id="metadata5"/><g id="layer1" transform="translate(-72.583331,-105.73763)"><path id="path833" fill="url(#linearGradient916)" fill-opacity="1" stroke="none" stroke-dasharray="none" stroke-linecap="butt" stroke-linejoin="miter" stroke-miterlimit="4" stroke-opacity="1" stroke-width="0" d="M 129.52031,187.46797 92.556918,207.13616 V 137.21057 L 129.52031,117.27232 Z" opacity="1"/><path id="path835" fill="url(#linearGradient908)" fill-opacity="1" stroke="none" stroke-dasharray="none" stroke-linecap="butt" stroke-linejoin="miter" stroke-miterlimit="4" stroke-opacity="1" stroke-width="0" d="M 92.556918,207.13616 74.083331,196.9308 v -69.8311 l 18.473587,10.11087" opacity="1"/><path id="path837" fill="url(#linearGradient924)" fill-opacity="1" stroke="none" stroke-dasharray="none" stroke-linecap="butt" stroke-linejoin="miter" stroke-miterlimit="4" stroke-opacity="1" stroke-width="0" d="M 129.52031,117.27232 92.556918,137.21057 74.083331,127.0997 110.93126,107.43625 Z" opacity="1"/><path id="path839" fill="#fff" fill-opacity="1" fill-rule="nonzero" stroke="none" stroke-dasharray="none" stroke-dashoffset="0" stroke-linecap="butt" stroke-linejoin="miter" stroke-miterlimit="4" stroke-opacity="1" stroke-width="1.5" d="m 79.355465,150.82884 v 1.32227 l 6.631269,3.63829 v -1.32227 z" baseline-shift="baseline" clip-rule="nonzero" color="#000" color-interpolation="sRGB" color-interpolation-filters="linearRGB" color-rendering="auto" direction="ltr" display="inline" dominant-baseline="auto" enable-background="accumulate" font-family="sans-serif" font-size="medium" font-stretch="normal" font-style="normal" font-variant="normal" font-weight="normal" image-rendering="auto" letter-spacing="normal" opacity="1" overflow="visible" shape-rendering="auto" text-anchor="start" text-decoration="none" text-rendering="auto" vector-effect="none" visibility="visible" word-spacing="normal" writing-mode="lr-tb" style="line-height:normal;font-variant-ligatures:normal;font-variant-position:normal;font-variant-caps:normal;font-variant-numeric:normal;font-variant-alternates:normal;font-feature-settings:normal;text-indent:0;text-align:start;text-decoration-line:none;text-decoration-style:solid;text-decoration-color:#000;text-transform:none;text-orientation:mixed;white-space:normal;shape-padding:0;isolation:auto;mix-blend-mode:normal;solid-color:#000;solid-opacity:1"/><path id="path839-0" fill="#fff" fill-opacity="1" fill-rule="nonzero" stroke="none" stroke-dasharray="none" stroke-dashoffset="0" stroke-linecap="butt" stroke-linejoin="miter" stroke-miterlimit="4" stroke-opacity="1" stroke-width="1.5" d="m 79.355465,157.50336 v 1.32227 l 6.631269,3.63829 v -1.32227 z" baseline-shift="baseline" clip-rule="nonzero" color="#000" color-interpolation="sRGB" color-interpolation-filters="linearRGB" color-rendering="auto" direction="ltr" display="inline" dominant-baseline="auto" enable-background="accumulate" font-family="sans-serif" font-size="medium" font-stretch="normal" font-style="normal" font-variant="normal" font-weight="normal" image-rendering="auto" letter-spacing="normal" opacity="1" overflow="visible" shape-rendering="auto" text-anchor="start" text-decoration="none" text-rendering="auto" vector-effect="none" visibility="visible" word-spacing="normal" writing-mode="lr-tb" style="line-height:normal;font-variant-ligatures:normal;font-variant-position:normal;font-variant-caps:normal;font-variant-numeric:normal;font-variant-alternates:normal;font-feature-settings:normal;text-indent:0;text-align:start;text-decoration-line:none;text-decoration-style:solid;text-decoration-color:#000;text-transform:none;text-orientation:mixed;white-space:normal;shape-padding:0;isolation:auto;mix-blend-mode:normal;solid-color:#000;solid-opacity:1"/><path id="path830" fill="none" stroke="#fff" stroke-dasharray="none" stroke-linecap="butt" stroke-linejoin="miter" stroke-miterlimit="4" stroke-opacity="1" stroke-width="3" d="m 92.556918,137.21057 36.963392,-19.93825 z m 0,69.92559 V 137.21057 L 74.083331,127.0997 M 92.556918,207.13616 74.083331,196.9308 v -69.8311 l 36.847929,-19.66345 18.58905,9.83607 v 70.19565 z" opacity="1"/><path id="path830-9-4" fill="url(#linearGradient984)" fill-opacity="1" fill-rule="nonzero" stroke="none" stroke-dasharray="none" stroke-dashoffset="0" stroke-linecap="butt" stroke-linejoin="miter" stroke-miterlimit="4" stroke-opacity="1" stroke-width="3.356" d="m 154.65241,189.6299 -0.0983,10.80248 v 0.009 c 0,0.0477 -0.0757,0.43981 -0.48407,0.99855 -0.4083,0.55875 -1.09563,1.2443 -1.99991,1.92029 -1.80288,1.34772 -4.45543,2.67656 -7.49506,3.5403 -6.94206,1.67714 -18.27384,1.54589 -25.22758,0.16992 -2.6101,-0.5822 -5.49498,-1.55805 -7.80888,-2.89788 -2.25454,-1.30544 -3.82945,-2.93981 -4.40392,-4.60634 v -7.74867 c 0.8093,0.47814 1.56913,0.978 2.60296,1.34537 3.0529,1.08485 7.08362,1.85658 11.55026,2.52081 0.002,3.6e-4 0.004,-3.4e-4 0.006,0 7.20487,1.23533 14.58263,1.06819 21.40006,-0.53303 l 0.0309,-0.006 0.0308,-0.009 c 5.0336,-1.4282 8.63659,-3.10314 11.07233,-4.7693 0.35503,-0.24285 0.51762,-0.49281 0.82457,-0.73552 z" baseline-shift="baseline" clip-rule="nonzero" color="#000" color-interpolation="sRGB" color-interpolation-filters="linearRGB" color-rendering="auto" direction="ltr" display="inline" dominant-baseline="auto" enable-background="accumulate" font-family="sans-serif" font-size="medium" font-stretch="normal" font-style="normal" font-variant="normal" font-weight="normal" image-rendering="auto" letter-spacing="normal" opacity="1" overflow="visible" shape-rendering="auto" text-anchor="start" text-decoration="none" text-rendering="auto" vector-effect="none" visibility="visible" word-spacing="normal" writing-mode="lr-tb" style="line-height:normal;font-variant-ligatures:normal;font-variant-position:normal;font-variant-caps:normal;font-variant-numeric:normal;font-variant-alternates:normal;font-feature-settings:normal;text-indent:0;text-align:start;text-decoration-line:none;text-decoration-style:solid;text-decoration-color:#000;text-transform:none;text-orientation:mixed;white-space:normal;shape-padding:0;isolation:auto;mix-blend-mode:normal;solid-color:#000;solid-opacity:1"/><path id="path974" fill="url(#linearGradient992)" fill-opacity="1" fill-rule="nonzero" stroke="none" stroke-dasharray="none" stroke-dashoffset="0" stroke-linecap="butt" stroke-linejoin="miter" stroke-miterlimit="4" stroke-opacity="1" stroke-width="3.428" d="m 131.37024,179.02905 c 4.93862,-0.14568 10.0042,0.3855 14.07341,1.54021 1.9701,0.71715 4.55842,1.74438 6.54711,2.99521 1.00099,0.6296 1.84093,1.31642 2.35855,1.9495 0.51763,0.63307 0.69072,1.12036 0.69072,1.56622 0,-0.19449 0.002,0.0986 -0.39379,0.59384 -0.39567,0.49523 -1.11379,1.16528 -2.16692,1.87851 -2.09991,1.42217 -5.52817,3.03727 -10.44293,4.42186 -6.58341,1.52717 -13.78641,1.697 -20.81005,0.50394 l -0.0168,-0.002 -0.0168,-0.002 c -4.52341,-0.66515 -8.5696,-1.45433 -11.34213,-2.42977 -1.38627,-0.48771 -2.44928,-1.03828 -3.03665,-1.5118 -0.58736,-0.47351 -0.60227,-0.66479 -0.60227,-0.77366 0,0.15045 0.0722,-0.31139 0.59385,-0.95345 0.5216,-0.64205 1.38252,-1.44748 2.47859,-2.28071 2.19215,-1.66648 5.32286,-3.47056 8.75403,-4.97074 3.54512,-1.55124 8.37255,-2.37811 13.33217,-2.52442 z" baseline-shift="baseline" clip-rule="nonzero" color="#000" color-interpolation="sRGB" color-interpolation-filters="linearRGB" color-rendering="auto" direction="ltr" display="inline" dominant-baseline="auto" enable-background="accumulate" font-family="sans-serif" font-size="medium" font-stretch="normal" font-style="normal" font-variant="normal" font-weight="normal" image-rendering="auto" letter-spacing="normal" opacity="1" overflow="visible" shape-rendering="auto" text-anchor="start" text-decoration="none" text-rendering="auto" vector-effect="none" visibility="visible" word-spacing="normal" writing-mode="lr-tb" style="line-height:normal;font-variant-ligatures:normal;font-variant-position:normal;font-variant-caps:normal;font-variant-numeric:normal;font-variant-alternates:normal;font-feature-settings:normal;text-indent:0;text-align:start;text-decoration-line:none;text-decoration-style:solid;text-decoration-color:#000;text-transform:none;text-orientation:mixed;white-space:normal;shape-padding:0;isolation:auto;mix-blend-mode:normal;solid-color:#000;solid-opacity:1"/><path id="path830-9" fill="none" stroke="#fff" stroke-dasharray="none" stroke-linecap="butt" stroke-linejoin="miter" stroke-miterlimit="4" stroke-opacity="1" stroke-width="3" d="m 106.60552,189.59813 c 0,2.78221 6.74054,4.27294 15.20135,5.38034 6.69226,1.01183 13.55108,0.8719 19.85376,-0.43261 9.37354,-2.34375 13.16559,-5.48859 13.16559,-7.15793 m -35.35978,20.10648 c -5.18726,-1.01663 -11.45615,-3.3789 -12.86092,-7.39902 v -10.49726 c 0,-2.08471 5.38162,-5.62438 11.92505,-8.17086 7.07089,-2.75393 18.47263,-2.86965 26.38391,-0.85801 3.72038,1.20347 9.91174,3.47481 9.91174,6.81867 v 13.06679 c 0,2.21558 -4.6214,5.35918 -10.73294,6.88319 -6.93941,1.48271 -17.75424,1.3564 -24.62684,0.1565 z" opacity="1"/></g></svg>