<svg xmlns="http://www.w3.org/2000/svg" xmlns:svg="http://www.w3.org/2000/svg" xmlns:xlink="http://www.w3.org/1999/xlink" id="svg837" width="724.799" height="529.283" version="1.1" viewBox="0 0 191.77 140.039"><defs id="defs831"><linearGradient id="linearGradient915"><stop id="stop911" offset="0" stop-color="#8fb4f8" stop-opacity="1"/><stop id="stop913" offset="1" stop-color="#2129af" stop-opacity="1"/></linearGradient><linearGradient id="linearGradient907"><stop id="stop903" offset="0" stop-color="#a2d9ff" stop-opacity="1"/><stop id="stop905" offset="1" stop-color="#aedeff" stop-opacity="1"/></linearGradient><linearGradient id="linearGradient899"><stop id="stop895" offset="0" stop-color="#bfe4ff" stop-opacity="1"/><stop id="stop897" offset="1" stop-color="#a5daff" stop-opacity="1"/></linearGradient><linearGradient id="linearGradient891"><stop id="stop887" offset="0" stop-color="#b2d9ff" stop-opacity="1"/><stop id="stop889" offset="1" stop-color="#0b6dff" stop-opacity="1"/></linearGradient><linearGradient id="linearGradient893" x1="30.557" x2="203.979" y1="148.045" y2="148.045" gradientUnits="userSpaceOnUse" xlink:href="#linearGradient891"/><linearGradient id="linearGradient901" x1="47.602" x2="107.637" y1="102.713" y2="102.713" gradientUnits="userSpaceOnUse" xlink:href="#linearGradient899"/><linearGradient id="linearGradient909" x1="102.432" x2="196.908" y1="148.914" y2="148.914" gradientUnits="userSpaceOnUse" xlink:href="#linearGradient907"/><linearGradient id="linearGradient919" x1="193.467" x2="214.355" y1="185.706" y2="185.706" gradientUnits="userSpaceOnUse" xlink:href="#linearGradient915"/></defs><metadata id="metadata834"/><g id="layer1" transform="translate(-26.585689,-74.457)"><path id="path883" fill="#fff" fill-opacity="1" fill-rule="nonzero" stroke="none" stroke-dasharray="none" stroke-dashoffset="0" stroke-linecap="round" stroke-linejoin="miter" stroke-miterlimit="4" stroke-opacity="1" stroke-width="4" d="m 58.482422,74.457031 c -1.616011,0.0021 -3.285497,0.10657 -5.015625,0.328125 l -0.419922,0.05469 -15.876953,9.634765 a 2.0002,2.0002 0 0 0 -0.695313,0.570313 c -8.268669,7.377546 -11.065141,16.989206 -9.453125,27.560546 3.484779,26.10897 19.988498,45.23374 43.8125,55.53515 l 0.01367,0.006 0.01367,0.006 c 13.850363,5.75072 24.543398,0.92764 30.380866,-6.48242 l 27.89648,14.04297 12.66406,15.84766 13.18946,-6.07227 8.65429,16.58594 13.5918,-3.10938 10.37695,15.53125 18.87305,-8.00586 a 2.0002,2.0002 0 0 0 0.91602,-0.51562 l 10.95117,-8.05469 v -5.80273 l -15.9043,-25.06836 a 2.0002,2.0002 0 0 0 -0.35351,-0.55469 l -0.11914,-0.18945 -0.21094,-0.10547 a 2.0002,2.0002 0 0 0 -0.54297,-0.27539 L 111.66602,120.74805 C 106.6421,108.03144 101.74538,99.095173 88.105469,86.144531 l -0.113281,-0.109375 -0.13086,-0.08984 C 78.53468,79.532933 69.794496,74.442501 58.482422,74.457031 Z" baseline-shift="baseline" clip-rule="nonzero" color="#000" color-interpolation="sRGB" color-interpolation-filters="linearRGB" color-rendering="auto" direction="ltr" display="inline" dominant-baseline="auto" enable-background="accumulate" font-family="sans-serif" font-size="medium" font-stretch="normal" font-style="normal" font-variant="normal" font-weight="normal" image-rendering="auto" letter-spacing="normal" opacity="1" overflow="visible" shape-rendering="auto" text-anchor="start" text-decoration="none" text-rendering="auto" vector-effect="none" visibility="visible" word-spacing="normal" writing-mode="lr-tb" style="line-height:normal;font-variant-ligatures:normal;font-variant-position:normal;font-variant-caps:normal;font-variant-numeric:normal;font-variant-alternates:normal;font-feature-settings:normal;text-indent:0;text-align:start;text-decoration-line:none;text-decoration-style:solid;text-decoration-color:#000;text-transform:none;text-orientation:mixed;white-space:normal;shape-padding:0;isolation:auto;mix-blend-mode:normal;solid-color:#000;solid-opacity:1"/><path id="path879" fill="url(#linearGradient893)" fill-opacity="1" fill-rule="nonzero" stroke="none" stroke-dasharray="none" stroke-dashoffset="0" stroke-linecap="round" stroke-linejoin="miter" stroke-miterlimit="4" stroke-opacity="1" stroke-width="4" d="m 50.472656,86.583984 c 3.395983,-0.08616 6.290153,0.263513 8.957032,0.988282 5.333756,1.449537 9.927374,4.467349 15.792968,8.958984 l 0.0098,0.0078 0.0098,0.0078 c 14.050658,10.4891 18.784616,22.39278 21.232421,33.88477 a 2.0002,2.0002 0 0 0 0.121094,0.51172 l 0.136719,0.64453 0.58789,0.28906 a 2.0002,2.0002 0 0 0 0.546876,0.26953 l 91.568364,45.05469 10.99218,17.65821 -95.01562,-48.50977 a 2.0002,2.0002 0 1 0 -1.81836,3.5625 l 100.35547,51.23633 0.0293,2.06054 -14.87696,6.31055 -10.06836,-15.07031 -13.26953,3.03711 -8.98633,-17.22266 -13.80468,6.35547 -11.25586,-14.08594 -31.69532,-15.95508 -0.984373,1.45704 c -4.682188,6.92765 -13.337928,11.93397 -26.615234,6.43359 l -0.0039,-0.002 c -22.805398,-9.86231 -38.143564,-27.6681 -41.4375,-52.41407 l -0.002,-0.0195 -0.002,-0.0195 c -1.461162,-9.55987 0.816799,-17.365922 8.111329,-23.9043 4.393687,-0.931471 8.140281,-1.443078 11.384765,-1.525391 z" baseline-shift="baseline" clip-rule="nonzero" color="#000" color-interpolation="sRGB" color-interpolation-filters="linearRGB" color-rendering="auto" direction="ltr" display="inline" dominant-baseline="auto" enable-background="accumulate" font-family="sans-serif" font-size="medium" font-stretch="normal" font-style="normal" font-variant="normal" font-weight="normal" image-rendering="auto" letter-spacing="normal" opacity="1" overflow="visible" shape-rendering="auto" text-anchor="start" text-decoration="none" text-rendering="auto" vector-effect="none" visibility="visible" word-spacing="normal" writing-mode="lr-tb" style="line-height:normal;font-variant-ligatures:normal;font-variant-position:normal;font-variant-caps:normal;font-variant-numeric:normal;font-variant-alternates:normal;font-feature-settings:normal;text-indent:0;text-align:start;text-decoration-line:none;text-decoration-style:solid;text-decoration-color:#000;text-transform:none;text-orientation:mixed;white-space:normal;shape-padding:0;isolation:auto;mix-blend-mode:normal;solid-color:#000;solid-opacity:1"/><path id="path858" fill="#fff" fill-opacity="1" fill-rule="nonzero" stroke="none" stroke-dasharray="none" stroke-dashoffset="0" stroke-linecap="round" stroke-linejoin="miter" stroke-miterlimit="4" stroke-opacity="1" stroke-width="4" d="m 83.892578,121.64648 a 2.0002,2.0002 0 0 0 -1.970703,2.0293 v 26.59375 a 2.0002,2.0002 0 1 0 4,0 v -26.59375 a 2.0002,2.0002 0 0 0 -2.029297,-2.0293 z" baseline-shift="baseline" clip-rule="nonzero" color="#000" color-interpolation="sRGB" color-interpolation-filters="linearRGB" color-rendering="auto" direction="ltr" display="inline" dominant-baseline="auto" enable-background="accumulate" font-family="sans-serif" font-size="medium" font-stretch="normal" font-style="normal" font-variant="normal" font-weight="normal" image-rendering="auto" letter-spacing="normal" opacity="1" overflow="visible" shape-rendering="auto" text-anchor="start" text-decoration="none" text-rendering="auto" vector-effect="none" visibility="visible" word-spacing="normal" writing-mode="lr-tb" style="line-height:normal;font-variant-ligatures:normal;font-variant-position:normal;font-variant-caps:normal;font-variant-numeric:normal;font-variant-alternates:normal;font-feature-settings:normal;text-indent:0;text-align:start;text-decoration-line:none;text-decoration-style:solid;text-decoration-color:#000;text-transform:none;text-orientation:mixed;white-space:normal;shape-padding:0;isolation:auto;mix-blend-mode:normal;solid-color:#000;solid-opacity:1"/><path id="path860" fill="#fff" stroke="none" stroke-dasharray="none" stroke-linecap="round" stroke-linejoin="miter" stroke-miterlimit="4" stroke-opacity="1" stroke-width="4" d="m 65.481032,131.29289 c -2.112898,3.90418 -5.513082,5.65417 -10.223058,4.20949 -5.11386,-2.11874 -9.699552,-5.09866 -12.695303,-9.68853 -2.166474,-3.57753 -3.899306,-8.09213 -3.407687,-12.29439 0.348219,-3.7351 3.420997,-7.50705 8.753078,-8.21853 4.440929,-0.46735 8.790955,2.90235 12.027128,6.61492 5.869969,6.18077 8.062307,15.00522 5.545842,19.37704 z" opacity="1"/><path id="path862" fill="#06f" fill-opacity="1" stroke="none" stroke-dasharray="none" stroke-linecap="round" stroke-linejoin="miter" stroke-miterlimit="4" stroke-opacity="1" stroke-width="4" d="m 49.24441,110.44586 -0.06682,3.74177 c 2.719801,6.18174 7.181837,8.35859 11.893494,11.15851 0.555844,3.88713 -0.444981,6.3576 -3.474505,5.67948 -4.766294,-1.59808 -8.949455,-4.60844 -11.425773,-8.61945 -3.686396,-6.14626 -2.893202,-13.02684 3.073601,-11.96031 z" opacity="1"/><path id="path881" fill="url(#linearGradient901)" fill-opacity="1" fill-rule="nonzero" stroke="none" stroke-dasharray="none" stroke-dashoffset="0" stroke-linecap="round" stroke-linejoin="miter" stroke-miterlimit="4" stroke-opacity="1" stroke-width="4" d="m 58.513672,78.445312 c 10.148577,-0.04639 17.813223,4.438759 26.939453,10.705079 12.961022,12.328709 17.394085,20.325859 22.183595,32.335939 l -7.968751,5.49414 C 96.894051,115.70294 91.456312,103.65888 77.636719,93.341797 h -0.002 C 71.667492,88.77341 66.600343,85.376068 60.480469,83.712891 56.695858,82.68436 52.481793,82.434889 47.601562,82.824219 l 6.748047,-4.095703 c 1.432639,-0.16936 2.826884,-0.277092 4.164063,-0.283204 z" baseline-shift="baseline" clip-rule="nonzero" color="#000" color-interpolation="sRGB" color-interpolation-filters="linearRGB" color-rendering="auto" direction="ltr" display="inline" dominant-baseline="auto" enable-background="accumulate" font-family="sans-serif" font-size="medium" font-stretch="normal" font-style="normal" font-variant="normal" font-weight="normal" image-rendering="auto" letter-spacing="normal" opacity="1" overflow="visible" shape-rendering="auto" text-anchor="start" text-decoration="none" text-rendering="auto" vector-effect="none" visibility="visible" word-spacing="normal" writing-mode="lr-tb" style="line-height:normal;font-variant-ligatures:normal;font-variant-position:normal;font-variant-caps:normal;font-variant-numeric:normal;font-variant-alternates:normal;font-feature-settings:normal;text-indent:0;text-align:start;text-decoration-line:none;text-decoration-style:solid;text-decoration-color:#000;text-transform:none;text-orientation:mixed;white-space:normal;shape-padding:0;isolation:auto;mix-blend-mode:normal;solid-color:#000;solid-opacity:1"/><path id="path877" fill="url(#linearGradient909)" fill-opacity="1" fill-rule="nonzero" stroke="none" stroke-dasharray="none" stroke-dashoffset="0" stroke-linecap="round" stroke-linejoin="miter" stroke-miterlimit="4" stroke-opacity="1" stroke-width="4" d="m 110.27344,124.52539 86.63476,43.70117 -6.33593,5.07617 -88.14063,-43.36718 z" baseline-shift="baseline" clip-rule="nonzero" color="#000" color-interpolation="sRGB" color-interpolation-filters="linearRGB" color-rendering="auto" direction="ltr" display="inline" dominant-baseline="auto" enable-background="accumulate" font-family="sans-serif" font-size="medium" font-stretch="normal" font-style="normal" font-variant="normal" font-weight="normal" image-rendering="auto" letter-spacing="normal" opacity="1" overflow="visible" shape-rendering="auto" text-anchor="start" text-decoration="none" text-rendering="auto" vector-effect="none" visibility="visible" word-spacing="normal" writing-mode="lr-tb" style="line-height:normal;font-variant-ligatures:normal;font-variant-position:normal;font-variant-caps:normal;font-variant-numeric:normal;font-variant-alternates:normal;font-feature-settings:normal;text-indent:0;text-align:start;text-decoration-line:none;text-decoration-style:solid;text-decoration-color:#000;text-transform:none;text-orientation:mixed;white-space:normal;shape-padding:0;isolation:auto;mix-blend-mode:normal;solid-color:#000;solid-opacity:1"/><path id="path864" fill="url(#linearGradient919)" fill-opacity="1" fill-rule="nonzero" stroke="none" stroke-dasharray="none" stroke-dashoffset="0" stroke-linecap="round" stroke-linejoin="miter" stroke-miterlimit="4" stroke-opacity="1" stroke-width="4" d="m 200.09375,170.79883 14.26172,22.48047 v 2.61718 l -6.41406,4.7168 -0.006,-0.41601 a 2.0002,2.0002 0 0 0 -0.008,-0.59571 l -0.004,-0.27148 -0.15625,-0.25196 -0.004,-0.008 a 2.0002,2.0002 0 0 0 -0.23633,-0.3789 L 193.4668,176.10938 Z" baseline-shift="baseline" clip-rule="nonzero" color="#000" color-interpolation="sRGB" color-interpolation-filters="linearRGB" color-rendering="auto" direction="ltr" display="inline" dominant-baseline="auto" enable-background="accumulate" font-family="sans-serif" font-size="medium" font-stretch="normal" font-style="normal" font-variant="normal" font-weight="normal" image-rendering="auto" letter-spacing="normal" opacity="1" overflow="visible" shape-rendering="auto" text-anchor="start" text-decoration="none" text-rendering="auto" vector-effect="none" visibility="visible" word-spacing="normal" writing-mode="lr-tb" style="line-height:normal;font-variant-ligatures:normal;font-variant-position:normal;font-variant-caps:normal;font-variant-numeric:normal;font-variant-alternates:normal;font-feature-settings:normal;text-indent:0;text-align:start;text-decoration-line:none;text-decoration-style:solid;text-decoration-color:#000;text-transform:none;text-orientation:mixed;white-space:normal;shape-padding:0;isolation:auto;mix-blend-mode:normal;solid-color:#000;solid-opacity:1"/></g></svg>