<svg xmlns="http://www.w3.org/2000/svg" xmlns:svg="http://www.w3.org/2000/svg" xmlns:xlink="http://www.w3.org/1999/xlink" id="svg6223" width="419.498" height="599.626" version="1.1" viewBox="0 0 110.992 158.651"><defs id="defs6217"><linearGradient id="linearGradient6270"><stop id="stop6266" offset="0" stop-color="#fff" stop-opacity="1"/><stop id="stop6268" offset="1" stop-color="#83b6ff" stop-opacity=".96"/></linearGradient><linearGradient id="linearGradient6262"><stop id="stop6258" offset="0" stop-color="#fff" stop-opacity="1"/><stop id="stop6260" offset="1" stop-color="#83b6ff" stop-opacity="1"/></linearGradient><linearGradient id="linearGradient6254"><stop id="stop6250" offset="0" stop-color="#fff" stop-opacity="1"/><stop id="stop6252" offset="1" stop-color="#83b6ff" stop-opacity=".915"/></linearGradient><linearGradient id="linearGradient6256" x1="54.995" x2="89.882" y1="136.018" y2="136.018" gradientUnits="userSpaceOnUse" xlink:href="#linearGradient6254"/><linearGradient id="linearGradient6264" x1="120.204" x2="156.637" y1="172.258" y2="172.258" gradientUnits="userSpaceOnUse" xlink:href="#linearGradient6262"/><linearGradient id="linearGradient6272" x1="85.882" x2="124.204" y1="154.513" y2="154.513" gradientUnits="userSpaceOnUse" xlink:href="#linearGradient6270"/></defs><metadata id="metadata6220"/><g id="layer1" transform="translate(-50.349609,-66.882089)"><path id="path6248" fill="#fff" fill-opacity="1" fill-rule="nonzero" stroke="none" stroke-dasharray="none" stroke-dashoffset="0" stroke-linecap="butt" stroke-linejoin="miter" stroke-miterlimit="4" stroke-opacity="1" stroke-width="4" d="m 57.744141,66.921875 c -1.555937,-0.199741 -3.095825,0.374872 -4.339844,1.224609 -1.658693,1.132983 -3.054688,2.981974 -3.054688,5.316407 V 160.125 c 0,2.53992 0.970587,5.16629 2.390625,7.53516 1.420039,2.36886 3.288428,4.47977 5.585938,5.66601 l -0.0625,-0.0332 90.595708,50.88281 -0.18946,-0.12109 c 1.87272,1.34776 4.49196,1.83404 7.22266,1.20898 1.36535,-0.31253 2.76641,-0.99748 3.81054,-2.22851 1.04414,-1.23104 1.63868,-2.95179 1.63868,-4.94727 v -83.1875 c 0,-6.36525 -2.7075,-11.69084 -7.51172,-14.66211 l -0.0371,-0.0234 -94.457032,-52.796871 -0.04102,-0.01953 c -0.512039,-0.257016 -1.032136,-0.409983 -1.550781,-0.476563 z" baseline-shift="baseline" clip-rule="nonzero" color="#000" color-interpolation="sRGB" color-interpolation-filters="linearRGB" color-rendering="auto" direction="ltr" display="inline" dominant-baseline="auto" enable-background="accumulate" font-family="sans-serif" font-size="medium" font-stretch="normal" font-style="normal" font-variant="normal" font-weight="normal" image-rendering="auto" letter-spacing="normal" opacity="1" overflow="visible" shape-rendering="auto" text-anchor="start" text-decoration="none" text-rendering="auto" vector-effect="none" visibility="visible" word-spacing="normal" writing-mode="lr-tb" style="line-height:normal;font-variant-ligatures:normal;font-variant-position:normal;font-variant-caps:normal;font-variant-numeric:normal;font-variant-alternates:normal;font-feature-settings:normal;text-indent:0;text-align:start;text-decoration-line:none;text-decoration-style:solid;text-decoration-color:#000;text-transform:none;text-orientation:mixed;white-space:normal;shape-padding:0;isolation:auto;mix-blend-mode:normal;solid-color:#000;solid-opacity:1"/><path id="path6236" fill="#06f" fill-opacity=".935" fill-rule="nonzero" stroke="none" stroke-dasharray="none" stroke-dashoffset="0" stroke-linecap="butt" stroke-linejoin="miter" stroke-miterlimit="4" stroke-opacity="1" stroke-width="4" d="m 57.498047,70.974609 94.238283,52.671871 c 3.59633,2.22928 5.60547,5.97496 5.60547,11.25391 v 83.1875 c 0,1.2549 -0.30625,1.90988 -0.6875,2.35938 -0.38126,0.44949 -0.92886,0.75191 -1.6543,0.91796 -1.45088,0.33211 -3.58363,-0.2612 -3.99414,-0.55664 l -0.0898,-0.0664 -90.724614,-50.95508 -0.03125,-0.0156 c -1.276693,-0.65917 -2.854983,-2.27743 -3.988281,-4.16796 -1.133298,-1.89054 -1.822266,-4.05547 -1.822266,-5.47852 V 73.462891 c 0,-0.610216 0.506909,-1.463407 1.3125,-2.013672 0.803782,-0.549029 1.640308,-0.570809 1.835938,-0.47461 z" baseline-shift="baseline" clip-rule="nonzero" color="#000" color-interpolation="sRGB" color-interpolation-filters="linearRGB" color-rendering="auto" direction="ltr" display="inline" dominant-baseline="auto" enable-background="accumulate" font-family="sans-serif" font-size="medium" font-stretch="normal" font-style="normal" font-variant="normal" font-weight="normal" image-rendering="auto" letter-spacing="normal" opacity="1" overflow="visible" shape-rendering="auto" text-anchor="start" text-decoration="none" text-rendering="auto" vector-effect="none" visibility="visible" word-spacing="normal" writing-mode="lr-tb" style="line-height:normal;font-variant-ligatures:normal;font-variant-position:normal;font-variant-caps:normal;font-variant-numeric:normal;font-variant-alternates:normal;font-feature-settings:normal;text-indent:0;text-align:start;text-decoration-line:none;text-decoration-style:solid;text-decoration-color:#000;text-transform:none;text-orientation:mixed;white-space:normal;shape-padding:0;isolation:auto;mix-blend-mode:normal;solid-color:#000;solid-opacity:1"/><path id="path6238" fill="url(#linearGradient6256)" fill-opacity="1" stroke="none" stroke-dasharray="none" stroke-linecap="butt" stroke-linejoin="miter" stroke-miterlimit="4" stroke-opacity="1" stroke-width="4" d="M 56.995226,89.899514 87.881559,107.5226 v 74.65172 L 61.47199,167.44108 c -2.258672,-1.50127 -4.476764,-4.60804 -4.476764,-8.35217 z" opacity="1"/><path id="path6240" fill="url(#linearGradient6272)" fill-opacity="1" stroke="none" stroke-dasharray="none" stroke-linecap="butt" stroke-linejoin="miter" stroke-miterlimit="4" stroke-opacity="1" stroke-width="4" d="M 87.881559,107.5226 122.2036,126.98316 V 201.5139 L 87.881559,182.17432 Z" opacity="1"/><path id="path6242" fill="url(#linearGradient6264)" fill-opacity="1" stroke="none" stroke-dasharray="none" stroke-linecap="butt" stroke-linejoin="miter" stroke-miterlimit="4" stroke-opacity="1" stroke-width="4" d="m 122.2036,126.98316 32.43376,18.34137 v 72.36404 c 0,1.39494 -0.98778,1.56396 -2.3206,0.80042 L 122.2036,201.5139 Z" opacity="1"/></g></svg>