<svg xmlns="http://www.w3.org/2000/svg" xmlns:svg="http://www.w3.org/2000/svg" xmlns:xlink="http://www.w3.org/1999/xlink" id="svg927" width="479.306" height="762.416" version="1.1" viewBox="0 0 126.816 201.723"><defs id="defs921"><linearGradient id="linearGradient1022"><stop id="stop1018" offset="0" stop-color="#0e12a3" stop-opacity="1"/><stop id="stop1020" offset="1" stop-color="#94bafc" stop-opacity="1"/></linearGradient><linearGradient id="linearGradient1006"><stop id="stop1002" offset="0" stop-color="#c0e5ff" stop-opacity="1"/><stop id="stop1004" offset="1" stop-color="#34adff" stop-opacity="1"/></linearGradient><linearGradient id="linearGradient998"><stop id="stop994" offset="0" stop-color="#9cf" stop-opacity="1"/><stop id="stop996" offset="1" stop-color="#c0d9ff" stop-opacity="1"/></linearGradient><linearGradient id="linearGradient992"><stop id="stop988" offset="0" stop-color="#bfe5ff" stop-opacity="1"/><stop id="stop990" offset="1" stop-color="#6cc4ff" stop-opacity="1"/></linearGradient><linearGradient id="linearGradient976"><stop id="stop972" offset="0" stop-color="#93c8ff" stop-opacity="1"/><stop id="stop974" offset="1" stop-color="#1373ff" stop-opacity="1"/></linearGradient><linearGradient id="linearGradient978" x1="68.816" x2="139.486" y1="101.562" y2="101.562" gradientUnits="userSpaceOnUse" xlink:href="#linearGradient976"/><linearGradient id="linearGradient986" x1="102.432" x2="101.676" y1="151.479" y2="96.862" gradientUnits="userSpaceOnUse" xlink:href="#linearGradient992"/><linearGradient id="linearGradient1000" x1="51.379" x2="116.5" y1="176.139" y2="176.139" gradientUnits="userSpaceOnUse" xlink:href="#linearGradient998"/><linearGradient id="linearGradient1008" x1="128.557" x2="128.557" y1="234.459" y2="155.347" gradientUnits="userSpaceOnUse" xlink:href="#linearGradient1006"/><linearGradient id="linearGradient1016" x1="149.671" x2="149.136" y1="232.054" y2="145.458" gradientUnits="userSpaceOnUse" xlink:href="#linearGradient1022"/><linearGradient id="linearGradient893" x1="30.557" x2="203.979" y1="148.045" y2="148.045" gradientTransform="matrix(0.59157423,0,0,0.59157423,18.247146,134.2998)" gradientUnits="userSpaceOnUse" xlink:href="#linearGradient891"/><linearGradient id="linearGradient891"><stop id="stop887" offset="0" stop-color="#b2d9ff" stop-opacity="1"/><stop id="stop889" offset="1" stop-color="#0b6dff" stop-opacity="1"/></linearGradient><linearGradient id="linearGradient901" x1="47.602" x2="107.637" y1="102.713" y2="102.713" gradientTransform="matrix(0.59157423,0,0,0.59157423,18.247146,134.2998)" gradientUnits="userSpaceOnUse" xlink:href="#linearGradient899"/><linearGradient id="linearGradient899"><stop id="stop895" offset="0" stop-color="#bfe4ff" stop-opacity="1"/><stop id="stop897" offset="1" stop-color="#a5daff" stop-opacity="1"/></linearGradient><linearGradient id="linearGradient909" x1="102.432" x2="196.908" y1="148.914" y2="148.914" gradientTransform="matrix(0.59157423,0,0,0.59157423,18.247146,134.2998)" gradientUnits="userSpaceOnUse" xlink:href="#linearGradient907"/><linearGradient id="linearGradient907"><stop id="stop903" offset="0" stop-color="#a2d9ff" stop-opacity="1"/><stop id="stop905" offset="1" stop-color="#aedeff" stop-opacity="1"/></linearGradient><linearGradient id="linearGradient919" x1="193.467" x2="214.355" y1="185.706" y2="185.706" gradientTransform="matrix(0.59157423,0,0,0.59157423,18.247146,134.2998)" gradientUnits="userSpaceOnUse" xlink:href="#linearGradient915"/><linearGradient id="linearGradient915"><stop id="stop911" offset="0" stop-color="#8fb4f8" stop-opacity="1"/><stop id="stop913" offset="1" stop-color="#2129af" stop-opacity="1"/></linearGradient></defs><metadata id="metadata924"/><g id="layer1" transform="translate(-33.97456,-59.468703)"><path id="path965" fill="#fff" fill-opacity="1" fill-rule="nonzero" stroke="none" stroke-dasharray="none" stroke-dashoffset="0" stroke-linecap="butt" stroke-linejoin="miter" stroke-miterlimit="4" stroke-opacity="1" stroke-width="4" d="m 88,79.070312 c 3.198938,0.0131 8.531943,1.793509 14.47656,4.742188 12.36013,7.538495 20.2892,16.39924 21.93946,27.54297 L 84.119141,91.691406 v -8.162109 l -0.0039,-0.05664 C 84.004624,81.49906 84.420749,80.524764 84.951179,79.978517 85.481602,79.432268 86.394133,79.063735 88,79.070312 Z M 90.337891,59.46875 c -5.811463,0 -12.024808,2.009029 -16.939453,5.580078 -4.914646,3.571049 -8.582032,8.869972 -8.582032,15.261719 v 15.210937 l -17.4375,9.955076 v 94.16016 l 70.615234,38.1914 h 20.34766 l 22.44922,-12.83203 v -96.29101 l -17.30469,-8.41211 v -6.03906 c 0,-12.97813 -5.48097,-25.223231 -16.69336,-35.861332 l -0.0195,-0.01758 -0.0195,-0.01758 C 119.12802,71.488454 106.04606,60.058649 90.412109,59.470703 l -0.03711,-0.002 z" baseline-shift="baseline" clip-rule="nonzero" color="#000" color-interpolation="sRGB" color-interpolation-filters="linearRGB" color-rendering="auto" direction="ltr" display="inline" dominant-baseline="auto" enable-background="accumulate" font-family="sans-serif" font-size="medium" font-stretch="normal" font-style="normal" font-variant="normal" font-weight="normal" image-rendering="auto" letter-spacing="normal" opacity="1" overflow="visible" shape-rendering="auto" text-anchor="start" text-decoration="none" text-rendering="auto" vector-effect="none" visibility="visible" word-spacing="normal" writing-mode="lr-tb" style="line-height:normal;font-variant-ligatures:normal;font-variant-position:normal;font-variant-caps:normal;font-variant-numeric:normal;font-variant-alternates:normal;font-feature-settings:normal;text-indent:0;text-align:start;text-decoration-line:none;text-decoration-style:solid;text-decoration-color:#000;text-transform:none;text-orientation:mixed;white-space:normal;shape-padding:0;isolation:auto;mix-blend-mode:normal;solid-color:#000;solid-opacity:1"/><path id="path967" fill="url(#linearGradient978)" fill-opacity="1" fill-rule="nonzero" stroke="none" stroke-dasharray="none" stroke-dashoffset="0" stroke-linecap="butt" stroke-linejoin="miter" stroke-miterlimit="4" stroke-opacity="1" stroke-width="4" d="m 90.302731,63.472656 c 13.692229,0.535219 26.193719,11.030611 33.736329,17.822266 0.002,0.0019 0.004,0.0059 0.006,0.0078 10.57741,10.038676 15.44141,21.086058 15.44141,32.951178 v 20.71484 c 0,1.36993 -0.58883,2.37928 -1.77539,3.24023 -1.18656,0.86096 -3.00238,1.44141 -5.07813,1.44141 -1.2728,0 -3.88086,-1.77967 -3.88086,-4.94922 V 117.1953 l -0.002,0.084 c 0.67342,-15.68616 -9.15733,-27.740443 -24.27734,-36.939458 l -0.0723,-0.04492 -0.0762,-0.03711 c -6.219095,-3.092106 -11.779331,-5.168957 -16.306645,-5.1875 -2.263657,-0.0093 -4.425153,0.563649 -5.9375,2.121094 -1.512346,1.557445 -2.10794,3.848251 -1.958984,6.50586 l -0.002,-0.111328 v 25.589842 c 0,0.65798 -0.442074,1.30306 -1.853516,1.9961 -1.411442,0.69303 -3.57371,1.14843 -5.769531,1.14843 -0.897657,0 -1.778993,-0.51602 -2.511719,-1.38672 -0.732726,-0.87069 -1.153468,-2.0941 -1.167969,-2.55468 V 80.310547 c 0,-4.87134 2.757469,-8.990961 6.933594,-12.025391 4.166306,-3.027295 9.696088,-4.804147 14.552734,-4.8125 z" baseline-shift="baseline" clip-rule="nonzero" color="#000" color-interpolation="sRGB" color-interpolation-filters="linearRGB" color-rendering="auto" direction="ltr" display="inline" dominant-baseline="auto" enable-background="accumulate" font-family="sans-serif" font-size="medium" font-stretch="normal" font-style="normal" font-variant="normal" font-weight="normal" image-rendering="auto" letter-spacing="normal" opacity="1" overflow="visible" shape-rendering="auto" text-anchor="start" text-decoration="none" text-rendering="auto" vector-effect="none" visibility="visible" word-spacing="normal" writing-mode="lr-tb" style="line-height:normal;font-variant-ligatures:normal;font-variant-position:normal;font-variant-caps:normal;font-variant-numeric:normal;font-variant-alternates:normal;font-feature-settings:normal;text-indent:0;text-align:start;text-decoration-line:none;text-decoration-style:solid;text-decoration-color:#000;text-transform:none;text-orientation:mixed;white-space:normal;shape-padding:0;isolation:auto;mix-blend-mode:normal;solid-color:#000;solid-opacity:1"/><path id="path963" fill="url(#linearGradient986)" fill-opacity="1" fill-rule="nonzero" stroke="none" stroke-dasharray="none" stroke-dashoffset="0" stroke-linecap="butt" stroke-linejoin="miter" stroke-miterlimit="4" stroke-opacity="1" stroke-width="4" d="m 84.119141,96.140625 40.589839,19.810545 c -0.002,0.39229 0.062,0.76048 0.0449,1.15821 l -0.002,0.043 v 17.54883 c 0,5.21936 3.84218,8.94922 7.88086,8.94922 2.7959,0 5.40555,-0.73584 7.42774,-2.20312 2.02218,-1.46729 3.42578,-3.79793 3.42578,-6.47852 v -10.22656 l 13.30469,6.46679 v 9.2754 l -19.50782,11.05859 h -18.27929 l -67.625004,-36.2793 v -7.46484 l 13.4375,-7.67188 v 8.34571 l 0.002,0.0312 c 0.05601,1.77895 0.835249,3.49646 2.105469,5.00586 1.27022,1.50939 3.19326,2.81054 5.572266,2.81054 2.710698,0 5.360422,-0.48977 7.533203,-1.55664 2.172781,-1.06687 4.089844,-2.99562 4.089844,-5.58789 z" baseline-shift="baseline" clip-rule="nonzero" color="#000" color-interpolation="sRGB" color-interpolation-filters="linearRGB" color-rendering="auto" direction="ltr" display="inline" dominant-baseline="auto" enable-background="accumulate" font-family="sans-serif" font-size="medium" font-stretch="normal" font-style="normal" font-variant="normal" font-weight="normal" image-rendering="auto" letter-spacing="normal" opacity="1" overflow="visible" shape-rendering="auto" text-anchor="start" text-decoration="none" text-rendering="auto" vector-effect="none" visibility="visible" word-spacing="normal" writing-mode="lr-tb" style="line-height:normal;font-variant-ligatures:normal;font-variant-position:normal;font-variant-caps:normal;font-variant-numeric:normal;font-variant-alternates:normal;font-feature-settings:normal;text-indent:0;text-align:start;text-decoration-line:none;text-decoration-style:solid;text-decoration-color:#000;text-transform:none;text-orientation:mixed;white-space:normal;shape-padding:0;isolation:auto;mix-blend-mode:normal;solid-color:#000;solid-opacity:1"/><path id="path961" fill="url(#linearGradient1000)" fill-opacity="1" fill-rule="nonzero" stroke="none" stroke-dasharray="none" stroke-dashoffset="0" stroke-linecap="butt" stroke-linejoin="miter" stroke-miterlimit="4" stroke-opacity="1" stroke-width="4" d="M 51.378906,119.80469 116.5,154.74023 v 77.73243 L 51.378906,197.25195 Z" baseline-shift="baseline" clip-rule="nonzero" color="#000" color-interpolation="sRGB" color-interpolation-filters="linearRGB" color-rendering="auto" direction="ltr" display="inline" dominant-baseline="auto" enable-background="accumulate" font-family="sans-serif" font-size="medium" font-stretch="normal" font-style="normal" font-variant="normal" font-weight="normal" image-rendering="auto" letter-spacing="normal" opacity="1" overflow="visible" shape-rendering="auto" text-anchor="start" text-decoration="none" text-rendering="auto" vector-effect="none" visibility="visible" word-spacing="normal" writing-mode="lr-tb" style="line-height:normal;font-variant-ligatures:normal;font-variant-position:normal;font-variant-caps:normal;font-variant-numeric:normal;font-variant-alternates:normal;font-feature-settings:normal;text-indent:0;text-align:start;text-decoration-line:none;text-decoration-style:solid;text-decoration-color:#000;text-transform:none;text-orientation:mixed;white-space:normal;shape-padding:0;isolation:auto;mix-blend-mode:normal;solid-color:#000;solid-opacity:1"/><path id="path959" fill="url(#linearGradient1016)" fill-opacity="1" fill-rule="nonzero" stroke="none" stroke-dasharray="none" stroke-dashoffset="0" stroke-linecap="butt" stroke-linejoin="miter" stroke-miterlimit="4" stroke-opacity="1" stroke-width="4" d="m 156.79102,145.08203 v 77.5918 l -16.98047,9.70703 v -77.67188 z" baseline-shift="baseline" clip-rule="nonzero" color="#000" color-interpolation="sRGB" color-interpolation-filters="linearRGB" color-rendering="auto" direction="ltr" display="inline" dominant-baseline="auto" enable-background="accumulate" font-family="sans-serif" font-size="medium" font-stretch="normal" font-style="normal" font-variant="normal" font-weight="normal" image-rendering="auto" letter-spacing="normal" opacity="1" overflow="visible" shape-rendering="auto" text-anchor="start" text-decoration="none" text-rendering="auto" vector-effect="none" visibility="visible" word-spacing="normal" writing-mode="lr-tb" style="line-height:normal;font-variant-ligatures:normal;font-variant-position:normal;font-variant-caps:normal;font-variant-numeric:normal;font-variant-alternates:normal;font-feature-settings:normal;text-indent:0;text-align:start;text-decoration-line:none;text-decoration-style:solid;text-decoration-color:#000;text-transform:none;text-orientation:mixed;white-space:normal;shape-padding:0;isolation:auto;mix-blend-mode:normal;solid-color:#000;solid-opacity:1"/><path id="path952" fill="url(#linearGradient1008)" fill-opacity="1" fill-rule="nonzero" stroke="none" stroke-dasharray="none" stroke-dashoffset="0" stroke-linecap="butt" stroke-linejoin="miter" stroke-miterlimit="4" stroke-opacity="1" stroke-width="4" d="m 120.5,155.54297 h 15.31055 v 78.28515 H 120.5 Z" baseline-shift="baseline" clip-rule="nonzero" color="#000" color-interpolation="sRGB" color-interpolation-filters="linearRGB" color-rendering="auto" direction="ltr" display="inline" dominant-baseline="auto" enable-background="accumulate" font-family="sans-serif" font-size="medium" font-stretch="normal" font-style="normal" font-variant="normal" font-weight="normal" image-rendering="auto" letter-spacing="normal" opacity="1" overflow="visible" shape-rendering="auto" text-anchor="start" text-decoration="none" text-rendering="auto" vector-effect="none" visibility="visible" word-spacing="normal" writing-mode="lr-tb" style="line-height:normal;font-variant-ligatures:normal;font-variant-position:normal;font-variant-caps:normal;font-variant-numeric:normal;font-variant-alternates:normal;font-feature-settings:normal;text-indent:0;text-align:start;text-decoration-line:none;text-decoration-style:solid;text-decoration-color:#000;text-transform:none;text-orientation:mixed;white-space:normal;shape-padding:0;isolation:auto;mix-blend-mode:normal;solid-color:#000;solid-opacity:1"/><path id="path883" fill="#fff" fill-opacity="1" fill-rule="nonzero" stroke="none" stroke-dasharray="none" stroke-dashoffset="0" stroke-linecap="round" stroke-linejoin="miter" stroke-miterlimit="4" stroke-opacity="1" stroke-width="2.366" d="m 52.843846,178.34666 c -0.95599,10e-4 -1.94362,0.063 -2.96712,0.19411 l -0.24841,0.0324 -9.3924,5.69968 a 1.1832668,1.1832668 0 0 0 -0.41133,0.33738 c -4.89153,4.36436 -6.54585,10.05037 -5.59222,16.30411 2.06151,15.44539 11.82468,26.75911 25.91835,32.85316 l 0.008,0.004 0.008,0.004 c 8.19352,3.40198 14.51925,0.54877 17.97254,-3.83483 l 16.50284,8.30746 7.491734,9.37506 7.80255,-3.59219 5.11965,9.81181 8.04056,-1.83943 6.13874,9.18789 11.16481,-4.73606 a 1.1832668,1.1832668 0 0 0 0.54189,-0.30503 l 6.47843,-4.76495 v -3.43274 l -9.40857,-14.8298 a 1.1832668,1.1832668 0 0 0 -0.20913,-0.32814 l -0.0705,-0.11207 -0.12478,-0.0624 a 1.1832668,1.1832668 0 0 0 -0.32121,-0.16291 l -52.980594,-26.725 c -2.97202,-7.52282 -5.8688,-12.80928 -13.93782,-20.47055 l -0.067,-0.0647 -0.0774,-0.0531 c -5.51741,-3.79341 -10.68788,-6.80477 -17.37981,-6.79618 z" baseline-shift="baseline" clip-rule="nonzero" color="#000" color-interpolation="sRGB" color-interpolation-filters="linearRGB" color-rendering="auto" direction="ltr" display="inline" dominant-baseline="auto" enable-background="accumulate" font-family="sans-serif" font-size="medium" font-stretch="normal" font-style="normal" font-variant="normal" font-weight="normal" image-rendering="auto" letter-spacing="normal" opacity="1" overflow="visible" shape-rendering="auto" text-anchor="start" text-decoration="none" text-rendering="auto" vector-effect="none" visibility="visible" word-spacing="normal" writing-mode="lr-tb" style="line-height:normal;font-variant-ligatures:normal;font-variant-position:normal;font-variant-caps:normal;font-variant-numeric:normal;font-variant-alternates:normal;font-feature-settings:normal;text-indent:0;text-align:start;text-decoration-line:none;text-decoration-style:solid;text-decoration-color:#000;text-transform:none;text-orientation:mixed;white-space:normal;shape-padding:0;isolation:auto;mix-blend-mode:normal;solid-color:#000;solid-opacity:1"/><path id="path879" fill="url(#linearGradient893)" fill-opacity="1" fill-rule="nonzero" stroke="none" stroke-dasharray="none" stroke-dashoffset="0" stroke-linecap="round" stroke-linejoin="miter" stroke-miterlimit="4" stroke-opacity="1" stroke-width="2.366" d="m 48.105476,185.52065 c 2.00897,-0.051 3.72109,0.15589 5.29875,0.58465 3.15531,0.8575 5.87277,2.64276 9.34271,5.2999 l 0.006,0.005 0.006,0.005 c 8.31201,6.20508 11.1125,13.24699 12.56055,20.04536 a 1.1832668,1.1832668 0 0 0 0.0716,0.30272 l 0.0809,0.38129 0.34778,0.171 a 1.1832668,1.1832668 0 0 0 0.32352,0.15944 l 54.169504,26.6532 6.50269,10.44614 -56.208794,-28.69713 a 1.1832668,1.1832668 0 1 0 -1.0757,2.10749 l 59.367714,30.31009 0.0173,1.21896 -8.80082,3.73316 -5.95618,-8.91521 -7.84992,1.79668 -5.31608,-10.18849 -8.16649,3.75974 -6.658684,-8.33288 -18.75013,-9.43862 -0.58233,0.86195 c -2.76986,4.09822 -7.89038,7.05984 -15.74489,3.80595 l -0.002,-10e-4 c -13.49109,-5.83429 -22.56476,-16.36773 -24.51337,-31.00681 l -10e-4,-0.0115 -10e-4,-0.0115 c -0.86437,-5.65537 0.48321,-10.27323 4.79846,-14.14117 2.59919,-0.55103 4.81558,-0.85369 6.73493,-0.90238 z" baseline-shift="baseline" clip-rule="nonzero" color="#000" color-interpolation="sRGB" color-interpolation-filters="linearRGB" color-rendering="auto" direction="ltr" display="inline" dominant-baseline="auto" enable-background="accumulate" font-family="sans-serif" font-size="medium" font-stretch="normal" font-style="normal" font-variant="normal" font-weight="normal" image-rendering="auto" letter-spacing="normal" opacity="1" overflow="visible" shape-rendering="auto" text-anchor="start" text-decoration="none" text-rendering="auto" vector-effect="none" visibility="visible" word-spacing="normal" writing-mode="lr-tb" style="line-height:normal;font-variant-ligatures:normal;font-variant-position:normal;font-variant-caps:normal;font-variant-numeric:normal;font-variant-alternates:normal;font-feature-settings:normal;text-indent:0;text-align:start;text-decoration-line:none;text-decoration-style:solid;text-decoration-color:#000;text-transform:none;text-orientation:mixed;white-space:normal;shape-padding:0;isolation:auto;mix-blend-mode:normal;solid-color:#000;solid-opacity:1"/><path id="path858" fill="#fff" fill-opacity="1" fill-rule="nonzero" stroke="none" stroke-dasharray="none" stroke-dashoffset="0" stroke-linecap="round" stroke-linejoin="miter" stroke-miterlimit="4" stroke-opacity="1" stroke-width="2.366" d="m 67.875846,206.26272 a 1.1832668,1.1832668 0 0 0 -1.16582,1.20048 v 15.73218 a 1.1832668,1.1832668 0 1 0 2.36629,0 V 207.4632 a 1.1832668,1.1832668 0 0 0 -1.20047,-1.20048 z" baseline-shift="baseline" clip-rule="nonzero" color="#000" color-interpolation="sRGB" color-interpolation-filters="linearRGB" color-rendering="auto" direction="ltr" display="inline" dominant-baseline="auto" enable-background="accumulate" font-family="sans-serif" font-size="medium" font-stretch="normal" font-style="normal" font-variant="normal" font-weight="normal" image-rendering="auto" letter-spacing="normal" opacity="1" overflow="visible" shape-rendering="auto" text-anchor="start" text-decoration="none" text-rendering="auto" vector-effect="none" visibility="visible" word-spacing="normal" writing-mode="lr-tb" style="line-height:normal;font-variant-ligatures:normal;font-variant-position:normal;font-variant-caps:normal;font-variant-numeric:normal;font-variant-alternates:normal;font-feature-settings:normal;text-indent:0;text-align:start;text-decoration-line:none;text-decoration-style:solid;text-decoration-color:#000;text-transform:none;text-orientation:mixed;white-space:normal;shape-padding:0;isolation:auto;mix-blend-mode:normal;solid-color:#000;solid-opacity:1"/><path id="path860" fill="#fff" stroke="none" stroke-dasharray="none" stroke-linecap="round" stroke-linejoin="miter" stroke-miterlimit="4" stroke-opacity="1" stroke-width="2.366" d="m 56.984046,211.96929 c -1.24994,2.30961 -3.2614,3.34486 -6.0477,2.49022 -3.02523,-1.25339 -5.738,-3.01623 -7.51022,-5.73148 -1.28163,-2.11638 -2.30672,-4.7871 -2.01589,-7.27305 0.20599,-2.20958 2.02376,-4.44097 5.17809,-4.86187 2.62714,-0.27647 5.2005,1.71696 7.11494,3.91322 3.47252,3.65638 4.76945,8.8767 3.28078,11.46296 z" opacity="1"/><path id="path862" fill="#06f" fill-opacity="1" stroke="none" stroke-dasharray="none" stroke-linecap="round" stroke-linejoin="miter" stroke-miterlimit="4" stroke-opacity="1" stroke-width="2.366" d="m 47.378876,199.63672 -0.0395,2.21354 c 1.60896,3.65695 4.24859,4.94472 7.03589,6.60108 0.32882,2.29953 -0.26324,3.761 -2.05543,3.35984 -2.81962,-0.94539 -5.29427,-2.72624 -6.75919,-5.09905 -2.18078,-3.63597 -1.71155,-7.70634 1.81826,-7.07541 z" opacity="1"/><path id="path881" fill="url(#linearGradient901)" fill-opacity="1" fill-rule="nonzero" stroke="none" stroke-dasharray="none" stroke-dashoffset="0" stroke-linecap="round" stroke-linejoin="miter" stroke-miterlimit="4" stroke-opacity="1" stroke-width="2.366" d="m 52.862336,180.70602 c 6.00363,-0.0274 10.53784,2.62586 15.93668,6.33285 7.66741,7.29335 10.2899,12.02426 13.12325,19.12911 l -4.71411,3.25019 c -1.64098,-6.6715 -4.85781,-13.79645 -13.03312,-19.89977 h -0.001 c -3.52999,-2.70254 -6.52759,-4.71232 -10.14795,-5.69621 -2.23888,-0.60846 -4.73181,-0.75604 -7.61883,-0.52572 l 3.99197,-2.42291 c 0.84751,-0.10019 1.67232,-0.16392 2.46336,-0.16754 z" baseline-shift="baseline" clip-rule="nonzero" color="#000" color-interpolation="sRGB" color-interpolation-filters="linearRGB" color-rendering="auto" direction="ltr" display="inline" dominant-baseline="auto" enable-background="accumulate" font-family="sans-serif" font-size="medium" font-stretch="normal" font-style="normal" font-variant="normal" font-weight="normal" image-rendering="auto" letter-spacing="normal" opacity="1" overflow="visible" shape-rendering="auto" text-anchor="start" text-decoration="none" text-rendering="auto" vector-effect="none" visibility="visible" word-spacing="normal" writing-mode="lr-tb" style="line-height:normal;font-variant-ligatures:normal;font-variant-position:normal;font-variant-caps:normal;font-variant-numeric:normal;font-variant-alternates:normal;font-feature-settings:normal;text-indent:0;text-align:start;text-decoration-line:none;text-decoration-style:solid;text-decoration-color:#000;text-transform:none;text-orientation:mixed;white-space:normal;shape-padding:0;isolation:auto;mix-blend-mode:normal;solid-color:#000;solid-opacity:1"/><path id="path877" fill="url(#linearGradient909)" fill-opacity="1" fill-rule="nonzero" stroke="none" stroke-dasharray="none" stroke-dashoffset="0" stroke-linecap="round" stroke-linejoin="miter" stroke-miterlimit="4" stroke-opacity="1" stroke-width="2.366" d="m 83.482076,207.96581 51.250904,25.85248 -3.74818,3.00294 -52.141724,-25.65491 z" baseline-shift="baseline" clip-rule="nonzero" color="#000" color-interpolation="sRGB" color-interpolation-filters="linearRGB" color-rendering="auto" direction="ltr" display="inline" dominant-baseline="auto" enable-background="accumulate" font-family="sans-serif" font-size="medium" font-stretch="normal" font-style="normal" font-variant="normal" font-weight="normal" image-rendering="auto" letter-spacing="normal" opacity="1" overflow="visible" shape-rendering="auto" text-anchor="start" text-decoration="none" text-rendering="auto" vector-effect="none" visibility="visible" word-spacing="normal" writing-mode="lr-tb" style="line-height:normal;font-variant-ligatures:normal;font-variant-position:normal;font-variant-caps:normal;font-variant-numeric:normal;font-variant-alternates:normal;font-feature-settings:normal;text-indent:0;text-align:start;text-decoration-line:none;text-decoration-style:solid;text-decoration-color:#000;text-transform:none;text-orientation:mixed;white-space:normal;shape-padding:0;isolation:auto;mix-blend-mode:normal;solid-color:#000;solid-opacity:1"/><path id="path864" fill="url(#linearGradient919)" fill-opacity="1" fill-rule="nonzero" stroke="none" stroke-dasharray="none" stroke-dashoffset="0" stroke-linecap="round" stroke-linejoin="miter" stroke-miterlimit="4" stroke-opacity="1" stroke-width="2.366" d="m 136.61746,235.33999 8.43687,13.29886 v 1.54826 l -3.79439,2.79033 -0.004,-0.2461 a 1.1832668,1.1832668 0 0 0 -0.005,-0.3524 l -0.002,-0.1606 -0.0924,-0.14906 -0.002,-0.005 a 1.1832668,1.1832668 0 0 0 -0.13981,-0.22415 l -8.31755,-13.35883 z" baseline-shift="baseline" clip-rule="nonzero" color="#000" color-interpolation="sRGB" color-interpolation-filters="linearRGB" color-rendering="auto" direction="ltr" display="inline" dominant-baseline="auto" enable-background="accumulate" font-family="sans-serif" font-size="medium" font-stretch="normal" font-style="normal" font-variant="normal" font-weight="normal" image-rendering="auto" letter-spacing="normal" opacity="1" overflow="visible" shape-rendering="auto" text-anchor="start" text-decoration="none" text-rendering="auto" vector-effect="none" visibility="visible" word-spacing="normal" writing-mode="lr-tb" style="line-height:normal;font-variant-ligatures:normal;font-variant-position:normal;font-variant-caps:normal;font-variant-numeric:normal;font-variant-alternates:normal;font-feature-settings:normal;text-indent:0;text-align:start;text-decoration-line:none;text-decoration-style:solid;text-decoration-color:#000;text-transform:none;text-orientation:mixed;white-space:normal;shape-padding:0;isolation:auto;mix-blend-mode:normal;solid-color:#000;solid-opacity:1"/></g></svg>