<svg xmlns="http://www.w3.org/2000/svg" xmlns:svg="http://www.w3.org/2000/svg" xmlns:xlink="http://www.w3.org/1999/xlink" id="svg8" width="329.863" height="429.614" version="1.1" viewBox="0 0 87.276 113.669"><defs id="defs2"><linearGradient id="linearGradient1814"><stop id="stop1810" offset="0" stop-color="#a8defe" stop-opacity="1"/><stop id="stop1812" offset="1" stop-color="#14a7fc" stop-opacity="1"/></linearGradient><linearGradient id="linearGradient1806"><stop id="stop1802" offset="0" stop-color="#0e7bfc" stop-opacity="1"/><stop id="stop1804" offset="1" stop-color="#8cc8fe" stop-opacity="1"/></linearGradient><linearGradient id="linearGradient1790"><stop id="stop1786" offset="0" stop-color="#0e2da0" stop-opacity="1"/><stop id="stop1788" offset="1" stop-color="#8bb5f4" stop-opacity="1"/></linearGradient><linearGradient id="linearGradient922"><stop id="stop918" offset="0" stop-color="#a8defe" stop-opacity="1"/><stop id="stop920" offset="1" stop-color="#12a7fc" stop-opacity="1"/></linearGradient><linearGradient id="linearGradient914"><stop id="stop910" offset="0" stop-color="#05239a" stop-opacity="1"/><stop id="stop912" offset="1" stop-color="#91bcf8" stop-opacity="1"/></linearGradient><linearGradient id="linearGradient904"><stop id="stop900" offset="0" stop-color="#0677fc" stop-opacity="1"/><stop id="stop902" offset="1" stop-color="#8fcafe" stop-opacity="1"/></linearGradient><linearGradient id="linearGradient908" x1="83.839" x2="83.47" y1="200.393" y2="127.295" gradientUnits="userSpaceOnUse" xlink:href="#linearGradient904"/><linearGradient id="linearGradient916" x1="111.266" x2="111.48" y1="206.304" y2="118.372" gradientUnits="userSpaceOnUse" xlink:href="#linearGradient914"/><linearGradient id="linearGradient924" x1="103.082" x2="103.194" y1="136.89" y2="107.624" gradientUnits="userSpaceOnUse" xlink:href="#linearGradient922"/><linearGradient id="linearGradient1792" x1="147.066" x2="146.866" y1="217.349" y2="176.658" gradientUnits="userSpaceOnUse" xlink:href="#linearGradient1790"/><linearGradient id="linearGradient1808" x1="122.475" x2="122.609" y1="217.585" y2="177.026" gradientUnits="userSpaceOnUse" xlink:href="#linearGradient1806"/><linearGradient id="linearGradient1816" x1="134.704" x2="135.372" y1="188.489" y2="165.503" gradientUnits="userSpaceOnUse" xlink:href="#linearGradient1814"/></defs><metadata id="metadata5"/><g id="layer1" transform="translate(-72.583331,-105.73763)"><path id="path833" fill="url(#linearGradient916)" fill-opacity="1" stroke="none" stroke-dasharray="none" stroke-linecap="butt" stroke-linejoin="miter" stroke-miterlimit="4" stroke-opacity="1" stroke-width="0" d="M 129.52031,187.46797 92.556918,207.13616 V 137.21057 L 129.52031,117.27232 Z" opacity="1"/><path id="path835" fill="url(#linearGradient908)" fill-opacity="1" stroke="none" stroke-dasharray="none" stroke-linecap="butt" stroke-linejoin="miter" stroke-miterlimit="4" stroke-opacity="1" stroke-width="0" d="M 92.556918,207.13616 74.083331,196.9308 v -69.8311 l 18.473587,10.11087" opacity="1"/><path id="path837" fill="url(#linearGradient924)" fill-opacity="1" stroke="none" stroke-dasharray="none" stroke-linecap="butt" stroke-linejoin="miter" stroke-miterlimit="4" stroke-opacity="1" stroke-width="0" d="M 129.52031,117.27232 92.556918,137.21057 74.083331,127.0997 110.93126,107.43625 Z" opacity="1"/><path id="path839" fill="#fff" fill-opacity="1" fill-rule="nonzero" stroke="none" stroke-dasharray="none" stroke-dashoffset="0" stroke-linecap="butt" stroke-linejoin="miter" stroke-miterlimit="4" stroke-opacity="1" stroke-width="1.5" d="m 79.355465,150.82884 v 1.32227 l 6.631269,3.63829 v -1.32227 z" baseline-shift="baseline" clip-rule="nonzero" color="#000" color-interpolation="sRGB" color-interpolation-filters="linearRGB" color-rendering="auto" direction="ltr" display="inline" dominant-baseline="auto" enable-background="accumulate" font-family="sans-serif" font-size="medium" font-stretch="normal" font-style="normal" font-variant="normal" font-weight="normal" image-rendering="auto" letter-spacing="normal" opacity="1" overflow="visible" shape-rendering="auto" text-anchor="start" text-decoration="none" text-rendering="auto" vector-effect="none" visibility="visible" word-spacing="normal" writing-mode="lr-tb" style="line-height:normal;font-variant-ligatures:normal;font-variant-position:normal;font-variant-caps:normal;font-variant-numeric:normal;font-variant-alternates:normal;font-feature-settings:normal;text-indent:0;text-align:start;text-decoration-line:none;text-decoration-style:solid;text-decoration-color:#000;text-transform:none;text-orientation:mixed;white-space:normal;shape-padding:0;isolation:auto;mix-blend-mode:normal;solid-color:#000;solid-opacity:1"/><path id="path839-0" fill="#fff" fill-opacity="1" fill-rule="nonzero" stroke="none" stroke-dasharray="none" stroke-dashoffset="0" stroke-linecap="butt" stroke-linejoin="miter" stroke-miterlimit="4" stroke-opacity="1" stroke-width="1.5" d="m 79.355465,157.50336 v 1.32227 l 6.631269,3.63829 v -1.32227 z" baseline-shift="baseline" clip-rule="nonzero" color="#000" color-interpolation="sRGB" color-interpolation-filters="linearRGB" color-rendering="auto" direction="ltr" display="inline" dominant-baseline="auto" enable-background="accumulate" font-family="sans-serif" font-size="medium" font-stretch="normal" font-style="normal" font-variant="normal" font-weight="normal" image-rendering="auto" letter-spacing="normal" opacity="1" overflow="visible" shape-rendering="auto" text-anchor="start" text-decoration="none" text-rendering="auto" vector-effect="none" visibility="visible" word-spacing="normal" writing-mode="lr-tb" style="line-height:normal;font-variant-ligatures:normal;font-variant-position:normal;font-variant-caps:normal;font-variant-numeric:normal;font-variant-alternates:normal;font-feature-settings:normal;text-indent:0;text-align:start;text-decoration-line:none;text-decoration-style:solid;text-decoration-color:#000;text-transform:none;text-orientation:mixed;white-space:normal;shape-padding:0;isolation:auto;mix-blend-mode:normal;solid-color:#000;solid-opacity:1"/><path id="path830" fill="none" stroke="#fff" stroke-dasharray="none" stroke-linecap="butt" stroke-linejoin="miter" stroke-miterlimit="4" stroke-opacity="1" stroke-width="3" d="m 92.556918,137.21057 36.963392,-19.93825 z m 0,69.92559 V 137.21057 L 74.083331,127.0997 M 92.556918,207.13616 74.083331,196.9308 v -69.8311 l 36.847929,-19.66345 18.58905,9.83607 v 70.19565 z" opacity="1"/><path id="path1772" fill="url(#linearGradient1816)" fill-opacity="1" stroke="#000" stroke-linecap="butt" stroke-linejoin="miter" stroke-opacity="1" stroke-width=".265" d="m 112.11956,177.19643 23.25245,-11.69304 22.25019,11.35896 -22.91836,11.62622 z"/><path id="path1774" fill="url(#linearGradient1808)" fill-opacity="1" stroke="#000" stroke-linecap="butt" stroke-linejoin="miter" stroke-opacity="1" stroke-width=".265" d="m 112.11956,177.19643 22.58428,11.29214 -0.0668,28.99874 -23.31926,-10.62396 z"/><path id="path1776" fill="url(#linearGradient1792)" fill-opacity="1" stroke="#000" stroke-linecap="butt" stroke-linejoin="miter" stroke-opacity="1" stroke-width=".265" d="m 134.63704,217.48731 0.0668,-28.99874 22.91836,-11.62622 1.00226,30.001 z" opacity="1"/><path id="path1753" fill="#fff" fill-opacity="1" fill-rule="nonzero" stroke="none" stroke-dasharray="none" stroke-dashoffset="0" stroke-linecap="butt" stroke-linejoin="miter" stroke-miterlimit="4" stroke-opacity="1" stroke-width="1.8" d="m 134.97677,163.83186 -24.74836,12.08815 -0.35553,32.10553 0.8909,0.40411 24.14633,10.97659 24.94938,-11.58585 -0.0703,-31.68954 z m -0.0103,3.34398 4.79608,2.37712 -4.97954,2.4939 -4.83226,-2.42104 z m 6.81715,3.3786 4.66845,2.31408 -4.99711,2.52026 -4.66173,-2.3363 z m -13.86789,0.0656 4.85759,2.43241 -4.69326,2.34973 -4.90667,-2.46548 z m 20.55275,3.24787 6.45335,3.19825 -5.06945,2.5275 -6.39135,-3.20136 z m -27.32753,0.0615 4.93148,2.47892 -6.06061,3.03496 -4.9475,-2.54507 z m 13.64206,0.1292 4.67,2.3399 -4.68912,2.36523 -4.67775,-2.35179 z m 6.67401,3.34398 6.38049,3.19567 -4.73046,2.35799 -6.34121,-3.18688 z m -13.37902,0.0134 4.6855,2.35541 -6.11642,3.08457 -4.65295,-2.39314 z m -14.88695,1.89084 3.94343,2.0283 -0.0367,7.86412 -3.99356,-1.99522 z m 43.60561,0.1757 0.0165,7.55871 -4.34702,2.173 -0.0186,-7.56285 z m -22.03277,1.29501 6.33088,3.18224 -6.24716,3.11454 -6.22288,-3.20084 z m -15.83314,1.48157 6.5474,3.36827 -0.003,7.75766 -6.58151,-3.28869 z m 31.719,0.28887 0.0181,7.56491 -6.58978,3.29334 -0.0191,-7.57215 z m -23.37274,4.00492 6.06268,3.11867 0.0176,7.65122 -6.08335,-3.03909 z m 14.98462,0.17777 0.0191,7.5737 -5.92367,2.96002 -0.0176,-7.58093 z m 14.55621,2.32182 0.0176,8.02948 -4.34443,2.16163 -0.0202,-8.01915 z m -43.73583,0.154 4.00596,2.00091 -0.0372,8.02225 -4.0566,-2.02624 z m 5.80172,2.89801 6.59081,3.29231 -0.003,8.0393 -6.62595,-3.30988 z m 31.78927,0.0186 0.0196,8.01553 -6.58978,3.27835 -0.0202,-8.00158 z m -23.39961,4.17183 6.088,3.04168 0.0186,8.04964 -6.10971,-3.05201 z m 15.01252,0.0186 0.0202,7.99744 -5.92626,2.94866 -0.0181,-7.98608 z m 14.55415,2.77605 0.015,6.81664 -4.34289,2.01693 -0.0165,-6.67194 z m -43.8676,0.11369 4.069,2.03295 -0.0315,6.73706 -4.11345,-1.86965 z m 5.86372,2.92954 6.63474,3.31504 -0.002,6.37016 -6.66419,-3.02876 z m 31.86111,0.0134 0.016,6.61199 -6.58927,3.06028 -0.016,-6.39392 z m -8.38606,4.17235 0.016,6.3345 -5.92884,2.75332 -0.0139,-6.13865 z m -15.04145,0.0274 6.11487,3.05511 0.0134,6.02082 -6.13037,-2.78639 z" baseline-shift="baseline" clip-rule="nonzero" color="#000" color-interpolation="sRGB" color-interpolation-filters="linearRGB" color-rendering="auto" direction="ltr" display="inline" dominant-baseline="auto" enable-background="accumulate" font-family="sans-serif" font-size="medium" font-stretch="normal" font-style="normal" font-variant="normal" font-weight="normal" image-rendering="auto" letter-spacing="normal" opacity="1" overflow="visible" shape-rendering="auto" text-anchor="start" text-decoration="none" text-rendering="auto" vector-effect="none" visibility="visible" word-spacing="normal" writing-mode="lr-tb" style="line-height:normal;font-variant-ligatures:normal;font-variant-position:normal;font-variant-caps:normal;font-variant-numeric:normal;font-variant-alternates:normal;font-feature-settings:normal;text-indent:0;text-align:start;text-decoration-line:none;text-decoration-style:solid;text-decoration-color:#000;text-transform:none;text-orientation:mixed;white-space:normal;shape-padding:0;isolation:auto;mix-blend-mode:normal;solid-color:#000;solid-opacity:1"/></g></svg>