<svg xmlns="http://www.w3.org/2000/svg" xmlns:svg="http://www.w3.org/2000/svg" xmlns:xlink="http://www.w3.org/1999/xlink" id="svg924" width="676.595" height="676.116" version="1.1" viewBox="0 0 179.016 178.889"><defs id="defs918"><linearGradient id="linearGradient1111"><stop id="stop1107" offset="0" stop-color="#f9b922" stop-opacity="1"/><stop id="stop1109" offset="1" stop-color="#ffdf2e" stop-opacity="1"/></linearGradient><linearGradient id="linearGradient1095"><stop id="stop1091" offset="0" stop-color="#f07c10" stop-opacity="1"/><stop id="stop1093" offset="1" stop-color="#f6a21b" stop-opacity="1"/></linearGradient><linearGradient id="linearGradient1054"><stop id="stop1050" offset="0" stop-color="#0c7afc" stop-opacity="1"/><stop id="stop1052" offset="1" stop-color="#85c4fe" stop-opacity="1"/></linearGradient><linearGradient id="linearGradient1040"><stop id="stop1036" offset="0" stop-color="#0c2a9e" stop-opacity="1"/><stop id="stop1038" offset="1" stop-color="#7da6eb" stop-opacity="1"/></linearGradient><linearGradient id="linearGradient1026"><stop id="stop1022" offset="0" stop-color="#b7e4fe" stop-opacity="1"/><stop id="stop1024" offset="1" stop-color="#09a3fc" stop-opacity="1"/></linearGradient><linearGradient id="linearGradient1020" x1="106.908" x2="107.175" y1="168.443" y2="98.686" gradientUnits="userSpaceOnUse" xlink:href="#linearGradient1026"/><linearGradient id="linearGradient1034" x1="143.442" x2="143.064" y1="192.301" y2="141.085" gradientUnits="userSpaceOnUse" xlink:href="#linearGradient1040"/><linearGradient id="linearGradient1048" x1="78.619" x2="79.375" y1="192.301" y2="134.092" gradientUnits="userSpaceOnUse" xlink:href="#linearGradient1054"/><linearGradient id="linearGradient1097" x1="112.259" x2="112.259" y1="228.964" y2="154.125" gradientUnits="userSpaceOnUse" xlink:href="#linearGradient1095"/><linearGradient id="linearGradient1105" x1="110.747" x2="110.666" y1="133.714" y2="59.174" gradientUnits="userSpaceOnUse" xlink:href="#linearGradient1111"/></defs><metadata id="metadata921"/><g id="layer1" transform="translate(-17.363234,-55.115052)"><path id="path1089" fill="#fff" fill-opacity="1" fill-rule="nonzero" stroke="none" stroke-dasharray="none" stroke-dashoffset="0" stroke-linecap="butt" stroke-linejoin="miter" stroke-miterlimit="4" stroke-opacity="1" stroke-width="4" d="m 110.79883,55.173828 c -27.921255,-0.720053 -45.5032,5.16603 -69.513674,18.195313 l -0.01563,0.0098 -0.01367,0.0078 c -18.776938,10.608636 -25.839012,26.101175 -22.40625,39.076169 2.528293,11.16204 13.540463,23.66237 22.825056,29.29185 l 1.099609,0.66797 1.0625,-0.72461 27.458148,-23.46958 -1.939453,-1.70313 c -3.019072,-2.65038 -5.114881,-4.91322 -6.347657,-6.80664 -1.232775,-1.89342 -1.600223,-3.32111 -1.470703,-4.62109 0.258198,-2.5915 3.046131,-5.701326 8.833985,-9.777346 8.206471,-5.120747 18.362038,-6.939399 29.449218,-8.189453 l -0.002,0.002 c 12.692341,-1.417585 24.540821,1.072088 36.416021,4.105469 0.001,3.52e-4 0.003,0.0016 0.004,0.002 7.77428,2.099903 11.28804,4.392172 14.77149,8.232422 L 136.89067,110.7677 h 59.48829 L 196.26953,60.484375 178.69922,75.5625 C 155.45708,62.81904 132.94472,56.46488 110.86328,55.177734 l -0.0332,-0.002 z" baseline-shift="baseline" clip-rule="nonzero" color="#000" color-interpolation="sRGB" color-interpolation-filters="linearRGB" color-rendering="auto" direction="ltr" display="inline" dominant-baseline="auto" enable-background="accumulate" font-family="sans-serif" font-size="medium" font-stretch="normal" font-style="normal" font-variant="normal" font-weight="normal" image-rendering="auto" letter-spacing="normal" opacity="1" overflow="visible" shape-rendering="auto" text-anchor="start" text-decoration="none" text-rendering="auto" vector-effect="none" visibility="visible" word-spacing="normal" writing-mode="lr-tb" style="line-height:normal;font-variant-ligatures:normal;font-variant-position:normal;font-variant-caps:normal;font-variant-numeric:normal;font-variant-alternates:normal;font-feature-settings:normal;text-indent:0;text-align:start;text-decoration-line:none;text-decoration-style:solid;text-decoration-color:#000;text-transform:none;text-orientation:mixed;white-space:normal;shape-padding:0;isolation:auto;mix-blend-mode:normal;solid-color:#000;solid-opacity:1"/><path id="path1067" fill="url(#linearGradient1105)" fill-opacity="1" fill-rule="nonzero" stroke="none" stroke-dasharray="none" stroke-dashoffset="0" stroke-linecap="butt" stroke-linejoin="miter" stroke-miterlimit="4" stroke-opacity="1" stroke-width="4" d="m 110.66602,59.173828 c 21.85549,1.279321 44.1271,7.596298 67.33203,20.535156 l 1.21679,0.679688 13.07422,-11.216797 0.082,37.595705 h -44.07617 l 8.4707,-6.777346 -1.29296,-1.566406 c -4.33134,-5.246893 -8.92177,-8.545279 -18.21875,-11.052734 l -0.0137,-0.0039 -0.0117,-0.002 C 125.24537,84.304154 112.85399,81.650804 99.375,83.15625 h -0.002 c -11.256521,1.269146 -22.066315,3.098826 -31.169922,8.796875 l -0.04492,0.0293 -0.04492,0.0293 c -6.068669,4.265919 -10.080175,7.905278 -10.55664,12.687505 -0.238233,2.39111 0.54342,4.81102 2.099609,7.20117 1.209076,1.85702 3.039146,3.80379 5.214844,5.86328 L 42.7547,137.59655 C 34.7432,132.39059 24.861423,120.96398 22.740191,111.54103 l -0.0098,-0.0371 -0.0098,-0.0371 C 19.818951,100.5554 25.485143,86.903826 43.193247,76.886745 l 0.0078,-0.0039 C 66.931404,64.006394 83.359241,58.474084 110.66602,59.173828 Z" baseline-shift="baseline" clip-rule="nonzero" color="#000" color-interpolation="sRGB" color-interpolation-filters="linearRGB" color-rendering="auto" direction="ltr" display="inline" dominant-baseline="auto" enable-background="accumulate" font-family="sans-serif" font-size="medium" font-stretch="normal" font-style="normal" font-variant="normal" font-weight="normal" image-rendering="auto" letter-spacing="normal" opacity="1" overflow="visible" shape-rendering="auto" text-anchor="start" text-decoration="none" text-rendering="auto" vector-effect="none" visibility="visible" word-spacing="normal" writing-mode="lr-tb" style="line-height:normal;font-variant-ligatures:normal;font-variant-position:normal;font-variant-caps:normal;font-variant-numeric:normal;font-variant-alternates:normal;font-feature-settings:normal;text-indent:0;text-align:start;text-decoration-line:none;text-decoration-style:solid;text-decoration-color:#000;text-transform:none;text-orientation:mixed;white-space:normal;shape-padding:0;isolation:auto;mix-blend-mode:normal;solid-color:#000;solid-opacity:1"/><path id="path1083" fill="#fff" fill-opacity="1" fill-rule="nonzero" stroke="none" stroke-dasharray="none" stroke-dashoffset="0" stroke-linecap="butt" stroke-linejoin="miter" stroke-miterlimit="4" stroke-opacity="1" stroke-width="4" d="m 167.43359,147.51562 -1.23437,0.98047 -27.20703,21.60157 1.98047,1.5664 c 3.00426,2.37562 6.04914,5.29839 8.10351,8.41016 2.0314,3.07696 3.05979,6.22696 2.51563,9.39648 -1.18565,3.72975 -2.81167,5.45098 -6.56641,6.95118 -3.79797,1.51747 -9.82163,2.47367 -18.75,3.7207 -21.08895,2.41291 -31.561381,0.46408 -49.873046,-2.77344 h -0.002 c -6.967648,-1.29348 -11.45592,-3.91784 -14.84961,-7.64844 l 17.47461,-15.13672 -61.554688,1.39844 -0.107422,52.01563 17.480469,-12.26953 c 19.095925,11.45899 42.391568,15.97965 66.212887,17.77343 9.3378,1.20335 22.47049,0.13449 35.06055,-2.04687 12.59652,-2.18248 24.51815,-5.44035 31.48633,-9.02735 l 0.0312,-0.0176 0.0312,-0.0176 c 4.54299,-2.54842 10.86954,-6.53397 16.18945,-11.75586 5.31853,-5.22054 9.731,-11.7729 9.87305,-19.42774 0.23353,-7.99332 -2.11324,-16.3741 -7.36133,-23.7832 -5.14802,-7.54397 -10.13945,-13.03785 -17.69141,-18.93945 z" baseline-shift="baseline" clip-rule="nonzero" color="#000" color-interpolation="sRGB" color-interpolation-filters="linearRGB" color-rendering="auto" direction="ltr" display="inline" dominant-baseline="auto" enable-background="accumulate" font-family="sans-serif" font-size="medium" font-stretch="normal" font-style="normal" font-variant="normal" font-weight="normal" image-rendering="auto" letter-spacing="normal" opacity="1" overflow="visible" shape-rendering="auto" text-anchor="start" text-decoration="none" text-rendering="auto" vector-effect="none" visibility="visible" word-spacing="normal" writing-mode="lr-tb" style="line-height:normal;font-variant-ligatures:normal;font-variant-position:normal;font-variant-caps:normal;font-variant-numeric:normal;font-variant-alternates:normal;font-feature-settings:normal;text-indent:0;text-align:start;text-decoration-line:none;text-decoration-style:solid;text-decoration-color:#000;text-transform:none;text-orientation:mixed;white-space:normal;shape-padding:0;isolation:auto;mix-blend-mode:normal;solid-color:#000;solid-opacity:1"/><path id="path1069" fill="url(#linearGradient1097)" fill-opacity="1" fill-rule="nonzero" stroke="none" stroke-dasharray="none" stroke-dashoffset="0" stroke-linecap="butt" stroke-linejoin="miter" stroke-miterlimit="4" stroke-opacity="1" stroke-width="4" d="m 167.41209,152.64258 c 6.56255,5.29534 10.97951,10.18556 15.67187,17.0664 l 0.01,0.0156 0.01,0.0137 c 4.75502,6.71301 6.83685,14.23274 6.625,21.36914 v 0.0117 0.0117 c -0.11221,6.14279 -3.76565,11.83072 -8.67579,16.65039 -4.89911,4.80885 -10.94611,8.65129 -15.31054,11.10156 -6.17019,3.16909 -17.97912,6.49499 -30.30664,8.63086 -12.34351,2.13864 -25.33162,3.1219 -33.88086,2.01758 h -0.0117 l -0.01,-0.002 C 76.558685,228.54378 51.152804,220.47678 35.458984,211.66797 l -1.058593,-0.51367 -13.021485,9.13867 0.08203,-40.40039 46.546874,-1.05664 -12.068359,10.45312 1.162109,1.49805 c 4.08826,5.2672 10.005839,8.92821 18.585938,10.51758 l 0.0078,0.002 0.0078,0.002 c 18.311083,3.23741 29.546962,5.27013 51.052732,2.80664 l 0.0234,-0.004 0.0254,-0.002 c 8.966,-1.25204 15.13195,-2.14548 19.70508,-3.97266 4.57312,-1.82718 7.50435,-4.94167 8.95312,-9.60547 l 0.0352,-0.11523 0.0215,-0.11719 c 0.82327,-4.49868 -0.69305,-8.77559 -3.10547,-12.42969 -1.94249,-2.94231 -4.50317,-5.45106 -7.09765,-7.68555 z" baseline-shift="baseline" clip-rule="nonzero" color="#000" color-interpolation="sRGB" color-interpolation-filters="linearRGB" color-rendering="auto" direction="ltr" display="inline" dominant-baseline="auto" enable-background="accumulate" font-family="sans-serif" font-size="medium" font-stretch="normal" font-style="normal" font-variant="normal" font-weight="normal" image-rendering="auto" letter-spacing="normal" opacity="1" overflow="visible" shape-rendering="auto" text-anchor="start" text-decoration="none" text-rendering="auto" vector-effect="none" visibility="visible" word-spacing="normal" writing-mode="lr-tb" style="line-height:normal;font-variant-ligatures:normal;font-variant-position:normal;font-variant-caps:normal;font-variant-numeric:normal;font-variant-alternates:normal;font-feature-settings:normal;text-indent:0;text-align:start;text-decoration-line:none;text-decoration-style:solid;text-decoration-color:#000;text-transform:none;text-orientation:mixed;white-space:normal;shape-padding:0;isolation:auto;mix-blend-mode:normal;solid-color:#000;solid-opacity:1"/><path id="path1012" fill="#fff" fill-opacity="1" fill-rule="nonzero" stroke="none" stroke-dasharray="none" stroke-dashoffset="0" stroke-linecap="butt" stroke-linejoin="miter" stroke-miterlimit="4" stroke-opacity="1" stroke-width="4" d="M 100.12695,93.146484 42.078125,128.91797 v 26.04297 l 71.550785,43.6914 1.04492,-0.64453 56.01953,-34.56054 v -27.8125 z" baseline-shift="baseline" clip-rule="nonzero" color="#000" color-interpolation="sRGB" color-interpolation-filters="linearRGB" color-rendering="auto" direction="ltr" display="inline" dominant-baseline="auto" enable-background="accumulate" font-family="sans-serif" font-size="medium" font-stretch="normal" font-style="normal" font-variant="normal" font-weight="normal" image-rendering="auto" letter-spacing="normal" opacity="1" overflow="visible" shape-rendering="auto" text-anchor="start" text-decoration="none" text-rendering="auto" vector-effect="none" visibility="visible" word-spacing="normal" writing-mode="lr-tb" style="line-height:normal;font-variant-ligatures:normal;font-variant-position:normal;font-variant-caps:normal;font-variant-numeric:normal;font-variant-alternates:normal;font-feature-settings:normal;text-indent:0;text-align:start;text-decoration-line:none;text-decoration-style:solid;text-decoration-color:#000;text-transform:none;text-orientation:mixed;white-space:normal;shape-padding:0;isolation:auto;mix-blend-mode:normal;solid-color:#000;solid-opacity:1"/><path id="path1010" fill="url(#linearGradient1020)" fill-opacity="1" fill-rule="nonzero" stroke="none" stroke-dasharray="none" stroke-dashoffset="0" stroke-linecap="butt" stroke-linejoin="miter" stroke-miterlimit="4" stroke-opacity="1" stroke-width="4" d="m 100.15035,97.830078 64.74609,38.984372 -51.30468,32.72657 -65.667972,-39.52735 z" baseline-shift="baseline" clip-rule="nonzero" color="#000" color-interpolation="sRGB" color-interpolation-filters="linearRGB" color-rendering="auto" direction="ltr" display="inline" dominant-baseline="auto" enable-background="accumulate" font-family="sans-serif" font-size="medium" font-stretch="normal" font-style="normal" font-variant="normal" font-weight="normal" image-rendering="auto" letter-spacing="normal" opacity="1" overflow="visible" shape-rendering="auto" text-anchor="start" text-decoration="none" text-rendering="auto" vector-effect="none" visibility="visible" word-spacing="normal" writing-mode="lr-tb" style="line-height:normal;font-variant-ligatures:normal;font-variant-position:normal;font-variant-caps:normal;font-variant-numeric:normal;font-variant-alternates:normal;font-feature-settings:normal;text-indent:0;text-align:start;text-decoration-line:none;text-decoration-style:solid;text-decoration-color:#000;text-transform:none;text-orientation:mixed;white-space:normal;shape-padding:0;isolation:auto;mix-blend-mode:normal;solid-color:#000;solid-opacity:1"/><path id="path1008" fill="url(#linearGradient1048)" fill-opacity="1" fill-rule="nonzero" stroke="none" stroke-dasharray="none" stroke-dashoffset="0" stroke-linecap="butt" stroke-linejoin="miter" stroke-miterlimit="4" stroke-opacity="1" stroke-width="4" d="m 46.078085,133.57227 65.544925,39.45117 v 19.71875 L 46.078125,152.7168 Z" baseline-shift="baseline" clip-rule="nonzero" color="#000" color-interpolation="sRGB" color-interpolation-filters="linearRGB" color-rendering="auto" direction="ltr" display="inline" dominant-baseline="auto" enable-background="accumulate" font-family="sans-serif" font-size="medium" font-stretch="normal" font-style="normal" font-variant="normal" font-weight="normal" image-rendering="auto" letter-spacing="normal" opacity="1" overflow="visible" shape-rendering="auto" text-anchor="start" text-decoration="none" text-rendering="auto" vector-effect="none" visibility="visible" word-spacing="normal" writing-mode="lr-tb" style="line-height:normal;font-variant-ligatures:normal;font-variant-position:normal;font-variant-caps:normal;font-variant-numeric:normal;font-variant-alternates:normal;font-feature-settings:normal;text-indent:0;text-align:start;text-decoration-line:none;text-decoration-style:solid;text-decoration-color:#000;text-transform:none;text-orientation:mixed;white-space:normal;shape-padding:0;isolation:auto;mix-blend-mode:normal;solid-color:#000;solid-opacity:1"/><path id="path943" fill="url(#linearGradient1034)" fill-opacity="1" fill-rule="nonzero" stroke="none" stroke-dasharray="none" stroke-dashoffset="0" stroke-linecap="butt" stroke-linejoin="miter" stroke-miterlimit="4" stroke-opacity="1" stroke-width="4" d="m 166.69332,140.41406 v 20.80078 l -51.07031,31.50586 v -19.73047 z" baseline-shift="baseline" clip-rule="nonzero" color="#000" color-interpolation="sRGB" color-interpolation-filters="linearRGB" color-rendering="auto" direction="ltr" display="inline" dominant-baseline="auto" enable-background="accumulate" font-family="sans-serif" font-size="medium" font-stretch="normal" font-style="normal" font-variant="normal" font-weight="normal" image-rendering="auto" letter-spacing="normal" opacity="1" overflow="visible" shape-rendering="auto" text-anchor="start" text-decoration="none" text-rendering="auto" vector-effect="none" visibility="visible" word-spacing="normal" writing-mode="lr-tb" style="line-height:normal;font-variant-ligatures:normal;font-variant-position:normal;font-variant-caps:normal;font-variant-numeric:normal;font-variant-alternates:normal;font-feature-settings:normal;text-indent:0;text-align:start;text-decoration-line:none;text-decoration-style:solid;text-decoration-color:#000;text-transform:none;text-orientation:mixed;white-space:normal;shape-padding:0;isolation:auto;mix-blend-mode:normal;solid-color:#000;solid-opacity:1"/><path id="path945-1-1" fill="#fff" stroke="none" stroke-dasharray="none" stroke-linecap="butt" stroke-linejoin="miter" stroke-miterlimit="4" stroke-opacity="1" stroke-width="1" d="m 93.035933,176.74911 v -9.59402 l 8.499647,5.12872 -0.0236,9.48471 z m -16.381088,-9.92304 v -9.59402 l 8.499646,5.12872 -0.02362,9.48471 z m -16.381086,-9.92304 v -9.59402 l 8.499646,5.12872 -0.02362,9.48471 z" opacity="1"/></g></svg>