<svg xmlns="http://www.w3.org/2000/svg" xmlns:svg="http://www.w3.org/2000/svg" xmlns:xlink="http://www.w3.org/1999/xlink" id="svg1142" width="520.667" height="712.004" version="1.1" viewBox="0 0 137.76 188.385"><defs id="defs1136"><linearGradient id="linearGradient1210"><stop id="stop1206" offset="0" stop-color="#82ccff" stop-opacity="1"/><stop id="stop1208" offset="1" stop-color="#bfe5ff" stop-opacity="1"/></linearGradient><linearGradient id="linearGradient1202"><stop id="stop1198" offset="0" stop-color="#9cf" stop-opacity="1"/><stop id="stop1200" offset="1" stop-color="#056aff" stop-opacity="1"/></linearGradient><linearGradient id="linearGradient1196"><stop id="stop1192" offset="0" stop-color="#0d11a2" stop-opacity="1"/><stop id="stop1194" offset="1" stop-color="#8cb0f6" stop-opacity="1"/></linearGradient><linearGradient id="linearGradient1190" x1="166.509" x2="165.974" y1="238.468" y2="128.086" gradientUnits="userSpaceOnUse" xlink:href="#linearGradient1196"/><linearGradient id="linearGradient1204" x1="102.632" x2="105.304" y1="67.148" y2="239.27" gradientUnits="userSpaceOnUse" xlink:href="#linearGradient1202"/><linearGradient id="linearGradient1212" x1="48.377" x2="171.568" y1="94.277" y2="94.277" gradientUnits="userSpaceOnUse" xlink:href="#linearGradient1210"/></defs><metadata id="metadata1139"/><g id="layer1" transform="translate(-38.328129,-56.009466)"><path id="path1182" fill="#fff" fill-opacity="1" fill-rule="nonzero" stroke="none" stroke-dasharray="none" stroke-dashoffset="0" stroke-linecap="butt" stroke-linejoin="miter" stroke-miterlimit="4" stroke-opacity="1" stroke-width="4" d="m 56.845703,56.023438 c -1.603684,-0.100037 -3.240028,0.339492 -4.796875,1.242187 l -8.414062,4.439453 c -1.164168,0.604196 -2.265534,1.171232 -3.205078,1.828125 -0.471562,0.329697 -0.910716,0.678271 -1.308594,1.160156 -0.153923,0.186422 -0.176209,0.546176 -0.306641,0.794922 -0.06607,0.09727 -0.158019,0.154589 -0.21875,0.259766 l 0.09766,0.05664 c -0.12876,0.323245 -0.365234,0.541899 -0.365234,0.943359 V 173.28906 c 0,5.37945 0.968932,9.4506 2.84375,12.64453 1.874818,3.19394 4.599457,5.39946 7.722656,7.22071 l 0.05273,0.0312 0.05664,0.0273 99.480475,49.97656 0.0527,0.0215 c 2.97275,1.28272 6.95703,1.49075 9.73047,0.77734 l 0.24609,-0.0625 12.375,-6.81836 0.0469,-0.0293 c 2.94221,-1.84119 5.15234,-4.81209 5.15234,-8.16601 V 125.3457 c 0,-1.64262 -0.70599,-3.02545 -1.61133,-4.45508 -0.90534,-1.42962 -2.09125,-2.86856 -3.39258,-4.23437 -2.60265,-2.73163 -5.49192,-5.12739 -8.01171,-6.17383 l 0.1582,0.0742 -101.771487,-53.068359 -0.0039,-0.002 c -1.525334,-0.788905 -3.005691,-1.362854 -4.609375,-1.46289 z" baseline-shift="baseline" clip-rule="nonzero" color="#000" color-interpolation="sRGB" color-interpolation-filters="linearRGB" color-rendering="auto" direction="ltr" display="inline" dominant-baseline="auto" enable-background="accumulate" font-family="sans-serif" font-size="medium" font-stretch="normal" font-style="normal" font-variant="normal" font-weight="normal" image-rendering="auto" letter-spacing="normal" opacity="1" overflow="visible" shape-rendering="auto" text-anchor="start" text-decoration="none" text-rendering="auto" vector-effect="none" visibility="visible" word-spacing="normal" writing-mode="lr-tb" style="line-height:normal;font-variant-ligatures:normal;font-variant-position:normal;font-variant-caps:normal;font-variant-numeric:normal;font-variant-alternates:normal;font-feature-settings:normal;text-indent:0;text-align:start;text-decoration-line:none;text-decoration-style:solid;text-decoration-color:#000;text-transform:none;text-orientation:mixed;white-space:normal;shape-padding:0;isolation:auto;mix-blend-mode:normal;solid-color:#000;solid-opacity:1"/><path id="path1180" fill="url(#linearGradient1212)" fill-opacity="1" fill-rule="nonzero" stroke="none" stroke-dasharray="none" stroke-dashoffset="0" stroke-linecap="butt" stroke-linejoin="miter" stroke-miterlimit="4" stroke-opacity="1" stroke-width="4" d="m 56.595703,60.015625 c 0.785856,0.04902 1.744205,0.36478 3.021485,1.025391 l 101.839842,53.103514 0.082,0.0332 c 1.31904,0.54779 4.3195,2.79394 6.64844,5.23829 1.16447,1.22217 2.20608,2.50342 2.91016,3.61523 0.33453,0.52827 0.31057,0.69811 0.4707,1.09961 l -12.18164,4.41602 c -0.87799,-5.37176 -4.13124,-10.91746 -9.35742,-13.95118 l -0.0508,-0.0293 -100.488286,-50.494144 -0.03125,-0.01563 c -0.327391,-0.150883 -0.724643,-0.214652 -1.082031,-0.332032 l 5.644531,-2.978515 0.03516,-0.01953 c 1.049473,-0.608508 1.753206,-0.759958 2.539062,-0.710937 z" baseline-shift="baseline" clip-rule="nonzero" color="#000" color-interpolation="sRGB" color-interpolation-filters="linearRGB" color-rendering="auto" direction="ltr" display="inline" dominant-baseline="auto" enable-background="accumulate" font-family="sans-serif" font-size="medium" font-stretch="normal" font-style="normal" font-variant="normal" font-weight="normal" image-rendering="auto" letter-spacing="normal" opacity="1" overflow="visible" shape-rendering="auto" text-anchor="start" text-decoration="none" text-rendering="auto" vector-effect="none" visibility="visible" word-spacing="normal" writing-mode="lr-tb" style="line-height:normal;font-variant-ligatures:normal;font-variant-position:normal;font-variant-caps:normal;font-variant-numeric:normal;font-variant-alternates:normal;font-feature-settings:normal;text-indent:0;text-align:start;text-decoration-line:none;text-decoration-style:solid;text-decoration-color:#000;text-transform:none;text-orientation:mixed;white-space:normal;shape-padding:0;isolation:auto;mix-blend-mode:normal;solid-color:#000;solid-opacity:1"/><path id="path1178" fill="url(#linearGradient1204)" fill-opacity="1" fill-rule="nonzero" stroke="none" stroke-dasharray="none" stroke-dashoffset="0" stroke-linecap="butt" stroke-linejoin="miter" stroke-miterlimit="4" stroke-opacity="1" stroke-width="4" d="m 44.1875,67.080078 c 1.286155,-0.05718 2.858114,0.271184 3.59375,0.609375 7.77e-4,3.57e-4 0.0031,-3.57e-4 0.0039,0 l 100.25391,50.378907 c 4.62432,2.69604 7.73047,8.79066 7.73047,13.19141 v 108.88085 c -1.80686,0.0549 -4.47985,-0.10467 -5.63672,-0.5996 L 50.890625,189.68555 c -2.783549,-1.62563 -4.840388,-3.34266 -6.269531,-5.77735 -1.43252,-2.44044 -2.292969,-5.71369 -2.292969,-10.61914 V 67.664062 c 0.22294,-0.194014 0.733826,-0.533945 1.859375,-0.583984 z" baseline-shift="baseline" clip-rule="nonzero" color="#000" color-interpolation="sRGB" color-interpolation-filters="linearRGB" color-rendering="auto" direction="ltr" display="inline" dominant-baseline="auto" enable-background="accumulate" font-family="sans-serif" font-size="medium" font-stretch="normal" font-style="normal" font-variant="normal" font-weight="normal" image-rendering="auto" letter-spacing="normal" opacity="1" overflow="visible" shape-rendering="auto" text-anchor="start" text-decoration="none" text-rendering="auto" vector-effect="none" visibility="visible" word-spacing="normal" writing-mode="lr-tb" style="line-height:normal;font-variant-ligatures:normal;font-variant-position:normal;font-variant-caps:normal;font-variant-numeric:normal;font-variant-alternates:normal;font-feature-settings:normal;text-indent:0;text-align:start;text-decoration-line:none;text-decoration-style:solid;text-decoration-color:#000;text-transform:none;text-orientation:mixed;white-space:normal;shape-padding:0;isolation:auto;mix-blend-mode:normal;solid-color:#000;solid-opacity:1"/><path id="path1159" fill="url(#linearGradient1190)" fill-opacity="1" fill-rule="nonzero" stroke="none" stroke-dasharray="none" stroke-dashoffset="0" stroke-linecap="butt" stroke-linejoin="miter" stroke-miterlimit="4" stroke-opacity="1" stroke-width="4" d="m 172.08789,128.19922 v 100.71289 c 0,1.36792 -1.30146,3.5321 -3.26367,4.76562 l -9.05469,4.99024 V 132.66211 Z" baseline-shift="baseline" clip-rule="nonzero" color="#000" color-interpolation="sRGB" color-interpolation-filters="linearRGB" color-rendering="auto" direction="ltr" display="inline" dominant-baseline="auto" enable-background="accumulate" font-family="sans-serif" font-size="medium" font-stretch="normal" font-style="normal" font-variant="normal" font-weight="normal" image-rendering="auto" letter-spacing="normal" opacity="1" overflow="visible" shape-rendering="auto" text-anchor="start" text-decoration="none" text-rendering="auto" vector-effect="none" visibility="visible" word-spacing="normal" writing-mode="lr-tb" style="line-height:normal;font-variant-ligatures:normal;font-variant-position:normal;font-variant-caps:normal;font-variant-numeric:normal;font-variant-alternates:normal;font-feature-settings:normal;text-indent:0;text-align:start;text-decoration-line:none;text-decoration-style:solid;text-decoration-color:#000;text-transform:none;text-orientation:mixed;white-space:normal;shape-padding:0;isolation:auto;mix-blend-mode:normal;solid-color:#000;solid-opacity:1"/><path id="path1174" fill="#06f" fill-opacity="1" fill-rule="nonzero" stroke="none" stroke-dasharray="none" stroke-dashoffset="0" stroke-linecap="butt" stroke-linejoin="round" stroke-miterlimit="4" stroke-opacity="1" stroke-width="4.5" d="m 61.042969,88.941406 a 2.250225,2.250225 0 0 0 -2.199219,2.25 v 85.662114 a 2.250225,2.250225 0 0 0 1.220703,2.00195 l 77.056637,39.64258 a 2.250225,2.250225 0 0 0 3.2793,-2 v -85.43946 a 2.250225,2.250225 0 0 0 -1.21484,-1.99804 L 62.126953,89.191406 a 2.250225,2.250225 0 0 0 -1.083984,-0.25 z" baseline-shift="baseline" clip-rule="nonzero" color="#000" color-interpolation="sRGB" color-interpolation-filters="linearRGB" color-rendering="auto" direction="ltr" display="inline" dominant-baseline="auto" enable-background="accumulate" font-family="sans-serif" font-size="medium" font-stretch="normal" font-style="normal" font-variant="normal" font-weight="normal" image-rendering="auto" letter-spacing="normal" opacity="1" overflow="visible" shape-rendering="auto" text-anchor="start" text-decoration="none" text-rendering="auto" vector-effect="none" visibility="visible" word-spacing="normal" writing-mode="lr-tb" style="line-height:normal;font-variant-ligatures:normal;font-variant-position:normal;font-variant-caps:normal;font-variant-numeric:normal;font-variant-alternates:normal;font-feature-settings:normal;text-indent:0;text-align:start;text-decoration-line:none;text-decoration-style:solid;text-decoration-color:#000;text-transform:none;text-orientation:mixed;white-space:normal;shape-padding:0;isolation:auto;mix-blend-mode:normal;solid-color:#000;solid-opacity:1"/><path id="path1161" fill="#fff" fill-opacity="1" fill-rule="nonzero" stroke="none" stroke-dasharray="none" stroke-dashoffset="0" stroke-linecap="butt" stroke-linejoin="round" stroke-miterlimit="4" stroke-opacity="1" stroke-width="4.5" d="m 63.34375,94.888672 72.55664,37.539058 v 80.38086 L 63.34375,175.48242 Z" baseline-shift="baseline" clip-rule="nonzero" color="#000" color-interpolation="sRGB" color-interpolation-filters="linearRGB" color-rendering="auto" direction="ltr" display="inline" dominant-baseline="auto" enable-background="accumulate" font-family="sans-serif" font-size="medium" font-stretch="normal" font-style="normal" font-variant="normal" font-weight="normal" image-rendering="auto" letter-spacing="normal" opacity="1" overflow="visible" shape-rendering="auto" text-anchor="start" text-decoration="none" text-rendering="auto" vector-effect="none" visibility="visible" word-spacing="normal" writing-mode="lr-tb" style="line-height:normal;font-variant-ligatures:normal;font-variant-position:normal;font-variant-caps:normal;font-variant-numeric:normal;font-variant-alternates:normal;font-feature-settings:normal;text-indent:0;text-align:start;text-decoration-line:none;text-decoration-style:solid;text-decoration-color:#000;text-transform:none;text-orientation:mixed;white-space:normal;shape-padding:0;isolation:auto;mix-blend-mode:normal;solid-color:#000;solid-opacity:1"/><path id="path1163" fill="#039" fill-opacity="1" stroke="none" stroke-dasharray="none" stroke-linecap="butt" stroke-linejoin="miter" stroke-miterlimit="4" stroke-opacity="1" stroke-width="4" d="m 123.03986,164.68397 c -1.99147,1.88209 -3.98295,2.26892 -5.97442,2.95757 -1.02821,-2.00943 -1.56775,-4.36985 -0.8963,-7.21628 L 155.37808,78.8622 c 1.90673,-3.192535 4.18186,-5.327206 7.08937,-3.852479 2.53702,1.615811 2.37934,6.591895 1.27428,8.616082 z" opacity="1"/></g></svg>