<svg xmlns="http://www.w3.org/2000/svg" xmlns:svg="http://www.w3.org/2000/svg" xmlns:xlink="http://www.w3.org/1999/xlink" id="svg3756" width="795.878" height="164.934" version="1.1" viewBox="0 0 210.576 43.639"><defs id="defs3750"><linearGradient id="linearGradient3820"><stop id="stop3816" offset="0" stop-color="#1574ff" stop-opacity="1"/><stop id="stop3822" offset=".5" stop-color="#bee4ff" stop-opacity="1"/><stop id="stop3818" offset="1" stop-color="#1473ff" stop-opacity="1"/></linearGradient><linearGradient id="linearGradient3787-4-5"><stop id="stop3783" offset="0" stop-color="#b9dcfb" stop-opacity="1"/><stop id="stop3785" offset="1" stop-color="#090a9e" stop-opacity="1"/></linearGradient><linearGradient id="linearGradient3789" x1="11.921" x2="12.189" y1="163.389" y2="127.805" gradientUnits="userSpaceOnUse" xlink:href="#linearGradient3787-4-5"/><linearGradient id="linearGradient3814" x1="116.953" x2="117.168" y1="162.822" y2="128.048" gradientUnits="userSpaceOnUse" xlink:href="#linearGradient3820"/></defs><metadata id="metadata3753"/><g id="layer1" transform="translate(4.3632812,-123.80469)"><path id="path3781" fill="#fff" fill-opacity="1" fill-rule="nonzero" stroke="none" stroke-dasharray="none" stroke-dashoffset="0" stroke-linecap="butt" stroke-linejoin="miter" stroke-miterlimit="4" stroke-opacity="1" stroke-width="4" d="m 12.189453,123.80469 c -4.7538372,0 -8.9794028,2.64008 -11.9003905,6.60351 -2.9209877,3.96344 -4.6523437,9.28954 -4.6523437,15.11719 0,5.82765 1.7291944,11.19482 4.6445312,15.20508 2.9153368,4.01026 7.1380321,6.7129 11.908203,6.71289 0.08949,0 0.170663,-0.0352 0.259766,-0.0371 v 0.0371 H 190.65234 c 3.55064,0 7.10878,-2.51736 10.15235,-6.40039 3.04357,-3.88303 5.4082,-9.35187 5.4082,-15.79102 0,-5.33738 -1.81655,-10.56535 -4.79883,-14.57226 -2.98228,-4.00692 -7.25325,-6.875 -12.12304,-6.875 H 12.332031 v 0.0195 c -0.04893,-5.6e-4 -0.09354,-0.0195 -0.142578,-0.0195 z" baseline-shift="baseline" clip-rule="nonzero" color="#000" color-interpolation="sRGB" color-interpolation-filters="linearRGB" color-rendering="auto" direction="ltr" display="inline" dominant-baseline="auto" enable-background="accumulate" font-family="sans-serif" font-size="medium" font-stretch="normal" font-style="normal" font-variant="normal" font-weight="normal" image-rendering="auto" letter-spacing="normal" opacity="1" overflow="visible" shape-rendering="auto" text-anchor="start" text-decoration="none" text-rendering="auto" vector-effect="none" visibility="visible" word-spacing="normal" writing-mode="lr-tb" style="line-height:normal;font-variant-ligatures:normal;font-variant-position:normal;font-variant-caps:normal;font-variant-numeric:normal;font-variant-alternates:normal;font-feature-settings:normal;text-indent:0;text-align:start;text-decoration-line:none;text-decoration-style:solid;text-decoration-color:#000;text-transform:none;text-orientation:mixed;white-space:normal;shape-padding:0;isolation:auto;mix-blend-mode:normal;solid-color:#000;solid-opacity:1"/><path id="path3779" fill="url(#linearGradient3789)" fill-opacity="1" fill-rule="nonzero" stroke="none" stroke-dasharray="none" stroke-dashoffset="0" stroke-linecap="butt" stroke-linejoin="miter" stroke-miterlimit="4" stroke-opacity="1" stroke-width="4" d="m 12.189453,127.80469 c 3.283057,0 6.333857,1.79355 8.679688,4.97656 2.345831,3.18301 3.873047,7.71676 3.873047,12.74414 0,5.02738 -1.529378,9.61888 -3.88086,12.85352 -2.351482,3.23463 -5.40515,5.06445 -8.671875,5.06445 -3.2667231,0 -6.320393,-1.82982 -8.6718749,-5.06445 -2.3514819,-3.23464 -3.88085935,-7.82614 -3.88085935,-12.85352 0,-5.02738 1.52721585,-9.56113 3.87304685,-12.74414 2.345831,-3.18301 5.3966306,-4.97656 8.6796874,-4.97656 z" baseline-shift="baseline" clip-rule="nonzero" color="#000" color-interpolation="sRGB" color-interpolation-filters="linearRGB" color-rendering="auto" direction="ltr" display="inline" dominant-baseline="auto" enable-background="accumulate" font-family="sans-serif" font-size="medium" font-stretch="normal" font-style="normal" font-variant="normal" font-weight="normal" image-rendering="auto" letter-spacing="normal" opacity="1" overflow="visible" shape-rendering="auto" text-anchor="start" text-decoration="none" text-rendering="auto" vector-effect="none" visibility="visible" word-spacing="normal" writing-mode="lr-tb" style="line-height:normal;font-variant-ligatures:normal;font-variant-position:normal;font-variant-caps:normal;font-variant-numeric:normal;font-variant-alternates:normal;font-feature-settings:normal;text-indent:0;text-align:start;text-decoration-line:none;text-decoration-style:solid;text-decoration-color:#000;text-transform:none;text-orientation:mixed;white-space:normal;shape-padding:0;isolation:auto;mix-blend-mode:normal;solid-color:#000;solid-opacity:1"/><path id="path3771" fill="url(#linearGradient3814)" fill-opacity="1" fill-rule="nonzero" stroke="none" stroke-dasharray="none" stroke-dashoffset="0" stroke-linecap="butt" stroke-linejoin="miter" stroke-miterlimit="4" stroke-opacity="1" stroke-width="4" d="M 21.755859,127.80469 H 189.29102 c 3.28405,0 6.47353,1.98269 8.91406,5.26172 2.44052,3.27903 4.00781,7.77388 4.00781,12.18554 0,5.45647 -2.01809,10.08355 -4.55664,13.32227 -2.53855,3.23872 -5.76047,4.86914 -7.00391,4.86914 H 21.703125 c 0.869526,-0.81074 1.673423,-1.72095 2.394531,-2.71289 2.915337,-4.01026 4.644531,-9.37743 4.644532,-15.20508 0,-5.82765 -1.731357,-11.15375 -4.652344,-15.11719 -0.703267,-0.95425 -1.490352,-1.8211 -2.333985,-2.60351 z" baseline-shift="baseline" clip-rule="nonzero" color="#000" color-interpolation="sRGB" color-interpolation-filters="linearRGB" color-rendering="auto" direction="ltr" display="inline" dominant-baseline="auto" enable-background="accumulate" font-family="sans-serif" font-size="medium" font-stretch="normal" font-style="normal" font-variant="normal" font-weight="normal" image-rendering="auto" letter-spacing="normal" opacity="1" overflow="visible" shape-rendering="auto" text-anchor="start" text-decoration="none" text-rendering="auto" vector-effect="none" visibility="visible" word-spacing="normal" writing-mode="lr-tb" style="line-height:normal;font-variant-ligatures:normal;font-variant-position:normal;font-variant-caps:normal;font-variant-numeric:normal;font-variant-alternates:normal;font-feature-settings:normal;text-indent:0;text-align:start;text-decoration-line:none;text-decoration-style:solid;text-decoration-color:#000;text-transform:none;text-orientation:mixed;white-space:normal;shape-padding:0;isolation:auto;mix-blend-mode:normal;solid-color:#000;solid-opacity:1"/></g></svg>