<svg xmlns="http://www.w3.org/2000/svg" xmlns:svg="http://www.w3.org/2000/svg" xmlns:xlink="http://www.w3.org/1999/xlink" id="svg8" width="332.324" height="408.094" version="1.1" viewBox="0 0 87.928 107.975"><defs id="defs2"><linearGradient id="linearGradient1111"><stop id="stop1107" offset="0" stop-color="#8b7312" stop-opacity="1"/><stop id="stop1115" offset=".641" stop-color="#fdcc38" stop-opacity="1"/><stop id="stop1109" offset="1" stop-color="#e7b623" stop-opacity="1"/></linearGradient><linearGradient id="linearGradient1101"><stop id="stop1097" offset="0" stop-color="#2c6ffa" stop-opacity="1"/><stop id="stop1105" offset=".28" stop-color="#9eb9fd" stop-opacity="1"/><stop id="stop1099" offset="1" stop-color="#033ac8" stop-opacity="1"/></linearGradient><linearGradient id="linearGradient1091"><stop id="stop1087" offset="0" stop-color="#4a610e" stop-opacity="1"/><stop id="stop1095" offset=".579" stop-color="#a3d944" stop-opacity="1"/><stop id="stop1089" offset="1" stop-color="#6ca01f" stop-opacity="1"/></linearGradient><linearGradient id="linearGradient1076"><stop id="stop1072" offset="0" stop-color="#f2580a" stop-opacity="1"/><stop id="stop1085" offset=".413" stop-color="#fea15f" stop-opacity="1"/><stop id="stop1074" offset="1" stop-color="#a11a00" stop-opacity="1"/></linearGradient><linearGradient id="linearGradient922"><stop id="stop918" offset="0" stop-color="#a8defe" stop-opacity="1"/><stop id="stop920" offset="1" stop-color="#12a7fc" stop-opacity="1"/></linearGradient><linearGradient id="linearGradient914"><stop id="stop910" offset="0" stop-color="#05239a" stop-opacity="1"/><stop id="stop912" offset="1" stop-color="#91bcf8" stop-opacity="1"/></linearGradient><linearGradient id="linearGradient904"><stop id="stop900" offset="0" stop-color="#0677fc" stop-opacity="1"/><stop id="stop902" offset="1" stop-color="#8fcafe" stop-opacity="1"/></linearGradient><linearGradient id="linearGradient908" x1="83.839" x2="83.47" y1="200.393" y2="127.295" gradientUnits="userSpaceOnUse" xlink:href="#linearGradient904"/><linearGradient id="linearGradient916" x1="111.266" x2="111.48" y1="206.304" y2="118.372" gradientUnits="userSpaceOnUse" xlink:href="#linearGradient914"/><linearGradient id="linearGradient924" x1="103.082" x2="103.194" y1="136.89" y2="107.624" gradientUnits="userSpaceOnUse" xlink:href="#linearGradient922"/><linearGradient id="linearGradient1078" x1="113.405" x2="135.612" y1="171.63" y2="178.292" gradientUnits="userSpaceOnUse" xlink:href="#linearGradient1076"/><linearGradient id="linearGradient1093" x1="137.748" x2="157.735" y1="177.938" y2="182.473" gradientUnits="userSpaceOnUse" xlink:href="#linearGradient1091"/><linearGradient id="linearGradient1103" x1="111.007" x2="129.528" y1="194.663" y2="198.915" gradientTransform="translate(0,-0.52916667)" gradientUnits="userSpaceOnUse" xlink:href="#linearGradient1101"/><linearGradient id="linearGradient1113" x1="131.48" x2="151.122" y1="200.508" y2="204.651" gradientUnits="userSpaceOnUse" xlink:href="#linearGradient1111"/></defs><metadata id="metadata5"/><g id="layer1" transform="translate(-72.583331,-105.73763)"><path id="path833" fill="url(#linearGradient916)" fill-opacity="1" stroke="none" stroke-dasharray="none" stroke-linecap="butt" stroke-linejoin="miter" stroke-miterlimit="4" stroke-opacity="1" stroke-width="0" d="M 129.52031,187.46797 92.556918,207.13616 V 137.21057 L 129.52031,117.27232 Z" opacity="1"/><path id="path835" fill="url(#linearGradient908)" fill-opacity="1" stroke="none" stroke-dasharray="none" stroke-linecap="butt" stroke-linejoin="miter" stroke-miterlimit="4" stroke-opacity="1" stroke-width="0" d="M 92.556918,207.13616 74.083331,196.9308 v -69.8311 l 18.473587,10.11087" opacity="1"/><path id="path837" fill="url(#linearGradient924)" fill-opacity="1" stroke="none" stroke-dasharray="none" stroke-linecap="butt" stroke-linejoin="miter" stroke-miterlimit="4" stroke-opacity="1" stroke-width="0" d="M 129.52031,117.27232 92.556918,137.21057 74.083331,127.0997 110.93126,107.43625 Z" opacity="1"/><path id="path839" fill="#fff" fill-opacity="1" fill-rule="nonzero" stroke="none" stroke-dasharray="none" stroke-dashoffset="0" stroke-linecap="butt" stroke-linejoin="miter" stroke-miterlimit="4" stroke-opacity="1" stroke-width="1.5" d="m 79.355465,150.82884 v 1.32227 l 6.631269,3.63829 v -1.32227 z" baseline-shift="baseline" clip-rule="nonzero" color="#000" color-interpolation="sRGB" color-interpolation-filters="linearRGB" color-rendering="auto" direction="ltr" display="inline" dominant-baseline="auto" enable-background="accumulate" font-family="sans-serif" font-size="medium" font-stretch="normal" font-style="normal" font-variant="normal" font-weight="normal" image-rendering="auto" letter-spacing="normal" opacity="1" overflow="visible" shape-rendering="auto" text-anchor="start" text-decoration="none" text-rendering="auto" vector-effect="none" visibility="visible" word-spacing="normal" writing-mode="lr-tb" style="line-height:normal;font-variant-ligatures:normal;font-variant-position:normal;font-variant-caps:normal;font-variant-numeric:normal;font-variant-alternates:normal;font-feature-settings:normal;text-indent:0;text-align:start;text-decoration-line:none;text-decoration-style:solid;text-decoration-color:#000;text-transform:none;text-orientation:mixed;white-space:normal;shape-padding:0;isolation:auto;mix-blend-mode:normal;solid-color:#000;solid-opacity:1"/><path id="path839-0" fill="#fff" fill-opacity="1" fill-rule="nonzero" stroke="none" stroke-dasharray="none" stroke-dashoffset="0" stroke-linecap="butt" stroke-linejoin="miter" stroke-miterlimit="4" stroke-opacity="1" stroke-width="1.5" d="m 79.355465,157.50336 v 1.32227 l 6.631269,3.63829 v -1.32227 z" baseline-shift="baseline" clip-rule="nonzero" color="#000" color-interpolation="sRGB" color-interpolation-filters="linearRGB" color-rendering="auto" direction="ltr" display="inline" dominant-baseline="auto" enable-background="accumulate" font-family="sans-serif" font-size="medium" font-stretch="normal" font-style="normal" font-variant="normal" font-weight="normal" image-rendering="auto" letter-spacing="normal" opacity="1" overflow="visible" shape-rendering="auto" text-anchor="start" text-decoration="none" text-rendering="auto" vector-effect="none" visibility="visible" word-spacing="normal" writing-mode="lr-tb" style="line-height:normal;font-variant-ligatures:normal;font-variant-position:normal;font-variant-caps:normal;font-variant-numeric:normal;font-variant-alternates:normal;font-feature-settings:normal;text-indent:0;text-align:start;text-decoration-line:none;text-decoration-style:solid;text-decoration-color:#000;text-transform:none;text-orientation:mixed;white-space:normal;shape-padding:0;isolation:auto;mix-blend-mode:normal;solid-color:#000;solid-opacity:1"/><path id="path830" fill="none" stroke="#fff" stroke-dasharray="none" stroke-linecap="butt" stroke-linejoin="miter" stroke-miterlimit="4" stroke-opacity="1" stroke-width="3" d="m 92.556918,137.21057 36.963392,-19.93825 z m 0,69.92559 V 137.21057 L 74.083331,127.0997 M 92.556918,207.13616 74.083331,196.9308 v -69.8311 l 36.847929,-19.66345 18.58905,9.83607 v 70.19565 z" opacity="1"/><g id="g1189" transform="translate(81.146898,-42.713993)"><path id="path1034-2" fill="#000" fill-opacity="1" stroke="none" stroke-dasharray="none" stroke-linecap="butt" stroke-linejoin="miter" stroke-miterlimit="4" stroke-opacity="1" stroke-width="1" d="m 33.261905,229.47225 4.96093,-17.43415 c 3.61485,-1.53197 6.89537,-2.22061 11.05581,-2.22061 2.78291,0 6.59069,1.79451 8.32932,3.34643 l -5.0082,17.7544 c -3.05146,-2.06265 -6.22687,-3.68526 -9.13349,-3.68526 -4.32967,0 -6.40329,0.9223 -10.20437,2.23919 z" opacity=".1"/><path id="path1034-9-9" fill="#000" fill-opacity="1" stroke="none" stroke-dasharray="none" stroke-linecap="butt" stroke-linejoin="miter" stroke-miterlimit="4" stroke-opacity="1" stroke-width="1" d="m 27.60333,249.33032 4.960925,-17.43415 c 3.61485,-1.53197 6.89537,-2.22061 11.05581,-2.22061 2.78291,0 6.59068,1.79451 8.32931,3.34643 l -5.00819,17.7544 c -3.05146,-2.06265 -6.22687,-3.68526 -9.13349,-3.68526 -4.32967,0 -6.403285,0.9223 -10.204365,2.23919 z" opacity=".1"/><path id="path1034-4-9" fill="#000" fill-opacity="1" stroke="none" stroke-dasharray="none" stroke-linecap="butt" stroke-linejoin="miter" stroke-miterlimit="4" stroke-opacity="1" stroke-width="1" d="m 79.363935,216.45557 -4.96094,17.43415 c -3.61484,1.53197 -6.89537,2.22061 -11.0558,2.22061 -2.78292,0 -6.59068,-1.79451 -8.32931,-3.34643 l 5.00818,-17.7544 c 3.05147,2.06265 6.22688,3.68526 9.1335,3.68526 4.32967,0 6.40329,-0.9223 10.20437,-2.23919 z" opacity=".1"/><path id="path1034-4-8-4" fill="#000" fill-opacity="1" stroke="none" stroke-dasharray="none" stroke-linecap="butt" stroke-linejoin="miter" stroke-miterlimit="4" stroke-opacity="1" stroke-width="1" d="m 73.599805,236.77178 -4.96093,17.43415 c -3.61486,1.53197 -6.89538,2.22061 -11.05581,2.22061 -2.78292,0 -6.59069,-1.79451 -8.32932,-3.34643 l 5.00819,-17.7544 c 3.05146,2.06265 6.22688,3.68526 9.13349,3.68526 4.32968,0 6.40329,-0.92229 10.20438,-2.23919 z" opacity=".1"/></g><path id="path1034" fill="url(#linearGradient1078)" fill-opacity="1" stroke="none" stroke-dasharray="none" stroke-linecap="butt" stroke-linejoin="miter" stroke-miterlimit="4" stroke-opacity="1" stroke-width="1" d="m 113.58185,185.59151 4.96093,-17.43415 c 3.61485,-1.53197 6.89537,-2.22061 11.05581,-2.22061 2.78291,0 6.59068,1.79451 8.32931,3.34643 l -5.00819,17.7544 c -3.05146,-2.06265 -6.22687,-3.68526 -9.13349,-3.68526 -4.32967,0 -6.40329,0.9223 -10.20437,2.23919 z" opacity="1"/><path id="path1034-9" fill="url(#linearGradient1103)" fill-opacity="1" stroke="none" stroke-dasharray="none" stroke-linecap="butt" stroke-linejoin="miter" stroke-miterlimit="4" stroke-opacity="1" stroke-width="1" d="m 107.92327,205.44958 4.96093,-17.43415 c 3.61485,-1.53197 6.89537,-2.22061 11.05581,-2.22061 2.78291,0 6.59068,1.79451 8.32931,3.34643 l -5.00819,17.7544 c -3.05146,-2.06265 -6.22687,-3.68526 -9.13349,-3.68526 -4.32967,0 -6.40329,0.9223 -10.20437,2.23919 z" opacity="1"/><path id="path1034-4" fill="url(#linearGradient1093)" fill-opacity="1" stroke="none" stroke-dasharray="none" stroke-linecap="butt" stroke-linejoin="miter" stroke-miterlimit="4" stroke-opacity="1" stroke-width="1" d="m 159.68387,172.57483 -4.96093,17.43415 c -3.61485,1.53197 -6.89537,2.22061 -11.05581,2.22061 -2.78291,0 -6.59068,-1.79451 -8.32931,-3.34643 l 5.00819,-17.7544 c 3.05146,2.06265 6.22687,3.68526 9.13349,3.68526 4.32967,0 6.40329,-0.9223 10.20437,-2.23919 z" opacity="1"/><path id="path1034-4-8" fill="url(#linearGradient1113)" fill-opacity="1" stroke="none" stroke-dasharray="none" stroke-linecap="butt" stroke-linejoin="miter" stroke-miterlimit="4" stroke-opacity="1" stroke-width="1" d="m 153.91974,192.89104 -4.96093,17.43415 c -3.61485,1.53197 -6.89537,2.22061 -11.05581,2.22061 -2.78291,0 -6.59068,-1.79451 -8.32931,-3.34643 l 5.00819,-17.7544 c 3.05146,2.06265 6.22687,3.68526 9.13349,3.68526 4.32967,0 6.40329,-0.9223 10.20437,-2.23919 z" opacity="1"/><path id="path1202" fill="#ef790f" fill-opacity="1" stroke="#fff" stroke-dasharray="none" stroke-linecap="butt" stroke-linejoin="miter" stroke-miterlimit="4" stroke-opacity="1" stroke-width="2.5" d="m 110.17028,155.07366 v -16.72343 l 8.20309,4.38012 6.66993,-5.45297 -7.94225,-5.60184 -6.93077,4.34001 V 118.7446 h 24.45901 l -7.85169,6.27723 7.21496,5.84143 7.72084,-5.85388 -9.51442,-6.26478 h 26.22127 v 16.39955 l -7.46364,-4.52524 -8.04248,6.54778 7.97091,5.60183 7.53521,-5.54845 v 17.85359 h -24.75842 l 8.07924,-5.86234 -7.41778,-5.33891 -6.70908,5.31528 8.7407,5.88597 z" opacity="1"/></g></svg>