<svg xmlns="http://www.w3.org/2000/svg" xmlns:svg="http://www.w3.org/2000/svg" id="Layer_1" width="50" height="42.634" x="0" y="0" enable-background="new 0 0 50 50" version="1.1" viewBox="0 0 50 42.634" xml:space="preserve"><metadata id="metadata4169"/><path id="path4152" fill="#3e3e3e" d="m 0,40.627 c 0,1.108 0.898,2.007 2.007,2.007 H 47.993 C 49.102,42.634 50,41.735 50,40.627 V 8.633 H 0 Z"/><path id="path4154" fill="#a0a1a2" d="M 47.993,0 H 2.007 C 0.898,0 0,0.898 0,2.006 V 9.297 H 50 V 2.006 C 50,0.898 49.101,0 47.993,0 Z"/><rect id="rect4156" width="50" height="3.336" x="0" y="9.297" fill="#fff" opacity=".15"/><path id="path4158" fill="#fff" d="M 2.014,0 C 0.906,0 0.007,0.898 0.007,2.007 v 7.291 3.336 27.993 c 0,1.108 0.899,2.007 2.007,2.007 H 21.202 L 43.62,0 Z" opacity=".1"/><polygon id="polygon4160" fill="#fff" points="16.343 31.535 16.343 31.481 7.363 26.46 7.363 25.215 18.397 31.403 18.397 31.641 7.363 37.231 7.363 35.96" transform="translate(0,-3.898)"/><rect id="rect4162" width="11.262" height="1.576" x="17.621" y="37.785" fill="#fff"/></svg>