<svg xmlns="http://www.w3.org/2000/svg" xmlns:svg="http://www.w3.org/2000/svg" id="Layer_1" width="50" height="42.634" x="0" y="0" enable-background="new 0 0 50 50" version="1.1" viewBox="0 0 50 42.634" xml:space="preserve"><metadata id="metadata1632"/><path id="path1611" fill="#59b4d9" d="m 0,40.627 c 0,1.108 0.898,2.007 2.007,2.007 H 47.993 C 49.102,42.634 50,41.735 50,40.627 V 9.298 H 0 Z"/><path id="path1613" fill="#a0a1a2" d="M 47.993,0 H 2.007 C 0.898,0 0,0.898 0,2.007 V 12.634 H 50 V 2.007 C 50,0.898 49.101,0 47.993,0"/><polygon id="polygon1615" fill="#fff" points="14.424 39.232 21.848 21.397 26.556 21.397 19.1 39.232" transform="translate(0,-4)"/><polygon id="polygon1617" fill="#fff" points="23.991 39.232 31.415 21.397 36.123 21.397 28.667 39.232" transform="translate(0,-4)"/><path id="path1619" fill="#fff" d="M 2.014,0 C 0.906,0 0.007,0.898 0.007,2.007 v 7.291 3.336 27.993 c 0,1.108 0.899,2.007 2.007,2.007 H 4.202 L 43.62,0 Z" opacity=".2"/><rect id="rect1621" width="33.671" height="3.942" x="12.857" y="4.779" fill="#fff"/><path id="path1623" fill="#59b4d9" d="m 11.31,6.683 c 0,2.693 -2.184,4.878 -4.878,4.878 -2.694,0 -4.878,-2.185 -4.878,-4.878 0,-2.694 2.184,-4.879 4.878,-4.879 2.693,0 4.878,2.185 4.878,4.879"/><polygon id="polygon1625" fill="#fff" points="6.928 13.568 3.969 10.75 6.917 7.932 8.115 7.932 5.916 10.254 11.309 10.254 11.309 11.232 5.916 11.232 8.129 13.568" transform="translate(0,-4)"/></svg>