<svg xmlns="http://www.w3.org/2000/svg" xmlns:svg="http://www.w3.org/2000/svg" id="Layer_1" width="40.228" height="50.038" x="0" y="0" enable-background="new 0 0 50 50" version="1.1" viewBox="0 0 40.228 50.038" xml:space="preserve"><metadata id="metadata6737"/><rect id="rect6710" width="20.1" height="4.5" x="6.6" y="39.138" fill="#7a7a7a"/><polygon id="polygon6712" fill="#7a7a7a" points="9 45.9 9 28.3 4.9 28.3 4.9 50 4.9 50 8.9 50 34.8 50 38.1 50 38.7 50 38.7 28.3 34.7 28.3 34.7 45.9" transform="translate(-4.9,0.03843925)"/><rect id="rect6714" width="20.099" height="4.5" x="9.511" y="31.604" fill="#7a7a7a" stroke-width="1" transform="rotate(4.1724194)"/><rect id="rect6716" width="20.099" height="4.5" x="9.511" y="31.604" fill="#ff8c00" stroke-width="1" opacity=".1" transform="rotate(4.1724194)"/><rect id="rect6718" width="20.101" height="4.5" x="14.778" y="20.197" fill="#7a7a7a" stroke-width="1" transform="rotate(14.654619)"/><rect id="rect6720" width="20.101" height="4.5" x="14.778" y="20.197" fill="#ff8c00" stroke-width="1" opacity=".35" transform="rotate(14.654619)"/><rect id="rect6722" width="20.1" height="4.5" x="18.695" y="4.556" fill="#7a7a7a" stroke-width="1" transform="rotate(30.40367)"/><rect id="rect6724" width="20.1" height="4.5" x="18.695" y="4.556" fill="#ff8c00" stroke-width="1" opacity=".75" transform="rotate(30.40367)"/><rect id="rect6726" width="20.099" height="4.5" x="16.934" y="-17.58" fill="#ff8c00" stroke-width="1" transform="rotate(55.825235)"/><rect id="rect6728" width="20.101" height="4.5" x="5.996" y="-36.479" fill="#ff8c00" stroke-width="1" transform="rotate(80.665776)"/><rect id="rect6730" width="20.101" height="4.5" x="5.996" y="-36.479" fill="#dd5900" stroke-width="1" opacity=".4" transform="rotate(80.665776)"/></svg>