<svg xmlns="http://www.w3.org/2000/svg" xmlns:svg="http://www.w3.org/2000/svg" id="Layer_1" width="50" height="42.6" x="0" y="0" enable-background="new 0 0 50 50" version="1.1" viewBox="0 0 50 42.6" xml:space="preserve"><metadata id="metadata7007"/><path id="path6992" fill="#a0a1a2" d="m 0,40.7 c 0,1 0.8,1.9 1.8,1.9 h 46.3 c 1,0 1.9,-0.8 1.9,-1.9 V 7.6 H 0 Z"/><path id="path6994" fill="#7a7a7a" d="M 48.1,0 H 1.8 C 0.8,0 0,0.8 0,1.9 V 7.6 H 50 V 1.9 C 50,0.8 49.2,0 48.1,0"/><path id="path6996" fill="#fff" d="M 38,17.2 V 14.8 H 22.8 L 19.2,11.2 H 9.7 v 26.3 c 0,0.8 0.6,1.4 1.4,1.4 v 0 h 27.2 c 0.8,0 1.4,-0.6 1.4,-1.4 V 17.2 Z" opacity=".8"/><path id="path6998" fill="#0072c6" d="m 12.5,17.2 v 20.3 c 0,0.8 -0.6,1.4 -1.4,1.4 -0.8,0 -1.4,-0.6 -1.4,-1.4 V 11.2 h 9.6 l 3.6,3.6 H 38 v 2.4 z"/><path id="path7000" fill="#fff" d="M 2,0 C 0.9,0 0,0.9 0,2 v 7.3 3.3 28 c 0,1.1 0.9,2 2,2 H 4.2 L 43.6,0 Z" opacity=".2"/></svg>