<svg xmlns="http://www.w3.org/2000/svg" xmlns:svg="http://www.w3.org/2000/svg" id="svg1070" width="1369.437" height="487.453" version="1.1" viewBox="0 0 362.33 128.972"><metadata id="metadata1067"/><g id="layer1" transform="translate(71.724447,-84.910605)"><path id="path1083" fill="#fff" fill-opacity="1" stroke="#cbd4e0" stroke-dasharray="none" stroke-linecap="butt" stroke-linejoin="miter" stroke-miterlimit="4" stroke-opacity="1" stroke-width="8" d="m -27.393776,169.46742 c -7.345095,2.79475 -13.304715,2.37517 -20.502427,0.55156 -11.502812,-3.74962 -19.130773,-11.28725 -19.826385,-20.22925 0.129173,-10.79902 10.606765,-18.34427 21.20859,-21.6095 6.895075,-1.81173 12.556572,-0.77033 19.276785,1.09005 5.039801,-16.52852 20.7477989,-26.96136 42.734237,-29.883053 14.993191,-1.133914 29.305856,3.916923 39.466087,12.805333 11.841747,-13.14097 28.167017,-26.060408 64.299839,-22.789275 18.773,0.869987 34.61564,10.495513 44.74154,22.950585 11.88653,-9.60549 28.74222,-16.973808 52.48137,-10.48409 15.35011,6.22819 24.42689,11.22422 30.0491,27.21428 17.64764,-6.03365 39.43849,5.16411 40.0655,18.80432 0.4354,18.50395 -25.12087,27.37155 -39.971,21.54464 -6.74034,18.08673 -19.06957,25.049 -39.40402,29.67113 -14.16079,2.00078 -30.75403,-1.94248 -43.37277,-12.5677 -13.15748,15.86652 -31.68058,24.55224 -59.17619,23.21589 C 81.411282,208.8169 67.545336,200.55796 55.230381,186.65386 42.389303,196.7878 29.031461,201.03467 10.894492,198.70128 -3.8638177,196.3493 -21.215981,188.57593 -27.393776,169.46742 Z" opacity="1"/></g></svg>