<svg xmlns="http://www.w3.org/2000/svg" viewBox="0 0 48 10"><defs><style>.cls-1{fill:#fff}.cls-2{fill:#8c9aa6}.cls-3{fill:#83389b}.cls-4{fill:none;stroke:#8c9aa6;stroke-linejoin:round}</style></defs><title>cumulus-networks-netq-server</title><g id="Layer_2" data-name="Layer 2"><g id="Text"><rect width="47" height="9" x=".5" y=".5" class="cls-1" rx="1.5" ry="1.5"/><path d="M46,1a1,1,0,0,1,1,1V8a1,1,0,0,1-1,1H2A1,1,0,0,1,1,8V2A1,1,0,0,1,2,1H46m0-1H2A2,2,0,0,0,0,2V8a2,2,0,0,0,2,2H46a2,2,0,0,0,2-2V2a2,2,0,0,0-2-2Z" class="cls-2"/><rect width="10" height="2" x="32" y="4" class="cls-2"/><circle cx="8.5" cy="4.5" r="1.5" class="cls-3"/><circle cx="8.5" cy="4.5" r="4" class="cls-4"/></g></g></svg>