<svg xmlns="http://www.w3.org/2000/svg" xmlns:xlink="http://www.w3.org/1999/xlink" viewBox="0 0 48 57"><defs><style>.cls-1{fill:#fff}.cls-2{fill:#8c9aa6}.cls-3{fill:url(#linear-gradient)}</style><linearGradient id="linear-gradient" x1="32.23" x2="15.77" y1="20.26" y2="-8.26" gradientUnits="userSpaceOnUse"><stop offset="0" stop-color="#7ccc6c"/><stop offset=".21" stop-color="#1eb7bd"/><stop offset=".43" stop-color="#83389b"/><stop offset=".64" stop-color="#f1446f"/><stop offset=".83" stop-color="#ffa12d"/><stop offset="1" stop-color="#ffc82e"/></linearGradient></defs><title>cumulus-networks-rack-voyager</title><g id="Layer_2" data-name="Layer 2"><g id="Text"><rect width="47" height="9" x=".5" y="11.5" class="cls-1" rx="1.5" ry="1.5"/><path d="M46,12a1,1,0,0,1,1,1v6a1,1,0,0,1-1,1H2a1,1,0,0,1-1-1V13a1,1,0,0,1,1-1H46m0-1H2a2,2,0,0,0-2,2v6a2,2,0,0,0,2,2H46a2,2,0,0,0,2-2V13a2,2,0,0,0-2-2Z" class="cls-2"/><rect width="10" height="2" x="32" y="15" class="cls-2"/><rect width="47" height="9" x=".5" y="20.5" class="cls-1" rx="1.5" ry="1.5"/><path d="M46,21a1,1,0,0,1,1,1v6a1,1,0,0,1-1,1H2a1,1,0,0,1-1-1V22a1,1,0,0,1,1-1H46m0-1H2a2,2,0,0,0-2,2v6a2,2,0,0,0,2,2H46a2,2,0,0,0,2-2V22a2,2,0,0,0-2-2Z" class="cls-2"/><rect width="10" height="2" x="32" y="24" class="cls-2"/><rect width="47" height="9" x=".5" y="29.5" class="cls-1" rx="1.5" ry="1.5"/><path d="M46,30a1,1,0,0,1,1,1v6a1,1,0,0,1-1,1H2a1,1,0,0,1-1-1V31a1,1,0,0,1,1-1H46m0-1H2a2,2,0,0,0-2,2v6a2,2,0,0,0,2,2H46a2,2,0,0,0,2-2V31a2,2,0,0,0-2-2Z" class="cls-2"/><rect width="10" height="2" x="32" y="33" class="cls-2"/><rect width="47" height="9" x=".5" y="38.5" class="cls-1" rx="1.5" ry="1.5"/><path d="M46,39a1,1,0,0,1,1,1v6a1,1,0,0,1-1,1H2a1,1,0,0,1-1-1V40a1,1,0,0,1,1-1H46m0-1H2a2,2,0,0,0-2,2v6a2,2,0,0,0,2,2H46a2,2,0,0,0,2-2V40a2,2,0,0,0-2-2Z" class="cls-2"/><rect width="10" height="2" x="32" y="42" class="cls-2"/><rect width="47" height="9" x=".5" y="47.5" class="cls-1" rx="1.5" ry="1.5"/><path d="M46,48a1,1,0,0,1,1,1v6a1,1,0,0,1-1,1H2a1,1,0,0,1-1-1V49a1,1,0,0,1,1-1H46m0-1H2a2,2,0,0,0-2,2v6a2,2,0,0,0,2,2H46a2,2,0,0,0,2-2V49a2,2,0,0,0-2-2Z" class="cls-2"/><rect width="10" height="2" x="32" y="51" class="cls-2"/><rect width="48" height="12" class="cls-1" rx="2" ry="2"/><path d="M45,3V9H3V3H45m1-3H2A2,2,0,0,0,0,2v8a2,2,0,0,0,2,2H46a2,2,0,0,0,2-2V2a2,2,0,0,0-2-2Z" class="cls-3"/><path d="M46,1a1,1,0,0,1,1,1v8a1,1,0,0,1-1,1H2a1,1,0,0,1-1-1V2A1,1,0,0,1,2,1H46m0-1H2A2,2,0,0,0,0,2v8a2,2,0,0,0,2,2H46a2,2,0,0,0,2-2V2a2,2,0,0,0-2-2Z" class="cls-2"/><rect width="2" height="2" x="40" y="5" class="cls-2"/><rect width="2" height="2" x="35" y="5" class="cls-2"/><rect width="2" height="2" x="30" y="5" class="cls-2"/></g></g></svg>