<svg xmlns="http://www.w3.org/2000/svg" xmlns:svg="http://www.w3.org/2000/svg" id="svg931" version="1.1" viewBox="0 0 48 57"><metadata id="metadata935"/><defs id="defs883"><style id="style876">.cls-1{fill:#fff}.cls-2{fill:#8c9aa6}.cls-3{fill:url(#New_Gradient_Swatch_6)}</style><linearGradient id="New_Gradient_Swatch_6" x1="32.23" x2="15.77" y1="20.26" y2="-8.26" gradientUnits="userSpaceOnUse"><stop id="stop878" offset="0" stop-color="#00ad69"/><stop id="stop880" offset="1" stop-color="#7ccc6c"/></linearGradient></defs><title id="title885">cumulus-networks-rack-cumulus-linux</title><rect id="rect887" width="47" height="9" x=".5" y="11.5" fill="#fff" class="cls-1" rx="1.5" ry="1.5"/><path id="path889" fill="#8c9aa6" d="m 46,12 a 1,1 0 0 1 1,1 v 6 a 1,1 0 0 1 -1,1 H 2 A 1,1 0 0 1 1,19 v -6 a 1,1 0 0 1 1,-1 h 44 m 0,-1 H 2 a 2,2 0 0 0 -2,2 v 6 a 2,2 0 0 0 2,2 h 44 a 2,2 0 0 0 2,-2 v -6 a 2,2 0 0 0 -2,-2 z" class="cls-2"/><rect id="rect891" width="10" height="2" x="32" y="15" fill="#8c9aa6" class="cls-2"/><rect id="rect893" width="47" height="9" x=".5" y="20.5" fill="#fff" class="cls-1" rx="1.5" ry="1.5"/><path id="path895" fill="#8c9aa6" d="m 46,21 a 1,1 0 0 1 1,1 v 6 a 1,1 0 0 1 -1,1 H 2 A 1,1 0 0 1 1,28 v -6 a 1,1 0 0 1 1,-1 h 44 m 0,-1 H 2 a 2,2 0 0 0 -2,2 v 6 a 2,2 0 0 0 2,2 h 44 a 2,2 0 0 0 2,-2 v -6 a 2,2 0 0 0 -2,-2 z" class="cls-2"/><rect id="rect897" width="10" height="2" x="32" y="24" fill="#8c9aa6" class="cls-2"/><rect id="rect899" width="47" height="9" x=".5" y="29.5" fill="#fff" class="cls-1" rx="1.5" ry="1.5"/><path id="path901" fill="#8c9aa6" d="m 46,30 a 1,1 0 0 1 1,1 v 6 a 1,1 0 0 1 -1,1 H 2 A 1,1 0 0 1 1,37 v -6 a 1,1 0 0 1 1,-1 h 44 m 0,-1 H 2 a 2,2 0 0 0 -2,2 v 6 a 2,2 0 0 0 2,2 h 44 a 2,2 0 0 0 2,-2 v -6 a 2,2 0 0 0 -2,-2 z" class="cls-2"/><rect id="rect903" width="10" height="2" x="32" y="33" fill="#8c9aa6" class="cls-2"/><rect id="rect905" width="47" height="9" x=".5" y="38.5" fill="#fff" class="cls-1" rx="1.5" ry="1.5"/><path id="path907" fill="#8c9aa6" d="m 46,39 a 1,1 0 0 1 1,1 v 6 a 1,1 0 0 1 -1,1 H 2 A 1,1 0 0 1 1,46 v -6 a 1,1 0 0 1 1,-1 h 44 m 0,-1 H 2 a 2,2 0 0 0 -2,2 v 6 a 2,2 0 0 0 2,2 h 44 a 2,2 0 0 0 2,-2 v -6 a 2,2 0 0 0 -2,-2 z" class="cls-2"/><rect id="rect909" width="10" height="2" x="32" y="42" fill="#8c9aa6" class="cls-2"/><rect id="rect911" width="47" height="9" x=".5" y="47.5" fill="#fff" class="cls-1" rx="1.5" ry="1.5"/><path id="path913" fill="#8c9aa6" d="m 46,48 a 1,1 0 0 1 1,1 v 6 a 1,1 0 0 1 -1,1 H 2 A 1,1 0 0 1 1,55 v -6 a 1,1 0 0 1 1,-1 h 44 m 0,-1 H 2 a 2,2 0 0 0 -2,2 v 6 a 2,2 0 0 0 2,2 h 44 a 2,2 0 0 0 2,-2 v -6 a 2,2 0 0 0 -2,-2 z" class="cls-2"/><rect id="rect915" width="10" height="2" x="32" y="51" fill="#8c9aa6" class="cls-2"/><rect id="rect917" width="48" height="12" x="0" y="0" fill="#fff" class="cls-1" rx="2" ry="2"/><path id="path919" fill="#cbd4e0" fill-opacity="1" d="M 45,3 V 9 H 3 V 3 H 45 M 46,0 H 2 A 2,2 0 0 0 0,2 v 8 a 2,2 0 0 0 2,2 h 44 a 2,2 0 0 0 2,-2 V 2 A 2,2 0 0 0 46,0 Z" class="cls-3"/><path id="path921" fill="#8c9aa6" d="m 46,1 a 1,1 0 0 1 1,1 v 8 a 1,1 0 0 1 -1,1 H 2 A 1,1 0 0 1 1,10 V 2 A 1,1 0 0 1 2,1 H 46 M 46,0 H 2 A 2,2 0 0 0 0,2 v 8 a 2,2 0 0 0 2,2 h 44 a 2,2 0 0 0 2,-2 V 2 A 2,2 0 0 0 46,0 Z" class="cls-2"/><rect id="rect923" width="2" height="2" x="40" y="5" fill="#8c9aa6" class="cls-2"/><rect id="rect925" width="2" height="2" x="35" y="5" fill="#8c9aa6" class="cls-2"/><rect id="rect927" width="2" height="2" x="30" y="5" fill="#8c9aa6" class="cls-2"/></svg>