<svg xmlns="http://www.w3.org/2000/svg" xmlns:svg="http://www.w3.org/2000/svg" id="svg1030" version="1.1" viewBox="0 0 48 10"><metadata id="metadata1034"/><defs id="defs1014"><style id="style1012">.cls-1{fill:#fff}.cls-2{fill:#8c9aa6}</style></defs><title id="title1016">cumulus-networks-netq-server</title><rect id="rect1018" width="47" height="9" x=".5" y=".5" fill="#fff" class="cls-1" rx="1.5" ry="1.5"/><path id="path1020" fill="#8c9aa6" d="m 46,1 a 1,1 0 0 1 1,1 V 8 A 1,1 0 0 1 46,9 H 2 A 1,1 0 0 1 1,8 V 2 A 1,1 0 0 1 2,1 H 46 M 46,0 H 2 A 2,2 0 0 0 0,2 v 6 a 2,2 0 0 0 2,2 H 46 A 2,2 0 0 0 48,8 V 2 A 2,2 0 0 0 46,0 Z" class="cls-2"/><rect id="rect1022" width="10" height="2" x="32" y="4" fill="#8c9aa6" class="cls-2"/></svg>