<svg xmlns="http://www.w3.org/2000/svg" xmlns:svg="http://www.w3.org/2000/svg" id="svg1030" version="1.1" viewBox="0 0 48 10"><metadata id="metadata1034"/><defs id="defs1014"><style id="style1012">.cls-1{fill:#fff}.cls-2{fill:#8c9aa6}</style></defs><title id="title1016">cumulus-networks-netq-server</title><rect id="rect1018" width="47" height="9" x=".5" y=".5" fill="#fff" class="cls-1" rx="1.5" ry="1.5"/><path id="path1020" fill="#8c9aa6" d="m 46,1 a 1,1 0 0 1 1,1 V 8 A 1,1 0 0 1 46,9 H 2 A 1,1 0 0 1 1,8 V 2 A 1,1 0 0 1 2,1 H 46 M 46,0 H 2 A 2,2 0 0 0 0,2 v 6 a 2,2 0 0 0 2,2 H 46 A 2,2 0 0 0 48,8 V 2 A 2,2 0 0 0 46,0 Z" class="cls-2"/><rect id="rect1022" width="2.289" height="2" x="32" y="3.949" fill="#8c9aa6" stroke-width=".478" class="cls-2"/><rect id="rect1270" width="25.795" height="6.622" x="1.548" y="1.632" fill="#364149" fill-opacity="1" stroke="none" stroke-dasharray="none" stroke-dashoffset="0" stroke-linecap="round" stroke-linejoin="round" stroke-miterlimit="4" stroke-opacity="1" stroke-width="12.771" opacity="1" paint-order="normal" vector-effect="none"/><text id="text1274" x="5.362" y="6.939" fill="#fff" fill-opacity="1" stroke="none" font-family="sans-serif" font-size="40" font-style="normal" font-weight="normal" letter-spacing="0" word-spacing="0" xml:space="preserve" style="line-height:1.25"><tspan style="line-height:1.25" id="tspan1272" x="5.362" y="6.939" fill="#fff" font-size="5.333">Switch</tspan></text><rect id="rect1022-7" width="2.289" height="2" x="36.382" y="3.949" fill="#8c9aa6" stroke-width=".478" class="cls-2"/><rect id="rect1022-4" width="2.289" height="2" x="40.763" y="3.949" fill="#8c9aa6" stroke-width=".478" class="cls-2"/></svg>