<svg xmlns="http://www.w3.org/2000/svg" xmlns:xlink="http://www.w3.org/1999/xlink" viewBox="0 0 48 12"><defs><style>.cls-1{fill:#fff}.cls-2{fill:url(#New_Gradient_Swatch_2)}.cls-3{fill:#8c9aa6}</style><linearGradient id="New_Gradient_Swatch_2" x1="32.23" x2="15.77" y1="20.26" y2="-8.26" gradientUnits="userSpaceOnUse"><stop offset="0" stop-color="#78cdd1"/><stop offset="1" stop-color="#1effbd"/></linearGradient></defs><title>cumulus-networks-switch-out-of-band</title><g id="Layer_2" data-name="Layer 2"><g id="Text"><rect width="48" height="12" class="cls-1" rx="2" ry="2"/><path d="M45,3V9H3V3H45m1-3H2A2,2,0,0,0,0,2v8a2,2,0,0,0,2,2H46a2,2,0,0,0,2-2V2a2,2,0,0,0-2-2Z" class="cls-2"/><path d="M46,1a1,1,0,0,1,1,1v8a1,1,0,0,1-1,1H2a1,1,0,0,1-1-1V2A1,1,0,0,1,2,1H46m0-1H2A2,2,0,0,0,0,2v8a2,2,0,0,0,2,2H46a2,2,0,0,0,2-2V2a2,2,0,0,0-2-2Z" class="cls-3"/><rect width="2" height="2" x="40" y="5" class="cls-3"/><rect width="2" height="2" x="35" y="5" class="cls-3"/><rect width="2" height="2" x="30" y="5" class="cls-3"/></g></g></svg>