<svg xmlns="http://www.w3.org/2000/svg" xmlns:svg="http://www.w3.org/2000/svg" id="Layer_1" width="37.8" height="50" x="0" y="0" enable-background="new 0 0 50 50" version="1.1" viewBox="0 0 37.8 50" xml:space="preserve"><metadata id="metadata31"/><g id="g3" transform="translate(-6.1,0)"><path id="path5" fill="#3e3e3e" d="M 6.1,6.8 6.1,43.1 C 6.1,46.9 14.5,49.9 25,49.9 L 25,6.8 6.1,6.8 Z"/><path id="path7" fill="#a0a1a2" d="M 24.7,50 25,50 C 35.4,50 43.9,46.9 43.9,43.2 L 43.9,6.8 24.7,6.8 24.7,50 Z"/><path id="path9" fill="#fff" d="M 43.9,6.8 C 43.9,10.6 35.5,13.6 25,13.6 14.5,13.6 6.1,10.6 6.1,6.8 6.1,3.1 14.6,0 25,0 35.4,0 43.9,3.1 43.9,6.8"/><path id="path11" fill="#7fba00" d="M 40,6.4 C 40,8.9 33.3,10.9 25,10.9 16.7,10.9 10,8.9 10,6.4 10,3.9 16.7,1.9 25,1.9 33.3,1.9 40,3.9 40,6.4"/><path id="path13" fill="#b8d432" d="M 36.9,9.2 C 38.9,8.4 40,7.5 40,6.4 40,3.9 33.3,1.9 25,1.9 16.7,1.9 10,3.9 10,6.4 10,7.4 11.2,8.4 13.1,9.2 15.8,8.1 20.1,7.4 25,7.4 29.8,7.4 34.1,8.1 36.9,9.2"/></g><g id="g15" transform="translate(-6.1,0)"><path id="path17" fill="#3999c6" d="M 24.7,50 24.7,32 C 21.9,32 19.5,30.5 18.1,28.3 16.7,30.5 14.4,32 11.6,32 9.4,32 7.5,31.1 6.1,29.6 L 6.1,43.2 C 6.1,46.9 14.4,49.9 24.7,50 Z"/><path id="path19" fill="#3999c6" d="M 25,50 25,50 25,50 C 25,50 25,50 25,50 Z"/><path id="path21" fill="#59b4d9" d="M 24.7,50 25,50 C 24.9,50 24.8,50 24.7,50 L 24.7,50 Z"/><path id="path23" fill="#59b4d9" d="M 38.1,32 C 35.3,32 32.8,30.5 31.4,28.3 30.1,30.5 27.7,31.9 24.9,32 L 24.9,50 24.9,50 C 35.3,50 43.8,46.9 43.8,43.2 L 43.8,29.5 C 42.4,31 40.4,32 38.1,32 Z"/><path id="path25" fill="#59b4d9" d="M 24.8,32 C 24.8,32 24.8,32 24.8,32 L 24.7,50 C 24.8,50 24.8,50 24.9,50 L 24.9,50 24.9,32 C 24.9,32 24.9,32 24.8,32 Z"/></g></svg>