<svg xmlns="http://www.w3.org/2000/svg" xmlns:svg="http://www.w3.org/2000/svg" id="Layer_1" width="54.8" height="54.8" x="0" y="0" enable-background="new 0 0 60.2 61" version="1.1" viewBox="0 0 54.8 54.8" xml:space="preserve"><metadata id="metadata2002"/><g id="g1995" transform="translate(-2.8999996,-2.3999996)"><circle id="circle1985" cx="30.3" cy="29.8" r="27.4" fill="#90c740"/><g id="g1993"><path id="path1987" fill="#fff" d="m 31.1,17.7 c -1.1,-1.1 -2.2,-2.2 -3.3,-3.5 -0.3,-0.3 -0.3,-0.5 0,-0.8 1.1,-1.1 2.2,-2.2 3.5,-3.5 -0.2,1.4 0.3,1.7 1.7,2 6.9,1.6 11.8,7.2 12.4,14.5 0.6,6.9 -3.3,13.4 -9.9,16.1 -1.7,0.8 -3.5,1.3 -5.4,1.3 -6.1,0 -12.3,0 -18.4,0 0,-0.2 0,-0.2 0,-0.3 0.5,-0.8 1.7,-1.1 1.6,-2 -0.2,-0.8 -1.1,-1.3 -1.9,-2 1.4,0 2.7,0 3.9,0 4.6,0 9.3,0 13.9,0 5.8,0 10.5,-3.8 11.6,-9.6 C 42,24.6 39,19.3 34,16.9 c -0.5,-0.2 -0.9,-0.3 -1.3,-0.5 -1.1,-0.5 -1.6,-0.2 -1.3,1.1 -0.1,0 -0.3,0.2 -0.3,0.2 z"/><path id="path1989" fill="#fff" d="m 27.2,11.7 c -0.3,0.9 -1.7,1.3 -1.4,2.2 0.3,0.8 1.1,1.3 1.9,2 -4.9,1.3 -8.3,3.9 -9.4,9 -1.1,4.9 0.5,9 4.6,12.4 -2,0 -3.9,0 -5.8,0 -0.5,0 -0.6,-0.5 -0.9,-0.8 -3.5,-5.2 -3.5,-12.4 0,-17.6 2.5,-4 6.1,-6.4 11,-7.2 z"/><path id="path1991" fill="#fff" d="m 47.5,37.8 c 0.9,1.1 2,2 3,3.1 0.3,0.3 0.6,0.5 0.2,0.9 -1.1,1.1 -2.2,2.2 -3.5,3.5 0.2,-1.6 -0.6,-1.6 -1.7,-1.6 -2.5,0 -5,0 -7.7,0 0.5,-0.8 1.4,-0.9 2,-1.6 0.5,-0.5 1.1,-0.8 1.6,-1.3 1.1,-1.4 2.5,-1.9 4.3,-1.7 1.1,0.2 1.7,-0.2 1.4,-1.4 0.2,0.1 0.4,0.1 0.4,0.1 z"/></g></g></svg>