<svg xmlns="http://www.w3.org/2000/svg" xmlns:svg="http://www.w3.org/2000/svg" id="Layer_1" width="54.6" height="54.6" x="0" y="0" enable-background="new 0 0 60.8 62.3" version="1.1" viewBox="0 0 54.6 54.6" xml:space="preserve"><metadata id="metadata2627"/><g id="g2620" transform="translate(-3.1000004,-3.4000015)"><circle id="circle2588" cx="30.4" cy="30.7" r="27.3" fill="#90c740"/><g id="g2618"><polyline id="polyline2590" fill="none" stroke="#fff" stroke-miterlimit="10" stroke-width="1.305" points="22.9 29.5 29 35 38.7 26.4"/><g id="g2608"><g id="g2598"><g id="g2596"><path id="path2592" fill="#fff" d="m 26.8,49.2 h -8.6 c -1.3,0 -2.2,0.9 -2.2,2.2 v 2.2 l 12.9,0.2 V 51.6 C 29,50.2 28,49.2 26.8,49.2 Z"/><path id="path2594" fill="#fff" d="m 22.4,47 c -3,0 -5.5,-2.5 -5.5,-5.5 0,-3 2.5,-5.5 5.5,-5.5 3,0 5.5,2.5 5.5,5.5 0,3 -2.4,5.5 -5.5,5.5 z m 0,-10.3 c -2.7,0 -4.9,2.2 -4.9,4.9 0,2.7 2.2,4.9 4.9,4.9 2.7,0 4.9,-2.2 4.9,-4.9 -0.1,-2.7 -2.2,-4.9 -4.9,-4.9 z"/></g></g><g id="g2606"><g id="g2604"><path id="path2600" fill="#fff" d="m 43.4,49.2 h -8.6 c -1.3,0 -2.2,0.9 -2.2,2.2 v 2.2 l 12.9,0.2 v -2.2 c 0.1,-1.4 -0.8,-2.4 -2.1,-2.4 z"/><path id="path2602" fill="#fff" d="m 39,47 c -3,0 -5.5,-2.5 -5.5,-5.5 0,-3 2.5,-5.5 5.5,-5.5 3,0 5.5,2.5 5.5,5.5 0,3 -2.4,5.5 -5.5,5.5 z m 0,-10.3 c -2.7,0 -4.9,2.2 -4.9,4.9 0,2.7 2.2,4.9 4.9,4.9 2.7,0 4.9,-2.2 4.9,-4.9 0,-2.7 -2.2,-4.9 -4.9,-4.9 z"/></g></g></g><g id="g2616"><g id="g2614"><path id="path2610" fill="#fff" d="m 35.1,19.9 h -8.6 c -1.3,0 -2.2,0.9 -2.2,2.2 v 2.2 l 12.9,0.2 v -2.2 c 0.1,-1.4 -0.9,-2.4 -2.1,-2.4 z"/><path id="path2612" fill="#fff" d="m 30.7,17.7 c -3,0 -5.5,-2.5 -5.5,-5.5 0,-3 2.5,-5.5 5.5,-5.5 3,0 5.5,2.5 5.5,5.5 0,3 -2.4,5.5 -5.5,5.5 z m 0,-10.3 c -2.7,0 -4.9,2.2 -4.9,4.9 0,2.7 2.2,4.9 4.9,4.9 2.7,0 4.9,-2.2 4.9,-4.9 0,-2.7 -2.2,-4.9 -4.9,-4.9 z"/></g></g></g></g></svg>