<svg xmlns="http://www.w3.org/2000/svg" xmlns:svg="http://www.w3.org/2000/svg" id="Layer_1" width="55" height="55" x="0" y="0" enable-background="new 0 0 60.8 62.3" version="1.1" viewBox="0 0 55 55" xml:space="preserve"><metadata id="metadata10627"/><g id="g10620" transform="translate(-3.5,-3.6000004)"><circle id="circle10590" cx="31" cy="31.1" r="27.5" fill="#90c740"/><g id="g10618"><path id="path10592" fill="#fff" d="M 13.5,17.1 V 21.7 45 H 48.4 V 21.7 17.1 Z M 46.1,42.8 H 15.9 V 24.1 h 30.2 z"/><g id="g10616"><rect id="rect10594" width="30.2" height="18.7" x="15.9" y="24.1" fill="none" stroke="#fff" stroke-miterlimit="10" stroke-width=".138"/><line id="line10596" x1="15.9" x2="46.1" y1="39.6" y2="39.6" fill="none" stroke="#fff" stroke-miterlimit="10" stroke-width=".138"/><line id="line10598" x1="15.9" x2="46.1" y1="36.6" y2="36.6" fill="none" stroke="#fff" stroke-miterlimit="10" stroke-width=".138"/><line id="line10600" x1="15.9" x2="46.1" y1="33.4" y2="33.4" fill="none" stroke="#fff" stroke-miterlimit="10" stroke-width=".138"/><line id="line10602" x1="15.9" x2="46.1" y1="30.4" y2="30.4" fill="none" stroke="#fff" stroke-miterlimit="10" stroke-width=".138"/><line id="line10604" x1="15.9" x2="46.1" y1="27.3" y2="27.3" fill="none" stroke="#fff" stroke-miterlimit="10" stroke-width=".138"/><line id="line10606" x1="41" x2="41" y1="24.1" y2="42.8" fill="none" stroke="#fff" stroke-miterlimit="10" stroke-width=".138"/><line id="line10608" x1="35.9" x2="35.9" y1="24.1" y2="42.8" fill="none" stroke="#fff" stroke-miterlimit="10" stroke-width=".138"/><line id="line10610" x1="31" x2="31" y1="24.1" y2="42.8" fill="none" stroke="#fff" stroke-miterlimit="10" stroke-width=".138"/><line id="line10612" x1="26" x2="26" y1="24.1" y2="42.8" fill="none" stroke="#fff" stroke-miterlimit="10" stroke-width=".138"/><line id="line10614" x1="20.9" x2="20.9" y1="24.1" y2="42.8" fill="none" stroke="#fff" stroke-miterlimit="10" stroke-width=".138"/></g></g></g></svg>