<svg xmlns="http://www.w3.org/2000/svg" xmlns:svg="http://www.w3.org/2000/svg" id="Layer_1" width="55" height="55" x="0" y="0" enable-background="new 0 0 60.8 62.3" version="1.1" viewBox="0 0 55 55" xml:space="preserve"><metadata id="metadata3373"/><g id="g3366" transform="translate(-1.8999996,-3.2000008)"><g id="blockchain-event-listener_2_"><circle id="ellipse3355" cx="29.4" cy="30.7" r="27.5" fill="#90c740"/></g><g id="g3364"><path id="path3358" fill="#fff" d="m 47.8,41.7 c -0.1,0.5 -0.2,0.9 -0.3,1.4 -0.5,1.9 -1.5,3.4 -3.1,4.5 -0.4,0.3 -0.8,0.5 -1.2,0.8 0,-4.9 0,-9.7 0,-14.6 0.7,0.3 1.3,0.8 1.9,1.3 1.1,-4.5 -0.1,-10.9 -5,-15.3 -5.3,-4.7 -12.5,-5.2 -18,-2.5 -6.9,3.4 -10.2,10.9 -8.7,17.8 0.6,-0.4 1.3,-0.9 2,-1.3 0,4.9 0,9.8 0,14.7 -0.4,-0.2 -0.7,-0.4 -1,-0.6 -1.5,-1.1 -2.6,-2.5 -3.2,-4.2 -0.6,-1.7 -0.6,-3.4 0.1,-5.1 0.2,-0.4 0.4,-0.8 0.5,-1.3 0,-0.1 0.1,-0.3 0,-0.4 -0.2,-0.9 -0.5,-1.7 -0.7,-2.6 -0.4,-2.1 -0.5,-4.1 -0.2,-6.2 0.4,-3 1.5,-5.7 3.3,-8.1 1.8,-2.5 4,-4.4 6.7,-5.8 2.2,-1.1 4.6,-1.8 7,-1.9 0.1,0 0.2,0 0.3,-0.1 0.7,0 1.3,0 2,0 0.1,0 0.2,0 0.3,0.1 1.4,0.1 2.7,0.3 4,0.7 2.6,0.8 4.9,2.1 7,3.9 1.5,1.3 2.8,2.9 3.8,4.7 1.1,2 1.9,4.2 2.2,6.4 0.1,0.6 0.1,1.1 0.2,1.7 0,0.7 0,1.3 0,2 0,0.1 0,0.1 0,0.2 -0.1,1.7 -0.5,3.4 -1,5 0,0.1 0,0.2 0,0.3 0.5,0.9 0.8,1.8 0.9,2.8 0,0.2 0.1,0.3 0.1,0.5 0.1,0.3 0.1,0.8 0.1,1.2 z"/><path id="path3360" fill="#fff" d="m 20,33 c 0,5.4 0,10.8 0,16.2 -0.7,0 -1.4,-0.1 -2.1,-0.1 -0.1,0 -0.1,-0.1 -0.1,-0.2 0,-0.1 0,-0.1 0,-0.2 0,-5.1 0,-10.2 0,-15.3 0,-0.3 0.1,-0.4 0.4,-0.4 0.6,0 1.2,0 1.8,0 z"/><path id="path3362" fill="#fff" d="m 38.6,49.1 c 0,-5.4 0,-10.7 0,-16.2 0.7,0 1.4,0.1 2.1,0.1 0.1,0 0.1,0.1 0.2,0.2 0,0.1 0,0.1 0,0.2 0,5.1 0,10.2 0,15.3 0,0.3 -0.1,0.4 -0.4,0.4 -0.6,0 -1.2,0 -1.9,0 z"/></g></g></svg>