<svg xmlns="http://www.w3.org/2000/svg" xmlns:svg="http://www.w3.org/2000/svg" id="Layer_1" width="55" height="55" x="0" y="0" enable-background="new 0 0 60.8 62.3" version="1.1" viewBox="0 0 55 55" xml:space="preserve"><metadata id="metadata4111"/><g id="blockchain-identity-access-management_2_" transform="translate(-4,-3.2000008)"><circle id="circle4079" cx="31.5" cy="30.7" r="27.5" fill="#d91f2f" fill-rule="evenodd" clip-rule="evenodd"/><g id="g4103"><path id="path4081" fill="none" stroke="#fff" stroke-miterlimit="10" stroke-width="1.32" d="m 19.2,25 c -0.1,-0.9 -0.1,-2.3 0.4,-4 0.5,-1.9 1.4,-3.1 1.9,-3.8 0.5,-0.7 1.6,-2.2 3.7,-3.4 1.7,-0.9 3.2,-1.2 3.9,-1.4 1.5,-0.3 2.7,-0.2 3.4,-0.2 1.8,0.2 3.2,0.7 3.5,0.8 0.4,0.2 2,0.8 3.6,2.2 1.3,1.2 2,2.3 2.2,2.6 0.9,1.4 1.2,2.7 1.3,2.9 0.2,0.8 0.3,1.4 0.3,1.9 0.2,2.9 0.2,7.8 0.2,8.6"/><path id="path4083" fill="none" stroke="#fff" stroke-miterlimit="10" stroke-width="1.32" d="m 18.8,27.7 c 0.3,0 0.9,0.1 1.6,-0.3 0.7,-0.3 1.1,-0.9 1.2,-1.1 0.1,-0.1 0.3,-0.5 0.6,-1.8 0.2,-1.1 0.1,-1.4 0.3,-2.2 0,-0.2 0.2,-1.2 0.6,-2.1 0.9,-1.8 2.4,-2.9 3.2,-3.4 0.6,-0.4 1.3,-0.9 2.5,-1.2 0.4,-0.1 2.5,-0.7 5,-0.1 0.4,0.1 1.5,0.4 2.8,1.2 1.1,0.7 1.8,1.5 2.3,2.1 0.6,0.7 1.1,1.3 1.5,2.3 0.2,0.6 0.3,1 0.3,1.4 0.2,1.4 0.2,4.9 0.2,7.8 0,0.3 -0.2,1 0.2,1.6 0.3,0.6 0.7,0.9 1.1,1.1 0.7,0.5 1.5,0.7 2,0.8"/><path id="path4085" fill="none" stroke="#fff" stroke-miterlimit="10" stroke-width="1.32" d="m 18.8,30.7 c 0.4,0 1,0.1 1.8,-0.1 1,-0.2 1.7,-0.7 2.1,-0.9 0.5,-0.3 1.2,-0.8 1.8,-1.7 0.4,-0.6 0.5,-1.5 0.7,-3.2 0.2,-1.7 0.2,-2 0.5,-2.7 0.1,-0.2 0.4,-1 1.2,-1.8 0.6,-0.7 1.3,-1.1 1.6,-1.2 0.8,-0.5 1.6,-0.6 1.8,-0.7 1,-0.2 1.8,-0.1 2.2,0 0.5,0.1 1.1,0.2 1.8,0.5 0.7,0.3 1.1,0.7 1.5,1.1 0.4,0.4 0.9,0.8 1.3,1.6 0.4,0.8 0.6,1.5 0.6,1.8 0.1,0.5 0.1,0.9 0.1,1.1 -0.1,2.5 0.2,5 0.1,7.5 0,0.2 0,0.7 0.2,1.2 0.2,0.6 0.9,1.3 1.5,1.8 0.6,0.6 1.3,0.9 1.5,1 0.5,0.3 1.6,0.6 3.1,0.7"/><path id="path4087" fill="none" stroke="#fff" stroke-miterlimit="10" stroke-width="1.32" d="m 18.8,33.7 c 0.4,0.1 0.9,0.2 1.6,0.1 0.9,-0.1 1.6,-0.4 2.2,-0.8 0.3,-0.1 0.9,-0.5 1.6,-1 0.4,-0.3 1.4,-1.1 2.3,-2.4 0.6,-0.8 0.8,-1.2 1.1,-1.9 0.1,-0.1 0.2,-0.7 0.3,-1.9 0.1,-0.7 0.2,-1.2 0.4,-1.8 0.2,-0.8 0.3,-1 0.4,-1.2 0.3,-0.4 0.6,-0.6 1,-0.9 0.5,-0.3 0.9,-0.6 1.5,-0.7 0.5,-0.1 0.9,0.1 1.1,0.1 0.1,0 0.6,0.2 1,0.6 0.1,0.1 0.6,0.5 0.9,1.1 0.3,0.7 0.3,1.3 0.1,2.5 -0.2,1.6 -0.3,2.4 -0.6,3.4 -0.2,0.5 -0.7,2.2 -1.9,3.9 -2.1,3 -4.8,4.4 -5.8,4.9 -2.9,1.5 -5.6,1.8 -7.2,1.9"/><path id="path4089" fill="none" stroke="#fff" stroke-miterlimit="10" stroke-width="1.32" d="m 19.3,36.7 c 0.7,0 1.8,0 3,-0.4 2.6,-0.7 4.3,-2.2 4.9,-2.8 1.2,-1.1 1.9,-2.2 2.4,-2.9 0.5,-0.7 0.9,-1.4 1.3,-2.3 0.3,-0.8 0.8,-2.3 0.6,-4.4"/><path id="path4091" fill="none" stroke="#fff" stroke-miterlimit="10" stroke-width="1.32" d="m 32,36.5 c 0.5,0 1,0 1.5,0"/><path id="path4093" fill="none" stroke="#fff" stroke-miterlimit="10" stroke-width="1.32" d="m 35,33.6 c 0.1,0.4 0.3,0.9 0.6,1.5 0.5,0.9 1,1.4 1.6,1.9 1,0.9 1.9,1.5 2.3,1.7 0.5,0.3 1.1,0.6 2,0.9 1.1,0.3 2.1,0.3 2.8,0.2"/><path id="path4095" fill="none" stroke="#fff" stroke-miterlimit="10" stroke-width="1.32" d="m 42.1,43 c -0.5,-0.1 -1.1,-0.4 -1.9,-0.7 -0.9,-0.3 -1.4,-0.5 -2,-0.9 -1,-0.6 -1.3,-0.7 -2.1,-1.1 -0.7,-0.4 -1.7,-0.7 -2.4,-0.9 -0.9,-0.2 -1.4,-0.3 -2.8,0 -0.5,0.1 -0.9,0.3 -1.9,0.7 -1.9,0.9 -2,1.2 -3.2,1.6 -1.2,0.5 -2.3,0.7 -3,0.8 -0.9,0.1 -1.6,0.2 -2.2,0.2"/><path id="path4097" fill="none" stroke="#fff" stroke-miterlimit="10" stroke-width="1.32" d="m 23.1,45.6 c 0.8,0 1.4,-0.1 1.8,-0.2 0.7,-0.2 1.3,-0.5 1.7,-0.7 0.6,-0.3 0.6,-0.4 1.5,-0.8 0.6,-0.3 1,-0.5 1.4,-0.7 0.7,-0.3 1.1,-0.5 1.6,-0.6 0.4,-0.1 0.6,0 1.2,0 0.5,0 0.9,0.1 1.4,0.2 0.4,0.1 0.8,0.3 1.5,0.7 0.5,0.3 0.6,0.3 1.1,0.6 0.2,0.1 0.9,0.5 1.5,0.8 0.5,0.2 1.4,0.5 2.5,0.7"/><path id="path4099" fill="none" stroke="#fff" stroke-miterlimit="10" stroke-width="1.32" d="m 26.3,48.1 c 0.7,-0.2 1.3,-0.4 1.7,-0.6 0.5,-0.2 1.1,-0.5 1.8,-1 0.7,-0.4 0.7,-0.6 1.1,-0.7 0.7,-0.3 1.3,-0.2 1.6,-0.1 0.7,0.1 1.1,0.3 1.4,0.4 0.3,0.2 0.6,0.3 1.2,0.7 0.6,0.4 0.8,0.5 1.2,0.8 0.4,0.2 0.7,0.3 0.9,0.4"/><path id="path4101" fill="none" stroke="#fff" stroke-miterlimit="10" stroke-width="1.32" d="m 31.5,49.1 c 0.6,0 1.1,0 1.7,0"/></g></g></svg>