<svg xmlns="http://www.w3.org/2000/svg" xmlns:svg="http://www.w3.org/2000/svg" xmlns:xlink="http://www.w3.org/1999/xlink" id="Layer_1" width="22.6" height="22.6" x="0" y="0" enable-background="new 0 0 1028.3 703.3" version="1.1" viewBox="0 0 22.6 22.6" xml:space="preserve"><metadata id="metadata2176"/><circle id="circle1936" cx="11.3" cy="11.3" r="11.3" fill="#d91f2f" fill-rule="evenodd" clip-rule="evenodd"/><g id="g1944" transform="translate(-879.79998,-220.09998)"><path id="path1938" fill="#fff" d="m 895.9,225.1 c -1.6,-1.5 -3.9,-1.6 -5.2,-0.2 -1.2,1.4 -1.1,3.7 0.6,5.2 1.7,1.5 3.9,1.6 5.2,0.2 1.2,-1.4 0.9,-3.7 -0.6,-5.2 z m -1.1,3.9 c -0.5,0.4 -1.5,0.2 -2.2,-0.5 -0.7,-0.8 -0.8,-1.8 -0.3,-2.2 0.5,-0.4 1.5,-0.2 2.2,0.5 0.6,0.7 0.8,1.7 0.3,2.2 z"/><line id="line1940" x1="891.2" x2="885" y1="229.2" y2="235.2" fill="none" stroke="#fff" stroke-linecap="square" stroke-miterlimit="10" stroke-width="1.874"/><polygon id="polygon1942" fill="#fff" points="885.1 236.8 886.9 238.7 887.5 238 886.7 237.1 887.5 236.5 888.3 237.3 889 236.6 887.3 234.8"/></g><path id="SVGID_x5F_4_x5F__8_" fill="none" d="m 15.20002,18.40002 c -4.2,1.8 -9,-0.2 -10.9,-4.5 -1.9,-4.3 0,-9.2 4.2,-11 4.2,-1.8 9,0.2 10.9,4.5 1.8,4.3 0,9.2 -4.2,11 z"/><text id="text1951"><textPath id="textPath1949" startOffset="67.122%" xlink:href="#SVGID_x5F_4_x5F__8_"><tspan id="tspan1947" fill="#fff" font-family="MyriadPro-Bold" font-size="3">KEY MGMT</tspan></textPath></text></svg>