<svg xmlns="http://www.w3.org/2000/svg" xmlns:svg="http://www.w3.org/2000/svg" id="Layer_1" width="55" height="55" x="0" y="0" enable-background="new 0 0 60.8 62.3" version="1.1" viewBox="0 0 55 55" xml:space="preserve"><metadata id="metadata10834"/><g id="g10827" transform="translate(-2.8999996,-4.2000008)"><circle id="circle10805" cx="30.4" cy="31.7" r="27.5" fill="#335e80"/><g id="g10825"><path id="path10807" fill="#fff" d="M 23,43 V 34.8 L 15.6,30.9 8.2,34.8 V 43 l 7.4,3.9 z M 11.4,41 v -4.1 l 3.9,-2.1 3.9,2.1 V 41 l -3.8,2 z"/><path id="path10809" fill="#fff" d="M 51.8,27.3 V 19.1 L 44.4,15.2 37,19.1 v 8.2 l 7.4,3.9 z m -11.3,-6.2 3.9,-2.1 3.9,2.1 v 4.1 l -3.9,2.1 -3.9,-2.1 z"/><polygon id="polygon10811" fill="#fff" points="29.9 42.6 19.3 36.9 19.3 25.4 29.9 19.5 40.5 25.4 40.5 36.9"/><polygon id="polygon10813" fill="#2d3f4a" points="21.2 35.8 29.4 40.4 29.4 30.4 21.2 26.6"/><polygon id="polygon10815" fill="#2d3f4a" points="29.9 21.6 21.7 26 29.9 29.8 38.1 26"/><polygon id="polygon10817" fill="#2d3f4a" points="30.4 30.4 30.4 40.4 38.7 35.8 38.7 26.6"/><polygon id="polygon10819" fill="#335e80" points="29.4 40.4 21.2 35.8 21.2 26.6 29.4 30.4"/><polygon id="polygon10821" fill="#335e80" points="38.7 35.8 30.4 40.4 30.4 30.4 38.7 26.6"/><polygon id="polygon10823" fill="#335e80" points="38.1 26 29.9 29.8 21.7 26 29.9 21.6"/></g></g></svg>