<svg xmlns="http://www.w3.org/2000/svg" xmlns:svg="http://www.w3.org/2000/svg" id="Layer_1" width="54.4" height="54.4" x="0" y="0" enable-background="new 0 0 60.8 62.3" version="1.1" viewBox="0 0 54.4 54.4" xml:space="preserve"><metadata id="metadata4726"/><circle id="circle4701" cx="27.2" cy="27.2" r="27.2" fill="#d91f2f"/><path id="path4703" fill="#fff" d="m 31.900001,32 -16.1,-0.2 c -2.2,0 -4.1,1.7 -4.1,3.9 v 4.1 l 24.1,0.2 v -4.1 c 0.2,-2 -1.7,-3.9 -3.9,-3.9 z"/><path id="path4705" fill="#fff" d="m 23.900001,27.8 c -5.6,0 -10.2,-4.5 -10.2,-10.2 0,-5.7 4.5,-10.1999996 10.2,-10.1999996 5.7,0 10.2,4.4999996 10.2,10.1999996 0,5.7 -4.6,10.2 -10.2,10.2 z m 0,-19.0999996 c -5,0 -8.9,4.0999996 -8.9,8.8999996 0,4.8 4.1,8.9 8.9,8.9 5,0 8.9,-4.1 8.9,-8.9 0,-4.8 -4,-8.8999996 -8.9,-8.8999996 z"/><circle id="circle4711" cx="40" cy="36.8" r="9.1" fill="#e12834"/><path id="path4713" fill="#fff" d="m 43.17,30.1 c 0,-2.7 -2.269999,-5 -4.969999,-5 -2.7,0 -5,2.3 -5,5 v 2.2 c -1.1,1.1 -1.7,2.7 -1.7,4.4 0,3.6 3,6.6 6.6,6.6 3.6,0 6.6,-3 6.6,-6.6 0,-1.7 -0.430001,-3.1 -1.530001,-4.4 z m -8.169999,0 c 0,-1.7 1.6,-3.3 3.3,-3.3 1.7,0 3.3,1.6 3.3,3.3 v 1 c -0.9,-0.6 -2,-0.9 -3.3,-0.9 -1.3,0 -2.3,0.3 -3.3,0.9 z m 2.1,10.3 -3.1,-3.1 1.1,-1.1 1.9,1.9 4.4,-4.4 1.1,1.1 z"/></svg>