<svg xmlns="http://www.w3.org/2000/svg" xmlns:svg="http://www.w3.org/2000/svg" id="Layer_1" width="55" height="55" x="0" y="0" enable-background="new 0 0 60.8 62.3" version="1.1" viewBox="0 0 55 55" xml:space="preserve"><metadata id="metadata5424"/><g id="g5417" transform="translate(-3.1000004,-3.2999992)"><g id="g5403"><circle id="circle5401" cx="30.6" cy="30.8" r="27.5" fill="#90c740"/></g><g id="g5415"><path id="path5405" fill="#fff" d="m 9.9,27.1 c 2.4,1.5 4.7,3 7.3,4.6 -2.6,1.6 -4.9,3.1 -7.3,4.6 0,-3 0,-6.1 0,-9.2 z"/><path id="path5407" fill="#fff" d="m 27.7,16.2 c 2,0 3.9,0 5.9,0 0,10.1 0,20.1 0,30.2 -1.9,0 -3.9,0 -5.9,0 0,-10.1 0,-20.1 0,-30.2 z"/><path id="path5409" fill="#fff" d="m 19.4,16.2 c 2,0 3.9,0 5.8,0 0,10.1 0,20.1 0,30.1 -1.9,0 -3.8,0 -5.8,0 0,-10 0,-20 0,-30.1 z"/><path id="path5411" fill="#fff" d="m 36.1,46.4 c 0,-10.1 0,-20.1 0,-30.1 1.9,0 3.9,0 5.9,0 0,10 0,20.1 0,30.1 -2,0 -3.9,0 -5.9,0 z"/><path id="path5413" fill="#fff" d="m 44.4,36.3 c 0,-3.1 0,-6 0,-9.2 2.4,1.6 4.7,3 7.1,4.6 -2.4,1.6 -4.6,3.1 -7.1,4.6 z"/></g></g></svg>