<svg xmlns="http://www.w3.org/2000/svg" xmlns:svg="http://www.w3.org/2000/svg" id="Layer_1" width="55" height="55" x="0" y="0" enable-background="new 0 0 60.8 62.3" version="1.1" viewBox="0 0 55 55" xml:space="preserve"><metadata id="metadata6074"/><g id="g6067" transform="translate(-3,-4.2000008)"><circle id="circle6029" cx="30.5" cy="31.7" r="27.5" fill="#a9236e" fill-rule="evenodd" clip-rule="evenodd"/><g id="g6065"><g id="g6043"><path id="path6031" fill="#fff" d="m 35,11.7 c 0.3,0.1 0.6,0.2 0.8,0.5 0.2,0.2 0.3,0.5 0.3,0.8 0,2.5 0,5.1 0,7.6 v 0 C 36,20.4 35.8,20.2 35.6,20 c -0.1,-0.1 -0.2,-0.2 -0.3,-0.2 -0.1,0 -0.2,-0.1 -0.2,-0.2 0,-1.1 0,-2.1 0,-3.2 0,-1.1 0,-2.1 0,-3.2 0,-0.4 -0.1,-0.5 -0.5,-0.5 -3.2,0 -6.4,0 -9.6,0 -0.4,0 -0.5,0.1 -0.5,0.5 0,4.3 0,8.5 0,12.8 0,0.4 0.1,0.5 0.5,0.5 0.9,0 1.7,0 2.6,0 0.2,0 0.3,0 0.4,0.1 0.1,0.1 0.3,0.1 0.4,0.2 -0.2,0.2 -0.4,0.4 -0.6,0.6 h -0.1 c -1,0 -1.9,0 -2.9,0 -0.6,0 -1.2,-0.5 -1.3,-1.1 v -0.1 c 0,-4.4 0,-8.9 0,-13.3 0.1,-0.2 0.2,-0.5 0.3,-0.7 0.2,-0.3 0.5,-0.4 0.9,-0.5 3.5,0 6.9,0 10.3,0 z"/><path id="path6033" fill="#fff" d="m 34.8,28 c -0.2,0 -0.5,-0.1 -0.8,-0.1 -0.2,0 -0.4,0 -0.5,0.2 -0.2,0.2 -0.3,0.4 -0.5,0.5 -0.3,0.3 -0.6,0.3 -0.8,0 C 32,28.4 31.8,28.2 31.7,28.1 31.6,28 31.4,27.9 31.2,27.9 31,27.9 30.7,28 30.5,28 c -0.4,0.1 -0.7,-0.1 -0.7,-0.5 0,-0.2 -0.1,-0.5 -0.1,-0.7 0,-0.2 -0.1,-0.3 -0.3,-0.4 -0.2,-0.1 -0.4,-0.2 -0.7,-0.3 -0.4,-0.2 -0.5,-0.5 -0.3,-0.8 0.1,-0.2 0.2,-0.4 0.3,-0.6 0.1,-0.2 0.1,-0.4 0,-0.6 -0.1,-0.2 -0.2,-0.4 -0.3,-0.6 -0.2,-0.4 -0.1,-0.7 0.3,-0.9 0.2,-0.1 0.4,-0.2 0.6,-0.3 0.2,-0.1 0.3,-0.3 0.3,-0.5 0,-0.2 0.1,-0.5 0.1,-0.7 0.1,-0.3 0.3,-0.5 0.7,-0.5 0.2,0 0.5,0.1 0.7,0.1 0.2,0 0.4,0 0.6,-0.2 0.2,-0.2 0.3,-0.4 0.5,-0.5 0.3,-0.3 0.6,-0.3 0.8,0 0.2,0.2 0.3,0.3 0.5,0.5 0.2,0.2 0.4,0.2 0.6,0.2 0.2,0 0.5,-0.1 0.7,-0.1 0.3,-0.1 0.6,0.1 0.7,0.5 0,0.2 0.1,0.5 0.1,0.7 0,0.2 0.1,0.4 0.3,0.5 0.2,0.1 0.4,0.2 0.7,0.3 0.3,0.2 0.4,0.4 0.3,0.8 -0.1,0.2 -0.2,0.4 -0.3,0.6 -0.1,0.2 -0.1,0.4 0,0.6 0.1,0.2 0.2,0.4 0.3,0.6 0.2,0.3 0.1,0.6 -0.3,0.8 -0.2,0.1 -0.4,0.2 -0.7,0.3 -0.2,0.1 -0.3,0.3 -0.3,0.5 0,0.2 -0.1,0.5 -0.1,0.7 -0.1,0.3 -0.4,0.5 -0.7,0.5 z m -2.3,-0.6 c 1.8,0 3.2,-1.4 3.2,-3.2 0,-1.8 -1.4,-3.2 -3.2,-3.2 -1.8,0 -3.2,1.4 -3.2,3.2 0,1.7 1.4,3.2 3.2,3.2 z"/><path id="path6035" fill="#fff" d="m 29.8,14.9 c 1.1,0 2.3,0 3.4,0 0.1,0 0.2,0 0.3,0 0.2,0.1 0.3,0.3 0.3,0.5 0,0.2 -0.2,0.4 -0.5,0.4 -2.2,0 -4.4,0 -6.6,0 -0.1,0 -0.2,0 -0.3,0 -0.3,0 -0.5,-0.2 -0.5,-0.5 0,-0.3 0.2,-0.5 0.5,-0.5 1.1,0 2.3,0.1 3.4,0.1 z"/><path id="path6037" fill="#fff" d="m 29.9,18.1 c -1.2,0 -2.3,0 -3.5,0 -0.3,0 -0.5,-0.2 -0.5,-0.4 0,-0.2 0.2,-0.4 0.4,-0.5 h 0.1 c 2.3,0 4.5,0 6.8,0 0.1,0 0.2,0 0.3,0 0.2,0.1 0.3,0.3 0.3,0.5 0,0.2 -0.2,0.4 -0.5,0.4 -1.1,0 -2.3,0 -3.4,0 z"/><path id="path6039" fill="#fff" d="m 35.8,27.1 c 0.3,0.3 0.5,0.5 0.8,0.8 0.2,0.2 0.5,0.4 0.7,0.7 0.1,0.1 0.1,0.2 0.1,0.3 0,0.1 -0.1,0.2 -0.3,0.2 -0.3,0 -0.5,0.1 -0.8,0.1 -0.1,0 -0.1,0.1 -0.2,0.2 0,0.3 -0.1,0.5 -0.1,0.8 -0.1,0.3 -0.3,0.4 -0.5,0.2 -0.6,-0.6 -1.3,-1.3 -1.9,-1.9 v 0 c 0.1,-0.2 0.2,-0.2 0.4,-0.2 0.2,0 0.5,0.1 0.7,0.1 0.5,0.1 0.9,-0.2 1,-0.7 0.1,-0.2 0.1,-0.4 0.1,-0.6 z"/><path id="path6041" fill="#fff" d="m 29.2,27.1 c 0,0.2 0,0.3 0.1,0.5 0.1,0.5 0.5,0.8 1,0.7 0.2,0 0.4,-0.1 0.7,-0.1 0.2,0 0.3,0 0.4,0.2 l -0.1,0.1 c -0.6,0.6 -1.2,1.2 -1.8,1.8 -0.1,0.1 -0.2,0.2 -0.4,0.1 -0.2,-0.1 -0.2,-0.2 -0.2,-0.3 0,-0.2 -0.1,-0.5 -0.1,-0.7 0,-0.1 -0.1,-0.1 -0.1,-0.1 -0.3,0 -0.5,-0.1 -0.8,-0.1 -0.3,-0.1 -0.3,-0.3 -0.2,-0.5 0.5,-0.6 1,-1.1 1.5,-1.6 z"/></g><g id="g6063"><path id="path6045" fill="#fff" d="m 26,49.5 v -5.3 l -4.7,-2.5 -4.7,2.5 v 5.2 l 4.7,2.5 z m -7.2,-1.4 v -2.6 l 2.5,-1.3 2.5,1.3 v 2.6 l -2.5,1.3 z"/><path id="path6047" fill="#fff" d="M 44.4,39.5 V 34.2 L 39.7,31.7 35,34.2 v 5.2 l 4.7,2.5 z m -7.2,-3.9 2.5,-1.3 2.5,1.3 v 2.6 l -2.5,1.3 -2.5,-1.3 z"/><polygon id="polygon6049" fill="#fff" points="30.5 49.2 23.8 45.5 23.8 38.2 30.5 34.6 37.2 38.2 37.2 45.5"/><polygon id="polygon6051" fill="#2d3f4a" points="24.9 44.9 30.2 47.7 30.2 41.5 24.9 39.1"/><polygon id="polygon6053" fill="#2d3f4a" points="30.5 35.8 25.3 38.6 30.5 41 35.7 38.6"/><polygon id="polygon6055" fill="#2d3f4a" points="30.8 41.5 30.8 47.7 36 44.8 36 44.9 36 39.1"/><polygon id="polygon6057" fill="#a9236e" points="30.2 47.7 24.9 44.9 24.9 39.1 30.2 41.5"/><polygon id="polygon6059" fill="#a9236e" points="36 44.9 30.8 47.7 30.8 41.5 36 39.1"/><polygon id="polygon6061" fill="#a9236e" points="35.7 38.6 30.5 41 25.3 38.6 30.5 35.8"/></g></g></g></svg>