<svg xmlns="http://www.w3.org/2000/svg" xmlns:svg="http://www.w3.org/2000/svg" id="Layer_1" width="55" height="55" x="0" y="0" enable-background="new 0 0 60.8 62.3" version="1.1" viewBox="0 0 55 55" xml:space="preserve"><metadata id="metadata8471"/><g id="g8464" transform="translate(-2.8999996,-3)"><circle id="blockchain-wallet-external_2_" cx="30.4" cy="30.5" r="27.5" fill="#d91f2f" fill-rule="evenodd" clip-rule="evenodd"/><g id="g8462"><path id="path8452" fill="#fff" d="m 49.1,34.5 c 0,1.4 0,2.8 0,4.1 0,2.7 -2.2,4.9 -4.9,4.9 -6.2,0 -12.4,0 -18.6,0 -0.3,0 -0.5,0.1 -0.7,0.4 -2,2.8 -4.6,4.2 -8.1,3.9 C 13.2,47.5 10,44.5 9.2,41 c -0.8,-4.2 1.5,-8.3 5.5,-9.8 0.4,-0.1 0.5,-0.3 0.5,-0.7 0,-3.2 0,-6.4 0,-9.6 0,-2 1,-3.5 2.8,-4.5 0.5,-0.3 0.9,-0.5 1.2,-0.9 0.2,-0.3 0.6,-0.5 1,-0.6 2.2,-0.3 4.4,-0.5 6.6,-0.8 2.1,-0.2 4.2,-0.5 6.3,-0.7 2.1,-0.2 4.3,-0.5 6.4,-0.7 1,-0.1 2,-0.2 3,-0.3 1.2,-0.2 2,0.4 2.2,1.6 0.1,0.5 0.1,0.9 0.1,1.4 0,0.4 0.1,0.6 0.6,0.7 2,0.6 3.3,2 3.7,4.1 0.1,0.5 0,0.9 0,1.4 0,1.1 0,2.3 0,3.4 0.1,0 0.3,0 0.4,0 1.3,0 2.1,0.9 2.2,2.2 0,1.7 0,3.3 0,5 0,1.5 -0.8,2.3 -2.3,2.4 -0.1,-0.1 -0.1,-0.1 -0.3,-0.1 z m -26.8,-9 c 0,0.1 0,0.3 0,0.4 0,1.8 0,3.7 0,5.5 0,0.4 0.1,0.7 0.5,1 2.2,1.7 3.5,4 3.5,6.9 0,0.9 -0.2,1.8 -0.2,2.7 0.1,0 0.3,0 0.4,0 2.1,0 4.1,0 6.2,0 3.8,0 7.7,0 11.5,0 1.9,0 3.2,-1.3 3.2,-3.2 0,-1.2 0,-2.5 0,-3.7 0,-0.1 0,-0.3 0,-0.5 -0.2,0 -0.4,0 -0.6,0 -1.9,0 -3.8,0 -5.8,0 -3,0 -5.2,-2.8 -4.9,-5.4 0.3,-2.3 2.3,-4.1 4.6,-4.1 2.1,0 4.1,0 6.2,0 0.2,0 0.3,0 0.5,0 0,-1.6 0,-3 0,-4.5 -0.1,-1.2 -0.6,-2.2 -1.8,-2.6 -0.5,-0.2 -1,-0.2 -1.5,-0.2 -8,0 -15.9,0 -23.9,0 -2,0 -3.2,1.2 -3.2,3.2 0,3.1 0,6.2 0,9.3 0,0.2 0,0.3 0,0.4 1.2,0.2 2.4,0.3 3.5,0.5 0,-1.8 0,-3.7 0,-5.6 0.7,-0.1 1.2,-0.1 1.8,-0.1 z m -4.6,20.7 c 3.9,0 6.9,-2.9 6.9,-6.9 0,-4.5 -3.8,-6.9 -6.8,-6.9 -3.8,0 -6.9,2.8 -6.9,6.8 -0.1,3.9 2.9,7 6.8,7 z M 49.9,26.7 c -0.1,0 -0.2,0 -0.3,0 -2.9,0 -5.8,0 -8.7,0 -0.2,0 -0.4,0 -0.6,0.1 -1.7,0.3 -2.7,1.6 -2.5,3.4 0.2,1.7 1.5,2.6 3,2.6 2.9,0 5.7,0 8.6,0 0.1,0 0.3,0 0.4,0 0.1,-2.1 0.1,-4.1 0.1,-6.1 z M 43,14 c -5.1,0.6 -10.2,1.1 -15.3,1.7 v 0 c 5.1,0 10.3,0 15.5,0 C 43.1,15.1 43.1,14.6 43,14 Z"/><path id="path8454" fill="#fff" d="m 17.7,44.4 c -0.7,0 -1.4,0 -2.1,0 -1.2,0 -2.2,-1 -2.2,-2.2 0,-1 0,-1.9 0,-2.9 0,-0.9 0.4,-1.5 1.1,-2 0.2,-0.1 0.3,-0.2 0.3,-0.5 0.2,-2.2 2.6,-3.4 4.4,-2.2 0.8,0.5 1.1,1.3 1.2,2.2 0,0.2 0.1,0.3 0.3,0.4 0.8,0.5 1.2,1.1 1.2,2.1 0,0.9 0,1.9 0,2.8 0,1.2 -0.9,2.2 -2.2,2.2 -0.6,0.1 -1.3,0.1 -2,0.1 z m 0,-5.5 c -0.7,0 -1.4,0 -2.2,0 -0.3,0 -0.4,0.1 -0.4,0.4 0,1 0,2 0,3 0,0.3 0.1,0.4 0.4,0.4 1.4,0 2.9,0 4.3,0 0.3,0 0.4,-0.1 0.4,-0.4 0,-1 0,-2 0,-3 0,-0.3 -0.1,-0.4 -0.4,-0.4 -0.7,0 -1.4,0 -2.1,0 z m 1,-1.8 c 0,-0.8 -0.4,-1.2 -1.2,-1.1 -0.6,0 -0.9,0.5 -0.8,1.1 0.7,0 1.3,0 2,0 z"/><path id="path8456" fill="#fff" d="m 43.1,29.7 c 0,1.1 -1,2.1 -2.1,2.1 -1,0 -2.1,-1 -2.1,-2.1 0,-1.1 1,-2.1 2.1,-2.1 1,0 2.1,1 2.1,2.1 z m -1.7,0.1 c 0,-0.1 0,-0.2 0,-0.2 -0.2,-0.1 -0.3,-0.2 -0.5,-0.2 -0.3,-0.1 -0.4,0.1 -0.4,0.4 0,0.3 0.1,0.4 0.4,0.4 0.2,-0.2 0.4,-0.3 0.5,-0.4 z"/><path id="path8458" fill="#fff" d="m 16.9,41.8 c -0.1,-0.3 -0.2,-0.6 -0.3,-0.9 -0.1,-0.5 0.1,-0.8 0.4,-1.1 0.3,-0.3 0.7,-0.4 1.1,-0.2 0.7,0.4 0.9,0.9 0.5,1.6 -0.1,0.2 -0.1,0.4 -0.2,0.6 -0.4,0 -1,0 -1.5,0 z m 1.5,-1.2 c -0.3,-0.2 -0.5,-0.5 -0.7,-0.5 -0.2,0 -0.5,0.3 -0.5,0.5 0,0.1 0.3,0.5 0.5,0.5 0.2,0 0.4,-0.3 0.7,-0.5 z"/><path id="path8460" fill="#d91f2f" d="m 19.8,24.5 c 0.1,2.2 0.2,4.3 0.4,6.5 0.3,0 0.8,0.1 1.3,0.4 0.6,0.3 0.9,0.7 1.1,0.9 0.5,-2.6 1,-5.2 1.4,-7.7 h -4.2 z"/></g></g></svg>