<svg xmlns="http://www.w3.org/2000/svg" xmlns:svg="http://www.w3.org/2000/svg" id="svg1355" width="630.787" height="500.953" version="1.1" viewBox="0 0 166.896 132.544"><metadata id="metadata1352"/><g id="layer1" transform="translate(-22.369279,-82.421456)"><path id="path3121-65-4-2-0" fill="#2c6dad" fill-opacity="1" stroke="none" stroke-dasharray="none" stroke-linecap="butt" stroke-linejoin="miter" stroke-miterlimit="4" stroke-opacity="1" stroke-width="1.323" d="m 51.242639,145.75006 h 10.69078 V 133.5893 h -10.69078 z m 0,21.2794 h 10.69078 V 154.8687 h -10.69078 z m 0,21.2794 h 10.69078 V 176.1481 h -10.69078 z m -21.70138,-42.55881 h 10.69079 v -12.16076 h -10.69079 z m 0,21.2794 h 10.69079 v -12.16076 h -10.69079 z m 0,21.2794 h 10.69079 v -12.16076 h -10.69079 z m -7.17198,26.65635 v -87.37519 h 47.01246 v 87.37519 h -18.77568 v -19.10978 h -9.52149 V 214.9652 Z M 171.12588,124.47066 h 10.69078 V 112.3099 h -10.69078 z m 0,21.2794 h 10.69078 V 133.5893 h -10.69078 z m 0,21.2794 h 10.69078 V 154.8687 h -10.69078 z m 0,21.2794 h 10.69078 V 176.1481 H 171.12588 Z M 149.4245,124.47065 h 10.69079 V 112.30989 H 149.4245 Z m 0,21.2794 h 10.69079 V 133.58929 H 149.4245 Z m 0,21.2794 h 10.69079 V 154.86869 H 149.4245 Z m 0,21.2794 h 10.69079 V 176.14809 H 149.4245 Z m -7.17198,26.65635 V 105.94118 h 47.01246 V 214.9652 H 170.4893 v -19.10978 h -9.52149 V 214.9652 Z M 121.89418,103.19128 h 10.69078 V 91.030507 h -10.69078 z m 0,21.27938 h 10.69078 V 112.3099 h -10.69078 z m 0,21.27939 h 10.69078 v -12.16076 h -10.69078 z m 0,21.27941 h 10.69078 v -12.16077 h -10.69078 z m 0,21.2794 h 10.69078 V 176.14809 H 121.89418 Z M 100.1928,103.19128 h 10.69078 V 91.030505 H 100.1928 Z m 0,21.27938 h 10.69078 V 112.3099 H 100.1928 Z m 0,21.2794 h 10.69078 V 133.5893 H 100.1928 Z m 0,21.2794 h 10.69078 V 154.8687 H 100.1928 Z m 0,21.2794 h 10.69078 V 176.1481 H 100.1928 Z M 78.491427,103.19127 H 89.182209 V 91.030509 H 78.491427 Z m 0,21.27938 H 89.182209 V 112.30989 H 78.491427 Z m 0,21.2794 H 89.182209 V 133.58929 H 78.491427 Z m 10e-7,21.2794 H 89.18221 V 154.86869 H 78.491428 Z m -10e-7,21.2794 H 89.182209 V 176.14809 H 78.491427 Z M 71.319443,214.9652 V 82.421456 H 140.248 V 214.9652 h -23.72017 v -19.10978 h -8.88671 v 19.10978 h -3.00678 v -19.10978 h -9.521482 v 19.10978 z" opacity="1"/></g></svg>