<svg xmlns="http://www.w3.org/2000/svg" xmlns:svg="http://www.w3.org/2000/svg" id="svg903" width="100" height="100" fill="none" fill-rule="evenodd" stroke-linecap="square" stroke-miterlimit="3" class="st2" color-interpolation-filters="sRGB" contentScriptType="text/ecmascript" contentStyleType="text/css" font-size="12" overflow="visible" preserveAspectRatio="xMidYMid meet" version="1.1" viewBox="0 0 75 75" zoomAndPan="magnify" xml:space="preserve"><metadata id="metadata1210"/><circle id="circle1201" cx="37.5" cy="37.5" r="37.5" fill="#92c24b" fill-opacity="1" opacity="1"/><path id="path1309" fill="#fff" fill-opacity="1" fill-rule="nonzero" stroke="none" stroke-dasharray="none" stroke-dashoffset="0" stroke-linecap="butt" stroke-linejoin="miter" stroke-miterlimit="3" stroke-opacity="1" stroke-width="3.541" d="m 32.063668,11.572258 c -8.036826,0 -14.300875,5.950401 -15.664797,12.546758 -7.2786092,1.292187 -12.3046357,7.906265 -12.3046357,14.079736 0,9.403294 7.2685307,15.605673 15.7858577,15.605673 h 0.0028 l 19.036219,-0.07742 c 1.893687,0.94483 3.911847,1.4457 5.851775,1.4457 4.944629,0 8.966468,-1.793852 11.669768,-4.636938 0.404369,-0.42528 0.775527,-0.875167 1.120522,-1.34153 l 0.360369,0.233677 a 5.2315876,5.2315876 0 0 0 -0.449054,2.112946 5.2315876,5.2315876 0 0 0 5.230984,5.230983 5.2315876,5.2315876 0 0 0 5.232391,-5.230983 5.2315876,5.2315876 0 0 0 -5.232391,-5.232392 5.2315876,5.2315876 0 0 0 -3.705045,1.544238 l -0.418085,-0.271684 c 1.27951,-2.314715 1.94543,-4.955593 1.94543,-7.664884 0,-3.608083 -1.262959,-6.672683 -3.177161,-9.037382 l 1.514677,-1.013538 a 5.2315876,5.2315876 0 0 0 3.545977,1.395023 5.2315876,5.2315876 0 0 0 5.23239,-5.230984 5.2315876,5.2315876 0 0 0 -5.23239,-5.232391 5.2315876,5.2315876 0 0 0 -5.230984,5.232391 5.2315876,5.2315876 0 0 0 0.539146,2.307207 l -1.669523,1.1163 C 53.800745,27.328093 50.995142,26.10732 48.178926,25.484477 47.182449,16.707263 39.399437,11.572258 32.063668,11.572258 Z m 0,3.540345 c 6.021289,0 12.516158,4.165431 12.757913,11.785197 l 0.04645,1.497784 1.485115,0.199893 c 2.296199,0.31071 4.722353,1.311184 6.64853,2.895622 l -5.325299,3.562869 a 5.2315876,5.2315876 0 0 0 -3.724753,-1.559723 5.2315876,5.2315876 0 0 0 -5.230984,5.230984 5.2315876,5.2315876 0 0 0 5.230984,5.23239 5.2315876,5.2315876 0 0 0 3.48263,-1.335899 l 7.153891,4.642568 c -0.222599,0.288374 -0.460296,0.565511 -0.712292,0.830539 -2.025259,2.129983 -4.995454,3.536122 -9.104953,3.536122 -4.142573,0 -9.859062,-3.748685 -10.842043,-10.335275 l -3.502338,0.523661 c 0.504638,3.381393 1.959345,6.206462 3.910568,8.384214 l -14.456997,0.06194 c -6.891533,0 -12.2441045,-4.410058 -12.2441045,-12.066735 0,-4.60727 4.8122675,-10.768844 11.3403665,-10.768844 5.853054,0 9.636384,3.748416 11.037713,7.380529 l 3.305261,-1.276777 c -1.787799,-4.633687 -6.452881,-9.139559 -13.209781,-9.599052 1.422564,-4.514524 6.108396,-8.822005 11.95412,-8.822005 z m 22.34148,17.735511 c 1.574949,1.809546 2.580299,4.124515 2.580299,7.068021 0,2.0601 -0.479165,4.023401 -1.37813,5.736346 l -7.003268,-4.542623 a 5.2315876,5.2315876 0 0 0 0.579969,-2.384629 5.2315876,5.2315876 0 0 0 -0.442015,-2.089016 z" baseline-shift="baseline" clip-rule="nonzero" color="#000" color-interpolation="sRGB" color-interpolation-filters="linearRGB" color-rendering="auto" direction="ltr" display="inline" dominant-baseline="auto" enable-background="accumulate" font-family="sans-serif" font-size="medium" font-stretch="normal" font-style="normal" font-variant="normal" font-weight="normal" image-rendering="auto" letter-spacing="normal" opacity="1" overflow="visible" shape-rendering="auto" text-anchor="start" text-decoration="none" text-rendering="auto" vector-effect="none" visibility="visible" word-spacing="normal" writing-mode="lr-tb" style="line-height:normal;font-variant-ligatures:normal;font-variant-position:normal;font-variant-caps:normal;font-variant-numeric:normal;font-variant-alternates:normal;font-feature-settings:normal;text-indent:0;text-align:start;text-decoration-line:none;text-decoration-style:solid;text-decoration-color:#000;text-transform:none;text-orientation:mixed;white-space:normal;shape-padding:0;isolation:auto;mix-blend-mode:normal;solid-color:#000;solid-opacity:1"/></svg>