<svg xmlns="http://www.w3.org/2000/svg" xmlns:svg="http://www.w3.org/2000/svg" id="svg1220" width="100" height="100" fill="none" fill-rule="evenodd" stroke-linecap="square" stroke-miterlimit="3" class="st2" color-interpolation-filters="sRGB" font-size="12" overflow="visible" version="1.1" viewBox="0 0 75 75" xml:space="preserve"><metadata id="metadata1226"/><defs id="defs1224"><defs id="defs1171"><path id="mfid20" d="m 639960,101770 c 146430,135680 146430,355690 0,491360 -146390,135720 -383760,135720 -530150,0 -146426,-135670 -146426,-355680 0,-491360 146390,-135707 383760,-135707 530150,0 z"/></defs></defs><style id="style1162" type="text/css">.st2{fill:none;fill-rule:evenodd;font-size:12px;overflow:visible;stroke-linecap:square;stroke-miterlimit:3}</style><circle id="circle1396" cx="37.5" cy="37.5" r="37.5" fill="#90c34b" fill-opacity="1" fill-rule="evenodd" stroke="none" stroke-linecap="square" stroke-miterlimit="3" stroke-width="1" color-interpolation-filters="sRGB" font-size="12" opacity="1" overflow="visible"/><path id="path203" fill="#fff" stroke="none" stroke-linecap="butt" stroke-linejoin="miter" stroke-opacity="1" stroke-width=".75" d="M 60.843722,56.953095 V 24.304674 L 42.93748,15.070302 49.00779,11.976553 67.371063,21.35155 V 53.695285 Z M 37.714941,34.24619 21.855114,26.040713 39.838044,16.808698 55.638243,24.915713 Z M 39.15375,55.881146 V 36.679668 L 58.01323,26.765609 V 46.180381 Z M 18.738617,47.029329 V 27.688404 l 17.347071,8.88545 v 19.45076 z M 7.6289027,41.343728 V 21.328112 L 37.406233,5.9531192 45.749979,10.312492 15.773431,25.82811 v 19.640616 z m 0,12.304682 V 44.554664 L 37.642963,59.960649 58.01323,49.335912 V 58.40622 L 37.42967,68.882777 Z" opacity="1"/></svg>