<svg xmlns="http://www.w3.org/2000/svg" xmlns:svg="http://www.w3.org/2000/svg" id="svg1355" width="742.408" height="742.408" version="1.1" viewBox="0 0 196.429 196.429"><metadata id="metadata1352"/><g id="layer1" transform="translate(-7.5486803,-50.007427)"><rect id="rect1368" width="196.429" height="196.429" x="7.549" y="50.007" fill="#4c7bb4" fill-opacity="1" stroke="none" stroke-dasharray="none" stroke-dashoffset="17.008" stroke-linecap="round" stroke-linejoin="miter" stroke-miterlimit="3" stroke-opacity="1" stroke-width="1.287" opacity="1" paint-order="normal" rx="8.367" ry="8.367" vector-effect="none"/><path id="path3431" fill="#fff" stroke-width="3.805" d="m 163.59595,191.40588 h -38.42844 c -5.32672,0 -9.51199,4.18526 -9.51199,9.51203 0,0 0,0 0,0 v 14.83878 h 57.83292 v -14.45828 c -0.3805,-5.32677 -4.56577,-9.51202 -9.89249,-9.89253 0,0 0,0 0,0 z m -77.237358,0 H 47.93014 c -5.326709,0 -9.511991,4.18526 -9.892461,9.51203 0,0 0,0 0,0.38108 v 14.45826 h 57.832904 v -14.45826 c 0.380505,-5.32677 -3.804792,-9.51203 -9.511991,-9.89253 0.380505,0 0.380505,0 0,0 z m 43.374688,-86.74937 c 0,-13.316765 -11.03392,-23.970148 -24.35072,-23.970148 -13.316769,0 -23.970216,11.033887 -23.970216,24.350658 0,13.31676 10.653447,23.97029 23.970216,23.97029 13.69727,0 24.35072,-10.65353 24.35072,-24.3508 0,0.38108 0,0.38108 0,0 z m -23.97023,19.40454 c -10.653433,0 -19.404458,-8.751 -19.404458,-19.40454 0,-10.653383 8.751025,-19.404392 19.404458,-19.404392 10.65343,0 19.40446,8.751009 19.40446,19.404392 0,10.65354 -8.75103,19.40454 -19.40446,19.40454 z m 14.45822,33.86267 c 0,13.31676 10.65344,23.97015 23.97022,23.97015 13.3168,0 23.97022,-10.65339 23.97022,-23.97015 0,-13.31677 -10.65342,-23.97029 -23.97022,-23.97029 -13.31678,0 -23.97022,10.65352 -23.97022,23.97029 0,0 0,0 0,0 z m 23.97022,-19.40454 c 10.65344,0 19.40446,8.75116 19.40446,19.40454 0,10.65338 -8.75102,19.4044 -19.40446,19.4044 -10.65342,0 -19.40446,-8.75102 -19.40446,-19.4044 0.3805,-10.65338 8.75104,-19.40454 19.40446,-19.40454 z m -77.237359,43.37469 c 13.316775,0 23.970222,-10.65339 23.970222,-23.97015 0,-13.31677 -10.653447,-23.97029 -23.970222,-23.97029 -13.316792,0 -23.970221,10.65352 -23.970221,23.97029 0,13.31676 10.653429,23.97015 23.970221,23.97015 0,0 0,0 0,0 z m 0,-43.37469 c 10.653421,0 19.404461,8.37066 19.404461,19.02404 0,10.65338 -8.370561,19.40453 -19.02399,19.40453 -10.653428,0 -19.404462,-8.37065 -19.404462,-19.02403 0,0 0,0 0,0 0,-10.65338 8.751034,-19.40454 19.023991,-19.40454 z"/></g></svg>