<svg xmlns="http://www.w3.org/2000/svg" xmlns:svg="http://www.w3.org/2000/svg" id="svg1355" width="535.265" height="729.159" version="1.1" viewBox="0 0 141.622 192.923"><metadata id="metadata1352"/><g id="layer1" transform="translate(-34.494965,-51.906654)"><rect id="rect1368" width="141.622" height="141.622" x="34.495" y="51.907" fill="#168733" fill-opacity="1" stroke="none" stroke-dasharray="none" stroke-dashoffset="17.008" stroke-linecap="round" stroke-linejoin="miter" stroke-miterlimit="3" stroke-opacity="1" stroke-width=".928" opacity="1" paint-order="normal" rx="6.032" ry="6.032" vector-effect="none"/><text id="text2299" x="49.243" y="244.031" fill="#000" fill-opacity="1" stroke="none" stroke-width=".265" font-family="sans-serif" font-size="25.4" font-style="normal" font-weight="normal" letter-spacing="0" word-spacing="0" xml:space="preserve" style="line-height:1.25"><tspan id="tspan2297" x="49.243" y="244.031" stroke-width=".265" font-size="56.444">ACL</tspan></text><path id="path3013" fill="#fff" fill-opacity="1" fill-rule="nonzero" stroke="none" stroke-dasharray="none" stroke-dashoffset="0" stroke-linecap="round" stroke-linejoin="miter" stroke-miterlimit="3" stroke-opacity="1" stroke-width="5.502" d="m 74.939688,115.91675 h 6.213702 v -13.87654 c 0,-16.316287 11.929425,-25.996505 25.03041,-25.996505 12.76508,0 24.50346,10.189894 24.50346,26.391675 v 13.48137 h 6.03805 v 49.4021 H 74.939688 Z m 14.271742,0 h 33.19823 v -13.56912 c 0,-11.461397 -8.31325,-18.09216 -16.75286,-18.09216 -7.969307,0 -16.44537,7.044639 -16.44537,16.9504 z m 34.44887,7.45686 a 2.7512203,2.7512203 0 0 0 -1.86735,0.88356 L 101.9919,145.18058 90.639457,133.45564 a 2.7526886,2.7526886 0 1 0 -3.954486,3.83029 l 15.349909,15.85134 23.75547,-25.09756 a 2.7512203,2.7512203 0 0 0 -2.13005,-4.6661 z" baseline-shift="baseline" clip-rule="nonzero" color="#000" color-interpolation="sRGB" color-interpolation-filters="linearRGB" color-rendering="auto" direction="ltr" display="inline" dominant-baseline="auto" enable-background="accumulate" font-family="sans-serif" font-size="medium" font-stretch="normal" font-style="normal" font-variant="normal" font-weight="normal" image-rendering="auto" letter-spacing="normal" opacity="1" overflow="visible" shape-rendering="auto" text-anchor="start" text-decoration="none" text-rendering="auto" vector-effect="none" visibility="visible" word-spacing="normal" writing-mode="lr-tb" style="line-height:normal;font-variant-ligatures:normal;font-variant-position:normal;font-variant-caps:normal;font-variant-numeric:normal;font-variant-alternates:normal;font-feature-settings:normal;text-indent:0;text-align:start;text-decoration-line:none;text-decoration-style:solid;text-decoration-color:#000;text-transform:none;text-orientation:mixed;white-space:normal;shape-padding:0;isolation:auto;mix-blend-mode:normal;solid-color:#000;solid-opacity:1"/></g></svg>