<svg xmlns="http://www.w3.org/2000/svg" xmlns:svg="http://www.w3.org/2000/svg" id="svg1355" width="742.408" height="742.408" version="1.1" viewBox="0 0 196.429 196.429"><metadata id="metadata1352"/><g id="layer1" transform="translate(-7.5486803,-50.007427)"><rect id="rect1368" width="196.429" height="196.429" x="7.549" y="50.007" fill="#168733" fill-opacity="1" stroke="none" stroke-dasharray="none" stroke-dashoffset="17.008" stroke-linecap="round" stroke-linejoin="miter" stroke-miterlimit="3" stroke-opacity="1" stroke-width="1.287" opacity="1" paint-order="normal" rx="8.367" ry="8.367" vector-effect="none"/><path dominant-baseline="auto" style="line-height:normal;font-variant-ligatures:normal;font-variant-position:normal;font-variant-caps:normal;font-variant-numeric:normal;font-variant-alternates:normal;font-feature-settings:normal;text-indent:0;text-align:start;text-decoration-line:none;text-decoration-style:solid;text-decoration-color:#000;text-transform:none;text-orientation:mixed;white-space:normal;shape-padding:0;isolation:auto;mix-blend-mode:normal;solid-color:#000;solid-opacity:1" id="path2189" fill="#fff" fill-opacity="1" fill-rule="nonzero" stroke="none" stroke-dasharray="none" stroke-dashoffset="0" stroke-linecap="butt" stroke-linejoin="miter" stroke-miterlimit="4" stroke-opacity="1" stroke-width="30.236" d="M 226.66797 92.289062 L 226.66797 107.4082 L 226.66797 163.24609 L 93.701172 163.24609 L 93.701172 178.36523 L 93.701172 594.19727 L 226.66797 594.19727 L 226.66797 626.8125 L 492.26172 626.8125 L 492.26172 594.19727 L 624.88672 594.19727 L 624.88672 163.24609 L 492.26172 163.24609 L 492.26172 92.289062 L 226.66797 92.289062 z M 256.9043 122.52539 L 462.02539 122.52539 L 462.02539 596.57617 L 256.9043 596.57617 L 256.9043 122.52539 z M 427.3457 162.02734 L 289.21484 162.67578 L 289.35547 192.91211 L 427.48633 192.25586 L 427.3457 162.02734 z M 123.9375 193.48242 L 226.66797 193.48242 L 226.66797 233.10547 L 156.24805 233.63281 L 156.38867 263.86914 L 226.66797 263.33789 L 226.66797 297.02148 L 156.43359 296.20117 L 156.21094 326.4375 L 226.66797 327.25977 L 226.66797 365.63672 L 156.26367 366.02734 L 156.37305 396.26367 L 226.66797 395.875 L 226.66797 563.96094 L 123.9375 563.96094 L 123.9375 193.48242 z M 492.26172 193.48242 L 594.65039 193.48242 L 594.65039 563.96094 L 492.26172 563.96094 L 492.26172 396.16602 L 560.0957 395.7832 L 559.99414 365.54688 L 492.26172 365.92773 L 492.26172 326.64648 L 559.93359 327.44922 L 560.15625 297.21289 L 492.26172 296.4082 L 492.26172 263.73438 L 560.11133 263.21289 L 559.9707 232.98242 L 492.26172 233.49805 L 492.26172 193.48242 z M 289.40039 225.24414 L 289.17969 255.48047 L 427.30859 256.49219 L 427.5293 226.25586 L 289.40039 225.24414 z M 427.36719 294.58984 L 289.23047 295.07031 L 289.3418 325.30664 L 427.4707 324.82617 L 427.36719 294.58984 z" baseline-shift="baseline" clip-rule="nonzero" color="#000" color-interpolation="sRGB" color-interpolation-filters="linearRGB" color-rendering="auto" direction="ltr" display="inline" enable-background="accumulate" font-family="sans-serif" font-size="medium" font-stretch="normal" font-style="normal" font-variant="normal" font-weight="normal" image-rendering="auto" letter-spacing="normal" opacity="1" overflow="visible" shape-rendering="auto" text-anchor="start" text-decoration="none" text-rendering="auto" transform="matrix(0.26458333,0,0,0.26458333,7.5486803,50.007427)" vector-effect="none" visibility="visible" word-spacing="normal" writing-mode="lr-tb"/></g></svg>